#N canvas 0 50 450 300 12;
#X obj 189 69 inlet;
#X obj 189 197 outlet;
#X obj 189 106 sel 1 2;
#X obj 189 166 tgl 15 0 empty empty empty 17 7 0 10 -262144 -1 -1 1
1;
#X msg 265 113 0;
#X obj 249 69 loadbang;
#X msg 159 142 1;
#X obj 354 44 del 10;
#X connect 0 0 2 0;
#X connect 2 0 6 0;
#X connect 2 1 4 0;
#X connect 3 0 1 0;
#X connect 4 0 3 0;
#X connect 5 0 4 0;
#X connect 5 0 7 0;
#X connect 6 0 3 0;
#X connect 7 0 4 0;
