#N canvas 0 96 1280 704 10;
#X obj 42 264 vsl 15 256 0 255 0 0 empty empty empty 0 -9 0 10 -258113
-1 -1 0 1;
#X msg 150 126 POT 1 \$1;
#X obj 150 102 change;
#N canvas 717 120 564 390 pot_filter 0;
#X obj 27 15 inlet;
#X obj 70 101 -;
#X obj 70 126 abs;
#X obj 27 41 t 0 0 0;
#X obj 70 159 > 2;
#X obj 434 -9 inlet;
#X msg 432 106 0;
#X obj 69 193 sel 1;
#X msg 76 228 1;
#X obj 41 267 spigot;
#X obj 40 297 outlet;
#X obj 433 40 bng 15 250 50 0 empty empty empty 17 7 0 10 -262144 -1
-1;
#X obj 133 15 inlet;
#X obj 176 101 -;
#X obj 176 126 abs;
#X obj 133 41 t 0 0 0;
#X obj 176 159 > 2;
#X obj 175 193 sel 1;
#X msg 182 228 1;
#X obj 147 267 spigot;
#X obj 146 297 outlet;
#X obj 223 16 inlet;
#X obj 266 102 -;
#X obj 266 127 abs;
#X obj 223 42 t 0 0 0;
#X obj 266 160 > 2;
#X obj 265 194 sel 1;
#X msg 272 229 1;
#X obj 237 268 spigot;
#X obj 236 298 outlet;
#X obj 329 16 inlet;
#X obj 372 102 -;
#X obj 372 127 abs;
#X obj 329 42 t 0 0 0;
#X obj 372 160 > 2;
#X obj 371 194 sel 1;
#X msg 378 229 1;
#X obj 343 268 spigot;
#X obj 342 298 outlet;
#X obj 434 15 change;
#X obj 87 76 int;
#X obj 196 75 int;
#X obj 282 79 int;
#X obj 387 75 int;
#X connect 0 0 3 0;
#X connect 1 0 2 0;
#X connect 2 0 4 0;
#X connect 3 0 40 1;
#X connect 3 1 9 0;
#X connect 3 2 1 0;
#X connect 4 0 7 0;
#X connect 5 0 39 0;
#X connect 6 0 9 1;
#X connect 6 0 37 1;
#X connect 6 0 28 1;
#X connect 6 0 19 1;
#X connect 7 0 8 0;
#X connect 8 0 9 1;
#X connect 9 0 10 0;
#X connect 11 0 6 0;
#X connect 11 0 43 0;
#X connect 11 0 42 0;
#X connect 11 0 41 0;
#X connect 11 0 40 0;
#X connect 12 0 15 0;
#X connect 13 0 14 0;
#X connect 14 0 16 0;
#X connect 15 0 41 1;
#X connect 15 1 19 0;
#X connect 15 2 13 0;
#X connect 16 0 17 0;
#X connect 17 0 18 0;
#X connect 18 0 19 1;
#X connect 19 0 20 0;
#X connect 21 0 24 0;
#X connect 22 0 23 0;
#X connect 23 0 25 0;
#X connect 24 0 42 1;
#X connect 24 1 28 0;
#X connect 24 2 22 0;
#X connect 25 0 26 0;
#X connect 26 0 27 0;
#X connect 27 0 28 1;
#X connect 28 0 29 0;
#X connect 30 0 33 0;
#X connect 31 0 32 0;
#X connect 32 0 34 0;
#X connect 33 0 43 1;
#X connect 33 1 37 0;
#X connect 33 2 31 0;
#X connect 34 0 35 0;
#X connect 35 0 36 0;
#X connect 36 0 37 1;
#X connect 37 0 38 0;
#X connect 39 0 11 0;
#X connect 40 0 1 1;
#X connect 41 0 13 1;
#X connect 42 0 22 1;
#X connect 43 0 31 1;
#X restore 167 63 pd pot_filter;
#X obj 150 154 unpack s 0 0;
#X obj 148 264 pack s 0 0;
#X obj 141 205 t 0 b;
#X obj 144 233 +;
#X obj 142 402 pack 0 0 0 0 0;
#X obj 169 375 / 2;
#X obj 197 377 / 2;
#X obj 224 377 / 2;
#X obj 251 377 / 2;
#X obj 169 326 text get pot_values;
#X obj 284 462 text set pot_values;
#X obj 305 387 unpack 0 0;
#X obj 305 411 t 0 b;
#X msg 363 355 10;
#X obj 403 289 bng 15 250 50 0 empty empty empty 17 7 0 10 -262144
-1 -1;
#X msg 397 355 -1;
#X obj 362 411 - 1;
#X obj 247 299 pack 0 0;
#X msg 305 361 \$2 \$1;
#X obj 60 264 vsl 15 256 0 255 0 0 empty empty empty 0 -9 0 10 -258113
-1 -1 0 1;
#X obj 79 264 vsl 15 256 0 255 0 0 empty empty empty 0 -9 0 10 -258113
-1 -1 0 1;
#X obj 98 264 vsl 15 256 0 255 0 0 empty empty empty 0 -9 0 10 -258113
-1 -1 0 1;
#X obj 212 104 change;
#X msg 212 128 POT 2 \$1;
#X obj 272 105 change;
#X obj 334 103 change;
#X msg 272 129 POT 3 \$1;
#X msg 334 129 POT 4 \$1;
#X msg 853 343 ENTER;
#X msg 861 323 ESC;
#X msg 702 306 symbol UP;
#X msg 769 306 symbol DOWN;
#X obj 591 217 change;
#X obj 644 229 change;
#X obj 591 240 sel 1;
#X obj 702 280 sel 1 65;
#X obj 930 197 s pot4;
#X obj 914 212 s pot3;
#X obj 898 227 s pot2;
#X obj 882 242 s pot1;
#X obj 27 97 r pot1;
#X obj 44 77 r pot2;
#X obj 60 62 r pot3;
#X obj 76 47 r pot4;
#X obj 552 722 netsend -u -b;
#X obj 604 675 loadbang;
#X obj 490 675 list prepend send;
#X obj 490 698 list trim;
#X msg 643 722 disconnect;
#X msg 552 698 connect 127.0.0.1 3002;
#X obj 979 23 bng 8 250 50 0 empty empty empty 17 7 0 10 -262144 -1
-1;
#X obj 452 15 bng 8 250 50 0 empty empty empty 17 7 0 10 -262144 -1
-1;
#X obj 452 580 bng 8 250 50 0 empty empty empty 17 7 0 10 -262144 -1
-1;
#X obj 979 588 bng 8 250 50 0 empty empty empty 17 7 0 10 -262144 -1
-1;
#X obj 1000 16 bng 8 250 50 0 empty empty empty 17 7 0 10 -262144 -1
-1;
#X obj 1485 24 bng 8 250 50 0 empty empty empty 17 7 0 10 -262144 -1
-1;
#X obj 1000 287 bng 8 250 50 0 empty empty empty 17 7 0 10 -262144
-1 -1;
#X obj 1485 295 bng 8 250 50 0 empty empty empty 17 7 0 10 -262144
-1 -1;
#X obj 452 600 bng 8 250 50 0 empty empty empty 17 7 0 10 -262144 -1
-1;
#X obj 979 608 bng 8 250 50 0 empty empty empty 17 7 0 10 -262144 -1
-1;
#X obj 452 756 bng 8 250 50 0 empty empty empty 17 7 0 10 -262144 -1
-1;
#X obj 979 764 bng 8 250 50 0 empty empty empty 17 7 0 10 -262144 -1
-1;
#X obj 939 544 bng 8 250 50 0 empty empty empty 17 7 0 10 -262144 -1
-1;
#X obj 961 552 bng 8 250 50 0 empty empty empty 17 7 0 10 -262144 -1
-1;
#X obj 939 558 bng 8 250 50 0 empty empty empty 17 7 0 10 -262144 -1
-1;
#X obj 961 566 bng 8 250 50 0 empty empty empty 17 7 0 10 -262144 -1
-1;
#X obj 15 -106 bng 8 250 50 0 empty empty empty 17 7 0 10 -262144 -1
-1;
#X obj 429 -98 bng 8 250 50 0 empty empty empty 17 7 0 10 -262144 -1
-1;
#X obj 15 647 bng 8 250 50 0 empty empty empty 17 7 0 10 -262144 -1
-1;
#X obj 429 655 bng 8 250 50 0 empty empty empty 17 7 0 10 -262144 -1
-1;
#X text 28 32 Sauvegarde des valeurs des pots par pages;
#X obj 899 544 bng 8 250 50 0 empty empty empty 17 7 0 10 -262144 -1
-1;
#X obj 921 552 bng 8 250 50 0 empty empty empty 17 7 0 10 -262144 -1
-1;
#X obj 899 558 bng 8 250 50 0 empty empty empty 17 7 0 10 -262144 -1
-1;
#X obj 921 566 bng 8 250 50 0 empty empty empty 17 7 0 10 -262144 -1
-1;
#X obj 1020 355 bng 15 250 50 0 empty empty empty 17 7 0 10 -262144
-1 -1;
#X obj 1020 400 oscformat waveform;
#X obj 1020 378 array get wave;
#N canvas 0 23 450 278 (subpatch) 0;
#X array wave 127 float 3;
#A 0 -0.00267231 -0.00430584 -0.0075891 -0.0111488 -0.0181434 -0.0307897
-0.0553864 -0.106004 -0.211538 -0.339611 -0.353725 -0.134835 0.174113
0.314275 0.215025 0.0234717 -0.0419042 0.145535 0.42555 0.489548 0.24887
-0.0818617 -0.241086 -0.161506 0.063121 0.257098 0.29213 0.199457 0.128361
0.192467 0.354352 0.399345 0.192157 -0.0722592 -0.107601 0.0541885
0.128709 -0.0548862 -0.348736 -0.455824 -0.25168 0.0614409 0.199085
0.105559 -0.0753865 -0.169792 -0.0826617 0.102058 0.171678 0.00782573
-0.274706 -0.416666 -0.261989 0.109251 0.450019 0.564522 0.407318 0.0458132
-0.311445 -0.473908 -0.406046 -0.170984 0.0704966 0.164499 0.152566
0.148936 0.157353 0.0333674 -0.267156 -0.503238 -0.425198 -0.103816
0.162456 0.227493 0.184999 0.155519 0.117519 0.0709612 0.141293 0.379728
0.597438 0.570317 0.277271 -0.0321258 -0.158376 -0.153366 -0.0641834
0.160321 0.387129 0.387519 0.0992812 -0.330926 -0.648789 -0.671378
-0.399703 0.0186728 0.432185 0.699825 0.69249 0.392946 -0.0348892 -0.289979
-0.261067 -0.171815 -0.222092 -0.310742 -0.252587 -0.0803955 -0.0205187
-0.193568 -0.505532 -0.729545 -0.668785 -0.333943 -0.0416903 -0.00563717
-0.0999078 -0.151368 -0.120784 -0.0827603 -0.199601 -0.461605 -0.588716
-0.398019 -0.129436 -0.0681621 -0.0792408;
#X coords 0 1 127 -1 200 140 1 0 0;
#X restore 1021 432 graph;
#X obj 63 758 list trim;
#X obj 63 734 oscparse;
#X obj 63 708 netreceive -u -b 5006;
#X obj 208 708 loadbang;
#X msg 253 950 \; pd-main.pd menuclose \;;
#X msg 182 914 \; pd open main.pd \$1;
#X obj 112 842 symbol;
#X obj 182 892 makefilename /home/pi/myfiles/pd/%s/;
#X msg 112 914 \; pd dsp 1;
#X obj 112 868 trigger bang symbol bang;
#X msg 208 752 \; pd dsp 1 \;;
#X obj 15 669 bng 8 250 50 0 empty empty empty 17 7 0 10 -262144 -1
-1;
#X obj 429 677 bng 8 250 50 0 empty empty empty 17 7 0 10 -262144 -1
-1;
#X obj 15 1145 bng 8 250 50 0 empty empty empty 17 7 0 10 -262144 -1
-1;
#X obj 429 1153 bng 8 250 50 0 empty empty empty 17 7 0 10 -262144
-1 -1;
#X obj 793 369 oscformat panel;
#X obj 793 344 list;
#X obj 906 287 sel UP DOWN;
#X msg 906 312 UP;
#X msg 937 312 DOWN;
#X obj 1114 378 send LCD_messages;
#X obj 1000 304 bng 8 250 50 0 empty empty empty 17 7 0 10 -262144
-1 -1;
#X obj 1485 312 bng 8 250 50 0 empty empty empty 17 7 0 10 -262144
-1 -1;
#X obj 1000 581 bng 8 250 50 0 empty empty empty 17 7 0 10 -262144
-1 -1;
#X obj 1485 589 bng 8 250 50 0 empty empty empty 17 7 0 10 -262144
-1 -1;
#X obj 142 298 t 0 0;
#X obj 218 299 i;
#X obj 218 264 t b;
#X obj 174 816 bng 15 250 50 0 empty empty empty 17 7 0 10 -262144
-1 -1;
#X obj 63 815 print oscload :;
#X obj 1022 708 dac~;
#X obj 1021 664 catch~ AudioOutL;
#X obj 1044 685 catch~ AudioOutR;
#X obj 1360 662 adc~;
#X obj 1360 686 send~ AudioInL;
#X obj 1382 707 send~ AudioInR;
#N canvas 0 23 719 316 midi_receive 0;
#X obj 24 14 notein 1;
#X floatatom 22 47 5 0 0 0 - - -;
#X floatatom 75 48 5 0 0 0 - - -;
#X obj 23 73 pack 0 0;
#X obj 22 103 list prepend NOTE;
#X floatatom 141 43 5 0 0 0 - - -;
#X floatatom 194 44 5 0 0 0 - - -;
#X obj 151 76 pack 0 0;
#X obj 161 19 ctlin;
#X obj 149 102 list prepend CC;
#X floatatom 273 49 5 0 0 0 - - -;
#X obj 273 21 bendin, f 7;
#X obj 274 104 list prepend BEND;
#X obj 410 24 pgmin;
#X floatatom 442 51 0 0 0 0 - - -;
#X floatatom 410 51 0 0 0 0 - - -;
#X floatatom 537 51 0 0 0 0 - - -;
#X floatatom 491 51 0 0 0 0 - - -;
#X obj 491 24 touchin;
#X obj 413 78 pack 0 0;
#X obj 404 103 list prepend PGM;
#X obj 529 105 list prepend TOUCHIN;
#X obj 509 79 pack 0 0;
#X obj 28 251 send midi_in;
#X connect 0 0 1 0;
#X connect 0 1 2 0;
#X connect 1 0 3 0;
#X connect 2 0 3 1;
#X connect 3 0 4 0;
#X connect 4 0 23 0;
#X connect 5 0 7 1;
#X connect 6 0 7 0;
#X connect 7 0 9 0;
#X connect 8 0 5 0;
#X connect 8 1 6 0;
#X connect 9 0 23 0;
#X connect 10 0 12 0;
#X connect 11 0 10 0;
#X connect 12 0 23 0;
#X connect 13 0 15 0;
#X connect 13 1 14 0;
#X connect 14 0 19 1;
#X connect 15 0 19 0;
#X connect 16 0 22 1;
#X connect 17 0 22 0;
#X connect 18 0 17 0;
#X connect 18 1 16 0;
#X connect 19 0 20 0;
#X connect 20 0 23 0;
#X connect 21 0 23 0;
#X connect 22 0 21 0;
#X restore 609 651 pd midi_receive;
#X obj 452 777 bng 8 250 50 0 empty empty empty 17 7 0 10 -262144 -1
-1;
#X obj 821 785 bng 8 250 50 0 empty empty empty 17 7 0 10 -262144 -1
-1;
#X obj 452 914 bng 8 250 50 0 empty empty empty 17 7 0 10 -262144 -1
-1;
#X obj 821 922 bng 8 250 50 0 empty empty empty 17 7 0 10 -262144 -1
-1;
#X text 675 797 Calcul du Temps CPU;
#X obj 482 840 tgl 15 0 empty empty empty 17 7 0 10 -262144 -1 -1 0
1;
#X obj 328 498 list prepend POT;
#X obj 348 522 list trim;
#X obj 1143 328 r wave_upd;
#X obj 1000 600 bng 8 250 50 0 empty empty empty 17 7 0 10 -262144
-1 -1;
#X obj 1485 608 bng 8 250 50 0 empty empty empty 17 7 0 10 -262144
-1 -1;
#X obj 1000 758 bng 8 250 50 0 empty empty empty 17 7 0 10 -262144
-1 -1;
#X obj 1485 766 bng 8 250 50 0 empty empty empty 17 7 0 10 -262144
-1 -1;
#X obj 577 293 oscformat page;
#X text 463 32 uart IN;
#X obj 1201 90 oscformat labels;
#X obj 1201 62 list;
#X msg 47 917 empty;
#X obj 616 865 oscformat cpu;
#X obj 482 816 sel 8;
#X msg 726 858 0;
#X obj 540 861 cputime;
#X obj 540 805 metro 1000;
#X obj 540 833 t b b;
#X obj 573 890 * 0.1;
#X obj 540 890 int;
#X obj 912 934 bng 8 250 50 0 empty empty empty 17 7 0 10 -262144 -1
-1;
#X obj 1281 942 bng 8 250 50 0 empty empty empty 17 7 0 10 -262144
-1 -1;
#X obj 912 1072 bng 8 250 50 0 empty empty empty 17 7 0 10 -262144
-1 -1;
#X obj 1281 1080 bng 8 250 50 0 empty empty empty 17 7 0 10 -262144
-1 -1;
#X obj 942 973 sel 7;
#X obj 942 1022 oscformat midi;
#X msg 942 998 1;
#X obj 694 355 vsl 15 128 0 127 0 0 empty empty empty 0 -9 0 10 -262144
-1 -1 5300 1;
#X obj 716 355 vsl 15 128 0 127 0 0 empty empty empty 0 -9 0 10 -262144
-1 -1 2400 1;
#X obj 747 355 vsl 15 128 0 127 0 0 empty empty empty 0 -9 0 10 -262144
-1 -1 5300 1;
#X obj 769 355 vsl 15 128 0 127 0 0 empty empty empty 0 -9 0 10 -262144
-1 -1 3000 1;
#X text 649 488 CV 1;
#X text 703 489 CV 2;
#X floatatom 576 388 5 0 0 0 - - -;
#X floatatom 576 412 5 0 0 0 - - -;
#X text 501 399 GATE 1 & 2;
#X obj 686 503 change;
#X obj 739 503 change;
#X obj 523 433 change;
#X obj 576 433 change;
#X text 1140 950 params midi + cv gate;
#X obj 1106 1003 sel 6;
#X obj 1154 1017 oscformat cv_gate;
#X obj 1073 1048 spigot;
#X obj 1106 1026 tgl 15 0 empty empty empty 17 7 0 10 -262144 -1 -1
0 1;
#X msg 1017 981 0;
#X obj 1017 952 r ESC;
#X text 1021 617 adc / dac;
#X obj 650 464 +;
#X obj 634 437 << 5;
#X obj 804 463 +;
#X obj 803 436 << 5;
#X obj 489 549 list trim;
#X msg 523 462 0;
#X msg 576 461 1;
#X msg 686 531 2;
#X msg 739 531 3;
#X obj 493 497 pack 0 0;
#X obj 510 516 pack 0 0;
#X obj 563 516 pack 0 0;
#X obj 580 536 pack 0 0;
#X obj 14 1159 bng 8 250 50 0 empty empty empty 17 7 0 10 -262144 -1
-1;
#X obj 1281 1167 bng 8 250 50 0 empty empty empty 17 7 0 10 -262144
-1 -1;
#X obj 14 1433 bng 8 250 50 0 empty empty empty 17 7 0 10 -262144 -1
-1;
#X obj 1281 1441 bng 8 250 50 0 empty empty empty 17 7 0 10 -262144
-1 -1;
#X obj 286 1364 text define pot_values;
#X obj 182 1197 symbol;
#X symbolatom 182 1391 40 0 0 0 - - -;
#X obj 182 1315 makefilename;
#X msg 182 1277 set \$1;
#X obj 182 1252 makefilename /home/pi/myfiles/pd/%s/%%s;
#X obj 286 1340 list trim;
#X obj 286 1314 list prepend read;
#X obj 247 1222 symbol;
#X obj 93 1297 t b s;
#X obj 644 252 sel 1;
#X obj 529 173 bng 15 250 50 0 empty empty empty 17 7 0 10 -262144
-1 -1;
#X obj 472 174 bng 15 250 50 0 empty empty empty 17 7 0 10 -262144
-1 -1;
#X obj 472 221 bng 15 250 50 0 empty empty empty 17 7 0 10 -262144
-1 -1;
#X obj 472 242 timer;
#X floatatom 472 271 5 0 0 0 - - -;
#X obj 529 146 loadbang;
#X obj 472 322 sel 1;
#N canvas 445 254 464 362 onebang 0;
#X obj 122 63 inlet;
#X obj 212 60 inlet;
#X msg 212 85 1;
#X obj 212 109 tgl 15 0 empty empty empty 17 7 0 10 -262144 -1 -1 1
1;
#X obj 264 60 loadbang;
#X obj 123 106 spigot;
#X obj 232 136 bng 15 250 50 0 empty empty empty 17 7 0 10 -262144
-1 -1;
#X obj 174 169 outlet;
#X connect 0 0 5 0;
#X connect 1 0 2 0;
#X connect 2 0 3 0;
#X connect 3 0 5 1;
#X connect 4 0 2 0;
#X connect 5 0 6 0;
#X connect 5 0 7 0;
#X connect 6 0 3 0;
#X restore 472 197 pd onebang;
#X obj 472 146 sel 1 2;
#X obj 472 296 > 1000;
#X obj 472 351 bng 15 250 50 0 empty empty empty 17 7 0 10 -262144
-1 -1;
#X obj 516 323 bng 15 250 50 0 empty empty empty 17 7 0 10 -262144
-1 -1;
#X msg 472 374 ENTER_HOLD;
#X obj 539 225 bng 15 250 50 0 empty empty empty 17 7 0 10 -262144
-1 -1;
#X msg 516 350 ENTER;
#X obj 471 1211 symbol;
#X symbolatom 511 1345 40 0 0 0 - - -;
#X obj 511 1317 makefilename;
#X msg 511 1279 set \$1;
#X obj 511 1254 makefilename /home/pi/myfiles/pd/%s/%%s;
#X obj 511 1403 list trim;
#X obj 511 1372 list prepend write;
#X text 30 1178 chargement des presets;
#X text 513 1180 sauvegarde des presets;
#X text 34 689 chargement des subpatchs + osc in;
#X obj 401 1278 t b s;
#X msg 526 1210 0;
#X obj 1148 1321 tgl 15 0 empty empty empty 17 7 0 10 -262144 -1 -1
0 1;
#X msg 1221 1289 0;
#X msg 1148 1292 1;
#X obj 1148 1370 tgl 15 0 empty empty empty 17 7 0 10 -262144 -1 -1
0 1;
#X obj 1148 1267 sel 11;
#X obj 1148 1345 metro 300;
#X msg 462 400 1;
#X msg 487 453 0;
#X obj 463 478 s led;
#X obj 472 422 del 200;
#X text 1046 1186 clignotement activé en mode save;
#X obj 1177 639 vu 15 120 empty empty -1 -8 0 10 -66577 -1 1 0;
#X obj 1268 640 vu 15 120 empty empty -1 -8 0 10 -66577 -1 1 0;
#N canvas 329 161 625 417 vu 0;
#X obj 59 129 env~ 1024;
#X obj 161 111 abs~;
#X obj 161 213 snapshot~;
#X obj 161 256 rmstodb;
#X obj 161 21 inlet~;
#X obj 161 288 - 100;
#X obj 59 287 - 100;
#X obj 59 361 outlet;
#X obj 161 361 outlet;
#X text 344 307 Check the help file of env~ and slop~ for more details.
, f 31;
#X obj 239 89 expr 1000 / $f1;
#X floatatom 239 117 5 0 0 0 - - -;
#X obj 161 146 slop~ 0 0 0 0 1e+09;
#X obj 239 18 inlet;
#X floatatom 239 57 5 0 0 0 - - -;
#X text 359 89 convert to hz;
#X text 282 118 hz;
#X text 284 57 peak decay time in ms;
#X obj 59 171 t f b;
#X text 345 132 The env~ object is dedicated to RMS analysis. Its output
is in dB (0-100 range \, pd style) but needs to be converted to dBFS
(and we do that by simply subtracting 100)., f 31;
#X text 345 225 The slop~ object is used here for peak detection. We
need to convert the output to dB with rmstodb and also subtract by
100 to convert it to dBFS., f 31;
#X connect 0 0 18 0;
#X connect 1 0 12 0;
#X connect 2 0 3 0;
#X connect 3 0 5 0;
#X connect 4 0 0 0;
#X connect 4 0 1 0;
#X connect 5 0 8 0;
#X connect 6 0 7 0;
#X connect 10 0 11 0;
#X connect 11 0 12 3;
#X connect 12 0 2 0;
#X connect 13 0 14 0;
#X connect 14 0 10 0;
#X connect 18 0 6 0;
#X connect 18 1 2 0;
#X restore 1138 638 pd vu;
#X obj 1150 612 loadbang;
#X msg 1239 612 500;
#N canvas 329 161 625 417 vu 0;
#X obj 59 129 env~ 1024;
#X obj 161 111 abs~;
#X obj 161 213 snapshot~;
#X obj 161 256 rmstodb;
#X obj 161 21 inlet~;
#X obj 161 288 - 100;
#X obj 59 287 - 100;
#X obj 59 361 outlet;
#X obj 161 361 outlet;
#X text 344 307 Check the help file of env~ and slop~ for more details.
, f 31;
#X obj 239 89 expr 1000 / $f1;
#X floatatom 239 117 5 0 0 0 - - -;
#X obj 161 146 slop~ 0 0 0 0 1e+09;
#X obj 239 18 inlet;
#X floatatom 239 57 5 0 0 0 - - -;
#X text 359 89 convert to hz;
#X text 282 118 hz;
#X text 284 57 peak decay time in ms;
#X obj 59 171 t f b;
#X text 345 132 The env~ object is dedicated to RMS analysis. Its output
is in dB (0-100 range \, pd style) but needs to be converted to dBFS
(and we do that by simply subtracting 100)., f 31;
#X text 345 225 The slop~ object is used here for peak detection. We
need to convert the output to dB with rmstodb and also subtract by
100 to convert it to dBFS., f 31;
#X connect 0 0 18 0;
#X connect 1 0 12 0;
#X connect 2 0 3 0;
#X connect 3 0 5 0;
#X connect 4 0 0 0;
#X connect 4 0 1 0;
#X connect 5 0 8 0;
#X connect 6 0 7 0;
#X connect 10 0 11 0;
#X connect 11 0 12 3;
#X connect 12 0 2 0;
#X connect 13 0 14 0;
#X connect 14 0 10 0;
#X connect 18 0 6 0;
#X connect 18 1 2 0;
#X restore 1231 637 pd vu;
#X obj 665 560 list prepend CV_GATE;
#X obj 805 493 list trim;
#X obj 622 388 change;
#X obj 666 390 change;
#X obj 874 464 pack 0 0 0 0 0;
#X obj 854 425 t b f;
#X obj 889 402 t b f;
#X obj 63 785 route test load menu param preset preset_save load_USB
;
#X msg 283 1090 \; pd-main.pd menuclose \;;
#X msg 212 1056 \; pd open main.pd \$1;
#X obj 142 984 symbol;
#X msg 142 1056 \; pd dsp 1;
#X obj 142 1010 trigger bang symbol bang;
#X msg 77 1059 empty;
#X obj 212 1034 makefilename /media/pi/USBBB/%s/;
#X msg 659 58 bang;
#X obj 659 89 uart;
#X floatatom 702 29 5 0 0 0 - - -;
#X msg 747 59 init;
#X msg 702 59 read;
#X obj 659 117 print a;
#X obj 847 97 tgl 15 0 empty empty empty 17 7 0 10 -262144 -1 -1 1
1;
#X obj 659 28 t b b;
#X msg 880 97 10;
#X msg 914 97 5;
#X obj 747 28 loadbang;
#X obj 681 142 route 240;
#X obj 659 142 bng 15 250 50 0 empty empty empty 17 7 0 10 -262144
-1 -1;
#X msg 949 97 6;
#X obj 847 40 del 1000;
#X msg 847 66 1;
#X obj 847 120 metro 10;
#X msg 738 115 send3 191 1 \$1;
#X msg 741 87 0;
#X obj 681 175 unpack f f f f f f f f f f f f f f f f f;
#N canvas 0 50 450 300 enc 0;
#X obj 36 13 inlet;
#X obj 253 268 outlet;
#X obj 334 31 vsl 15 256 0 255 0 0 empty empty empty 0 -9 0 10 -258113
-1 -1 0 1;
#X obj 160 68 loadbang;
#X msg 216 68 0, f 1;
#X obj 88 186 +;
#X msg 88 155 1;
#X msg 145 201 1;
#X obj 176 271 -;
#X obj 148 235 t b f;
#X obj 134 271 i;
#X obj 366 6 inlet;
#X obj 90 95 sel 1 2 3 4 5 6 65 66 67 68 69 70;
#X msg 116 155 3;
#X msg 173 201 3;
#X msg 145 156 5;
#X msg 202 201 5;
#X msg 232 155 15;
#X msg 289 201 15;
#X msg 261 201 12;
#X msg 203 155 12;
#X obj 247 29 clip 0 255;
#X msg 175 155 8;
#X msg 232 201 8;
#X connect 0 0 12 0;
#X connect 2 0 10 1;
#X connect 2 0 5 1;
#X connect 2 0 1 0;
#X connect 3 0 4 0;
#X connect 5 0 21 0;
#X connect 6 0 5 0;
#X connect 7 0 9 0;
#X connect 8 0 21 0;
#X connect 9 0 10 0;
#X connect 9 0 8 0;
#X connect 9 1 8 1;
#X connect 10 0 8 0;
#X connect 11 0 2 0;
#X connect 12 0 6 0;
#X connect 12 1 13 0;
#X connect 12 2 15 0;
#X connect 12 3 22 0;
#X connect 12 4 20 0;
#X connect 12 5 17 0;
#X connect 12 6 7 0;
#X connect 12 7 14 0;
#X connect 12 8 16 0;
#X connect 12 9 23 0;
#X connect 12 10 19 0;
#X connect 12 11 18 0;
#X connect 13 0 5 0;
#X connect 14 0 9 0;
#X connect 15 0 5 0;
#X connect 16 0 9 0;
#X connect 19 0 9 0;
#X connect 20 0 5 0;
#X connect 21 0 2 0;
#X connect 22 0 5 0;
#X connect 23 0 9 0;
#X restore 28 235 pd enc;
#X obj 613 137 change;
#X obj 35 129 change;
#X obj 51 149 change;
#X obj 82 129 change;
#X obj 97 149 change;
#N canvas 0 50 450 300 enc 0;
#X obj 36 13 inlet;
#X obj 253 268 outlet;
#X obj 334 31 vsl 15 256 0 255 0 0 empty empty empty 0 -9 0 10 -258113
-1 -1 0 1;
#X obj 160 68 loadbang;
#X msg 216 68 0, f 1;
#X obj 88 186 +;
#X msg 88 155 1;
#X msg 145 201 1;
#X obj 176 271 -;
#X obj 148 235 t b f;
#X obj 134 271 i;
#X obj 366 6 inlet;
#X obj 90 95 sel 1 2 3 4 5 6 65 66 67 68 69 70;
#X msg 116 155 3;
#X msg 173 201 3;
#X msg 145 156 5;
#X msg 202 201 5;
#X msg 232 155 15;
#X msg 289 201 15;
#X msg 261 201 12;
#X msg 203 155 12;
#X obj 247 29 clip 0 255;
#X msg 175 155 8;
#X msg 232 201 8;
#X connect 0 0 12 0;
#X connect 2 0 10 1;
#X connect 2 0 5 1;
#X connect 2 0 1 0;
#X connect 3 0 4 0;
#X connect 5 0 21 0;
#X connect 6 0 5 0;
#X connect 7 0 9 0;
#X connect 8 0 21 0;
#X connect 9 0 10 0;
#X connect 9 0 8 0;
#X connect 9 1 8 1;
#X connect 10 0 8 0;
#X connect 11 0 2 0;
#X connect 12 0 6 0;
#X connect 12 1 13 0;
#X connect 12 2 15 0;
#X connect 12 3 22 0;
#X connect 12 4 20 0;
#X connect 12 5 17 0;
#X connect 12 6 7 0;
#X connect 12 7 14 0;
#X connect 12 8 16 0;
#X connect 12 9 23 0;
#X connect 12 10 19 0;
#X connect 12 11 18 0;
#X connect 13 0 5 0;
#X connect 14 0 9 0;
#X connect 15 0 5 0;
#X connect 16 0 9 0;
#X connect 19 0 9 0;
#X connect 20 0 5 0;
#X connect 21 0 2 0;
#X connect 22 0 5 0;
#X connect 23 0 9 0;
#X restore 44 215 pd enc;
#N canvas 0 50 450 300 enc 0;
#X obj 36 13 inlet;
#X obj 253 268 outlet;
#X obj 334 31 vsl 15 256 0 255 0 0 empty empty empty 0 -9 0 10 -258113
-1 -1 0 1;
#X obj 160 68 loadbang;
#X msg 216 68 0, f 1;
#X obj 88 186 +;
#X msg 88 155 1;
#X msg 145 201 1;
#X obj 176 271 -;
#X obj 148 235 t b f;
#X obj 134 271 i;
#X obj 366 6 inlet;
#X obj 90 95 sel 1 2 3 4 5 6 65 66 67 68 69 70;
#X msg 116 155 3;
#X msg 173 201 3;
#X msg 145 156 5;
#X msg 202 201 5;
#X msg 232 155 15;
#X msg 289 201 15;
#X msg 261 201 12;
#X msg 203 155 12;
#X obj 247 29 clip 0 255;
#X msg 175 155 8;
#X msg 232 201 8;
#X connect 0 0 12 0;
#X connect 2 0 10 1;
#X connect 2 0 5 1;
#X connect 2 0 1 0;
#X connect 3 0 4 0;
#X connect 5 0 21 0;
#X connect 6 0 5 0;
#X connect 7 0 9 0;
#X connect 8 0 21 0;
#X connect 9 0 10 0;
#X connect 9 0 8 0;
#X connect 9 1 8 1;
#X connect 10 0 8 0;
#X connect 11 0 2 0;
#X connect 12 0 6 0;
#X connect 12 1 13 0;
#X connect 12 2 15 0;
#X connect 12 3 22 0;
#X connect 12 4 20 0;
#X connect 12 5 17 0;
#X connect 12 6 7 0;
#X connect 12 7 14 0;
#X connect 12 8 16 0;
#X connect 12 9 23 0;
#X connect 12 10 19 0;
#X connect 12 11 18 0;
#X connect 13 0 5 0;
#X connect 14 0 9 0;
#X connect 15 0 5 0;
#X connect 16 0 9 0;
#X connect 19 0 9 0;
#X connect 20 0 5 0;
#X connect 21 0 2 0;
#X connect 22 0 5 0;
#X connect 23 0 9 0;
#X restore 65 195 pd enc;
#N canvas 0 50 450 300 enc 0;
#X obj 36 13 inlet;
#X obj 253 268 outlet;
#X obj 334 31 vsl 15 256 0 255 0 0 empty empty empty 0 -9 0 10 -258113
-1 -1 0 1;
#X obj 160 68 loadbang;
#X msg 216 68 0, f 1;
#X obj 88 186 +;
#X msg 88 155 1;
#X msg 145 201 1;
#X obj 176 271 -;
#X obj 148 235 t b f;
#X obj 134 271 i;
#X obj 366 6 inlet;
#X obj 90 95 sel 1 2 3 4 5 6 65 66 67 68 69 70;
#X msg 116 155 3;
#X msg 173 201 3;
#X msg 145 156 5;
#X msg 202 201 5;
#X msg 232 155 15;
#X msg 289 201 15;
#X msg 261 201 12;
#X msg 203 155 12;
#X obj 247 29 clip 0 255;
#X msg 175 155 8;
#X msg 232 201 8;
#X connect 0 0 12 0;
#X connect 2 0 10 1;
#X connect 2 0 5 1;
#X connect 2 0 1 0;
#X connect 3 0 4 0;
#X connect 5 0 21 0;
#X connect 6 0 5 0;
#X connect 7 0 9 0;
#X connect 8 0 21 0;
#X connect 9 0 10 0;
#X connect 9 0 8 0;
#X connect 9 1 8 1;
#X connect 10 0 8 0;
#X connect 11 0 2 0;
#X connect 12 0 6 0;
#X connect 12 1 13 0;
#X connect 12 2 15 0;
#X connect 12 3 22 0;
#X connect 12 4 20 0;
#X connect 12 5 17 0;
#X connect 12 6 7 0;
#X connect 12 7 14 0;
#X connect 12 8 16 0;
#X connect 12 9 23 0;
#X connect 12 10 19 0;
#X connect 12 11 18 0;
#X connect 13 0 5 0;
#X connect 14 0 9 0;
#X connect 15 0 5 0;
#X connect 16 0 9 0;
#X connect 19 0 9 0;
#X connect 20 0 5 0;
#X connect 21 0 2 0;
#X connect 22 0 5 0;
#X connect 23 0 9 0;
#X restore 85 176 pd enc;
#X obj 1343 61 list;
#X obj 1343 89 oscformat labels_btn;
#X obj 1288 833 list trim;
#X obj 1288 809 list prepend SW;
#X obj 731 226 pack 0 0 0 0;
#X obj 1157 888 list prepend;
#X obj 1199 834 t b f;
#X obj 842 777 bng 8 250 50 0 empty empty empty 17 7 0 10 -262144 -1
-1;
#X obj 1485 785 bng 8 250 50 0 empty empty empty 17 7 0 10 -262144
-1 -1;
#X obj 842 917 bng 8 250 50 0 empty empty empty 17 7 0 10 -262144 -1
-1;
#X obj 1485 925 bng 8 250 50 0 empty empty empty 17 7 0 10 -262144
-1 -1;
#X text 854 795 envoi des switchs;
#X msg 49 873 0;
#X msg 290 867 0;
#X obj 803 1342 pack 0 0 0 0 0;
#X obj 830 1315 / 2;
#X obj 858 1317 / 2;
#X obj 885 1317 / 2;
#X obj 912 1317 / 2;
#X obj 830 1266 text get pot_values;
#X obj 830 1289 unpack 0 0 0 0;
#X obj 803 1238 t 0 0;
#X obj 879 1239 i;
#X msg 864 1191 3;
#X obj 936 1228 - 1;
#X obj 995 1214 tgl 15 0 empty empty empty 17 7 0 10 -262144 -1 -1
0 1;
#X obj 1034 1233 sel 0;
#X obj 912 1191 metro 100;
#X obj 1030 228 oscformat display_page;
#X obj 1030 197 list;
#X obj 1173 228 list length;
#X obj 199 596 oscformat pots;
#X obj 65 1298 bng 15 250 50 0 empty empty empty 17 7 0 10 -262144
-1 -1;
#X obj 366 239 i;
#X obj 394 239 - 1;
#X obj 366 195 tgl 15 0 empty empty empty 17 7 0 10 -262144 -1 -1 0
1;
#X obj 366 216 metro 100;
#X obj 1173 252 value nbr_page;
#X obj 272 239 value nbr_page;
#X obj 36 834 bng 15 250 50 0 empty empty empty 17 7 0 10 -262144 -1
-1;
#X msg 241 214 -1;
#X obj 272 214 t b b b;
#X obj 257 265 text delete pot_values;
#X obj 306 298 t b b b;
#X obj 390 194 sel 1;
#X obj 353 1340 print;
#X obj 129 562 bng 15 250 50 0 empty empty empty 17 7 0 10 -262144
-1 -1;
#X obj 1024 85 list;
#X obj 1024 116 oscformat display_title;
#X obj 172 568 oscformat values;
#X text 460 616 gestion des envois OSC out + midi setup;
#X obj 1019 832 list;
#X obj 1019 860 oscformat type_btn;
#X obj 178 528 pack f f f f f f f f;
#X floatatom 1136 254 5 0 0 0 - - -;
#X obj 202 485 del 10;
#X obj 35 -37 change;
#X msg 35 -11 BTN 5 \$1;
#X obj 97 -37 change;
#X obj 160 -37 change;
#X msg 97 -12 BTN 6 \$1;
#X msg 160 -11 BTN 7 \$1;
#X obj 222 -37 change;
#X msg 222 -11 BTN 8 \$1;
#X obj 701 204 change;
#X obj 743 204 change;
#X obj 786 203 change;
#X obj 828 203 change;
#X obj 706 230 bng 15 250 50 0 empty empty empty 17 7 0 10 -262144
-1 -1;
#X obj 93 1336 s RPI_preset_upd;
#X obj 401 1317 s RPI_preset_upd;
#X obj 753 1191 r RPI_preset_upd;
#X obj 1148 1239 r RPI_page;
#X obj 803 1395 s RPI_controls_pot;
#X obj 1199 809 r RPI_page;
#X obj 300 842 s RPI_page;
#X obj 77 1102 s RPI_textfields;
#X obj 77 1124 s RPI_textfields_btn;
#X obj 616 895 send RPI_LCD_messages;
#X obj 1154 1047 send RPI_LCD_messages;
#X obj 942 1052 send RPI_LCD_messages;
#X obj 942 951 r RPI_param;
#X obj 34 991 s RPI_textfields_btn;
#X obj 47 960 s RPI_textfields;
#X obj 258 808 s RPI_param;
#X obj 34 853 s RPI_patch_updt;
#X obj 36 894 s RPI_draw_page;
#X obj 189 620 send RPI_LCD_messages;
#X obj 348 549 s RPI_controls;
#X obj 142 423 s RPI_controls_pot;
#X obj 250 161 r RPI_preset_upd;
#X obj 251 186 r RPI_patch_updt;
#X obj 300 52 r RPI_page;
#X obj 731 251 s RPI_btn_control;
#X obj 490 651 r RPI_LCD_messages;
#X obj 1136 201 send RPI_LCD_messages;
#X obj 1060 85 send RPI_LCD_messages;
#X obj 1201 115 send RPI_LCD_messages;
#X obj 1343 114 send RPI_LCD_messages;
#X obj 1030 161 r RPI_display_page;
#X obj 1024 49 r RPI_display_title;
#X obj 906 263 r RPI_UP_DOWN;
#X obj 710 331 send RPI_UP_DOWN;
#X obj 805 525 s RPI_controls;
#X obj 577 344 send RPI_LCD_messages;
#X obj 616 317 send RPI_ENTER;
#X obj 591 263 send RPI_ESC;
#X obj 1201 34 r RPI_textfields;
#X obj 1343 33 r RPI_textfields_btn;
#X obj 1019 803 r RPI_type_btn;
#X obj 1019 885 send RPI_LCD_messages;
#X obj 1157 858 r RPI_btn_control;
#X obj 1288 854 s RPI_controls;
#X obj 1073 962 r RPI_cv_gate;
#X obj 570 562 s RPI_cv_gate;
#X obj 373 156 r RPI_page;
#X obj 482 794 r RPI_param;
#X obj 726 829 r RPI_ESC;
#X obj 1221 1245 r RPI_ESC;
#X obj 560 1210 s RPI_led;
#X obj 786 56 r RPI_led;
#X obj 1072 328 r RPI_page;
#X obj 1148 1393 s RPI_led;
#X floatatom 214 452 5 0 0 0 - - -;
#X floatatom 268 455 5 0 0 0 - - -;
#X obj 343 438 i;
#X obj 383 386 r RPI_page;
#X msg 306 334 0 0 0 0 0 0 0 0;
#X obj 35 -74 r btn1;
#X obj 97 -74 r btn2;
#X obj 160 -74 r btn3;
#X obj 222 -74 r btn4;
#X floatatom 129 488 5 0 0 0 - - -;
#X floatatom 414 98 5 0 0 0 - - -;
#X obj 32 543 r btn1;
#X obj 94 543 r btn2;
#X obj 37 578 r btn3;
#X obj 99 578 r btn4;
#X obj 169 349 unpack 0 0 0 0 0 0 0 0;
#X obj 561 -18 i;
#X obj 589 -18 - 1;
#X obj 561 -62 tgl 15 0 empty empty empty 17 7 0 10 -262144 -1 -1 0
1;
#X obj 561 -41 metro 100;
#X obj 467 -18 value nbr_page;
#X obj 467 -43 t b b b;
#X obj 585 -63 sel 1;
#X obj 467 -93 r RPI_preset_upd;
#X obj 621 -18 - 1;
#X obj 650 -18 pack 0 0 0 0 0;
#X obj 709 -45 / 2;
#X obj 737 -43 / 2;
#X obj 764 -43 / 2;
#X obj 791 -43 / 2;
#X obj 709 -94 text get pot_values;
#X obj 650 -73 t 0 0;
#X obj 709 -71 unpack 0 0 0 0 0 0 0 0;
#X obj 468 -69 del 1000;
#X obj 840 -95 list prepend POT;
#X obj 860 -71 list trim;
#X obj 860 -44 s RPI_controls;
#X obj 452 -106 bng 8 250 50 0 empty empty empty 17 7 0 10 -262144
-1 -1;
#X obj 979 -98 bng 8 250 50 0 empty empty empty 17 7 0 10 -262144 -1
-1;
#X obj 452 -2 bng 8 250 50 0 empty empty empty 17 7 0 10 -262144 -1
-1;
#X obj 979 6 bng 8 250 50 0 empty empty empty 17 7 0 10 -262144 -1
-1;
#X text 762 -15 update des valeurs chargement preset;
#X obj 452 933 bng 8 250 50 0 empty empty empty 17 7 0 10 -262144 -1
-1;
#X obj 892 941 bng 8 250 50 0 empty empty empty 17 7 0 10 -262144 -1
-1;
#X obj 452 1146 bng 8 250 50 0 empty empty empty 17 7 0 10 -262144
-1 -1;
#X obj 892 1154 bng 8 250 50 0 empty empty empty 17 7 0 10 -262144
-1 -1;
#X obj 588 973 text set lastopen;
#X obj 472 1034 text define lastopen;
#X msg 546 974 1;
#X msg 472 1001 write /home/pi/myfiles/lastopen.txt;
#X obj 472 971 t b s b;
#X obj 711 989 loadbang;
#X msg 472 1057 read /home/pi/myfiles/lastopen.txt;
#X obj 711 1086 text get lastopen 0;
#X obj 772 1044 text get lastopen 0;
#X obj 711 1018 t b b b;
#X msg 774 1000 0;
#X msg 697 1049 1;
#X obj 472 947 t b s b;
#X msg 599 946 0;
#X msg 577 115 0;
#X obj 810 1121 symbol;
#X obj 749 1058 bng 15 250 50 0 empty empty empty 17 7 0 10 -262144
-1 -1;
#X obj 631 1132 symbol;
#X obj 512 1125 bng 15 250 50 0 empty empty empty 17 7 0 10 -262144
-1 -1;
#X obj 577 86 del 200;
#X obj 755 1121 del 1000;
#X obj 579 1130 del 1000;
#X obj 1293 350 r RPI_cursor;
#X obj 1293 380 oscformat cursor;
#X obj 1293 404 send RPI_LCD_messages;
#X obj 325 620 s RPI_btnupd;
#X obj 325 588 pack f f f f f;
#X obj 1288 148 r RPI_list_multi_tgl;
#X obj 1288 175 list;
#X obj 1288 228 send RPI_LCD_messages;
#X obj 1288 203 oscformat list_multi_tgl;
#X connect 0 0 3 0;
#X connect 0 0 339 0;
#X connect 0 0 343 0;
#X connect 1 0 4 0;
#X connect 2 0 1 0;
#X connect 3 0 2 0;
#X connect 3 1 26 0;
#X connect 3 2 28 0;
#X connect 3 3 29 0;
#X connect 4 0 5 0;
#X connect 4 1 6 0;
#X connect 4 1 21 0;
#X connect 4 2 5 2;
#X connect 4 2 21 1;
#X connect 5 0 110 0;
#X connect 6 0 7 0;
#X connect 7 0 5 1;
#X connect 8 0 126 0;
#X connect 8 0 379 0;
#X connect 9 0 8 1;
#X connect 10 0 8 2;
#X connect 11 0 8 3;
#X connect 12 0 8 4;
#X connect 13 0 428 0;
#X connect 15 0 16 0;
#X connect 15 0 413 0;
#X connect 15 1 20 0;
#X connect 15 1 414 0;
#X connect 16 0 14 0;
#X connect 16 1 415 0;
#X connect 17 0 14 1;
#X connect 18 0 333 0;
#X connect 19 0 14 2;
#X connect 20 0 14 2;
#X connect 21 0 22 0;
#X connect 22 0 15 0;
#X connect 23 0 3 1;
#X connect 23 0 339 0;
#X connect 23 0 343 1;
#X connect 24 0 3 2;
#X connect 24 0 339 0;
#X connect 24 0 343 2;
#X connect 25 0 3 3;
#X connect 25 0 339 0;
#X connect 25 0 343 3;
#X connect 26 0 27 0;
#X connect 27 0 4 0;
#X connect 28 0 30 0;
#X connect 29 0 31 0;
#X connect 30 0 4 0;
#X connect 31 0 4 0;
#X connect 33 0 99 0;
#X connect 34 0 392 0;
#X connect 35 0 392 0;
#X connect 36 0 38 0;
#X connect 37 0 201 0;
#X connect 37 0 210 0;
#X connect 37 0 395 0;
#X connect 38 0 33 0;
#X connect 38 0 396 0;
#X connect 39 0 35 0;
#X connect 39 1 34 0;
#X connect 44 0 283 0;
#X connect 45 0 284 0;
#X connect 46 0 285 0;
#X connect 47 0 286 0;
#X connect 49 0 53 0;
#X connect 50 0 51 0;
#X connect 51 0 48 0;
#X connect 52 0 48 0;
#X connect 53 0 48 0;
#X connect 54 0 57 0;
#X connect 55 0 54 0;
#X connect 55 0 56 0;
#X connect 56 0 57 0;
#X connect 58 0 60 0;
#X connect 58 0 59 0;
#X connect 59 0 61 0;
#X connect 60 0 61 0;
#X connect 62 0 64 0;
#X connect 62 0 63 0;
#X connect 63 0 65 0;
#X connect 64 0 65 0;
#X connect 66 0 67 0;
#X connect 66 0 68 0;
#X connect 67 0 69 0;
#X connect 68 0 69 0;
#X connect 70 0 72 0;
#X connect 70 0 71 0;
#X connect 71 0 73 0;
#X connect 72 0 73 0;
#X connect 75 0 76 0;
#X connect 75 0 77 0;
#X connect 76 0 78 0;
#X connect 77 0 78 0;
#X connect 79 0 81 0;
#X connect 80 0 103 0;
#X connect 81 0 80 0;
#X connect 83 0 253 0;
#X connect 84 0 83 0;
#X connect 85 0 84 0;
#X connect 86 0 93 0;
#X connect 89 0 92 0;
#X connect 90 0 88 0;
#X connect 92 0 91 0;
#X connect 92 1 90 0;
#X connect 92 1 192 0;
#X connect 92 2 137 0;
#X connect 92 2 302 0;
#X connect 92 2 87 0;
#X connect 94 0 95 0;
#X connect 94 0 96 0;
#X connect 95 0 97 0;
#X connect 96 0 97 0;
#X connect 98 0 394 0;
#X connect 99 0 98 0;
#X connect 100 0 101 0;
#X connect 100 1 102 0;
#X connect 101 0 99 0;
#X connect 102 0 99 0;
#X connect 104 0 105 0;
#X connect 104 0 106 0;
#X connect 105 0 107 0;
#X connect 106 0 107 0;
#X connect 108 0 8 0;
#X connect 108 0 422 0;
#X connect 108 0 485 0;
#X connect 108 1 13 0;
#X connect 109 0 108 0;
#X connect 110 0 109 0;
#X connect 114 0 113 0;
#X connect 114 0 242 0;
#X connect 115 0 113 1;
#X connect 115 0 245 0;
#X connect 116 0 117 0;
#X connect 116 1 118 0;
#X connect 120 0 121 0;
#X connect 120 0 122 0;
#X connect 121 0 123 0;
#X connect 122 0 123 0;
#X connect 125 0 142 0;
#X connect 125 0 145 0;
#X connect 126 0 127 0;
#X connect 127 0 378 0;
#X connect 128 0 79 0;
#X connect 129 0 130 0;
#X connect 129 0 131 0;
#X connect 130 0 132 0;
#X connect 131 0 132 0;
#X connect 133 0 394 0;
#X connect 135 0 387 0;
#X connect 136 0 135 0;
#X connect 137 0 372 0;
#X connect 137 0 373 0;
#X connect 138 0 368 0;
#X connect 139 0 125 0;
#X connect 140 0 125 0;
#X connect 141 0 145 0;
#X connect 142 0 143 0;
#X connect 143 0 141 0;
#X connect 143 1 141 1;
#X connect 144 0 138 0;
#X connect 145 0 144 0;
#X connect 146 0 147 0;
#X connect 146 0 148 0;
#X connect 147 0 149 0;
#X connect 148 0 149 0;
#X connect 150 0 152 0;
#X connect 151 0 370 0;
#X connect 152 0 151 0;
#X connect 153 0 162 0;
#X connect 153 0 175 0;
#X connect 154 0 162 0;
#X connect 154 0 174 1;
#X connect 155 0 163 0;
#X connect 155 0 177 0;
#X connect 156 0 163 0;
#X connect 156 0 176 1;
#X connect 159 0 164 0;
#X connect 159 0 183 1;
#X connect 159 0 248 0;
#X connect 160 0 165 0;
#X connect 160 0 184 1;
#X connect 162 0 181 0;
#X connect 163 0 182 0;
#X connect 164 0 179 0;
#X connect 165 0 180 0;
#X connect 167 0 170 0;
#X connect 168 0 369 0;
#X connect 169 0 168 0;
#X connect 170 0 169 1;
#X connect 171 0 170 0;
#X connect 172 0 171 0;
#X connect 174 0 185 1;
#X connect 175 0 174 0;
#X connect 176 0 186 1;
#X connect 177 0 176 0;
#X connect 178 0 404 0;
#X connect 179 0 183 0;
#X connect 180 0 184 0;
#X connect 181 0 185 0;
#X connect 182 0 186 0;
#X connect 183 0 178 0;
#X connect 184 0 178 0;
#X connect 185 0 178 0;
#X connect 186 0 178 0;
#X connect 187 0 188 0;
#X connect 187 0 189 0;
#X connect 188 0 190 0;
#X connect 189 0 190 0;
#X connect 192 0 196 0;
#X connect 192 0 221 0;
#X connect 192 0 322 0;
#X connect 192 0 471 0;
#X connect 194 0 193 0;
#X connect 194 0 198 0;
#X connect 195 0 194 0;
#X connect 196 0 195 0;
#X connect 197 0 191 0;
#X connect 198 0 197 0;
#X connect 198 0 335 0;
#X connect 199 0 200 0;
#X connect 199 0 463 0;
#X connect 200 0 359 0;
#X connect 200 1 194 0;
#X connect 201 0 32 0;
#X connect 202 0 209 1;
#X connect 203 0 209 0;
#X connect 204 0 205 0;
#X connect 205 0 206 0;
#X connect 206 0 211 0;
#X connect 207 0 202 0;
#X connect 208 0 212 0;
#X connect 208 1 213 0;
#X connect 209 0 204 0;
#X connect 210 0 203 0;
#X connect 210 1 202 0;
#X connect 210 1 215 0;
#X connect 211 0 208 0;
#X connect 212 0 214 0;
#X connect 212 0 235 0;
#X connect 212 0 238 0;
#X connect 213 0 216 0;
#X connect 214 0 99 0;
#X connect 215 0 205 1;
#X connect 216 0 99 0;
#X connect 217 0 227 0;
#X connect 217 0 228 0;
#X connect 218 0 223 0;
#X connect 219 0 218 0;
#X connect 220 0 219 0;
#X connect 221 0 220 0;
#X connect 222 0 191 0;
#X connect 223 0 222 0;
#X connect 227 0 360 0;
#X connect 227 1 219 0;
#X connect 228 0 409 0;
#X connect 229 0 234 0;
#X connect 230 0 229 0;
#X connect 230 0 232 0;
#X connect 231 0 229 0;
#X connect 232 0 412 0;
#X connect 233 0 231 0;
#X connect 233 1 230 0;
#X connect 234 0 232 0;
#X connect 235 0 237 0;
#X connect 236 0 237 0;
#X connect 238 0 236 0;
#X connect 242 0 240 0;
#X connect 242 1 240 1;
#X connect 243 0 244 0;
#X connect 244 0 242 1;
#X connect 244 0 245 1;
#X connect 245 0 241 0;
#X connect 245 1 241 1;
#X connect 246 0 247 0;
#X connect 247 0 393 0;
#X connect 248 0 251 0;
#X connect 249 0 252 0;
#X connect 250 0 246 0;
#X connect 251 0 250 0;
#X connect 251 1 250 1;
#X connect 252 0 250 0;
#X connect 252 1 250 2;
#X connect 253 1 89 0;
#X connect 253 1 111 0;
#X connect 253 1 112 0;
#X connect 253 1 303 0;
#X connect 253 1 329 0;
#X connect 253 2 365 0;
#X connect 253 3 374 0;
#X connect 253 4 199 0;
#X connect 253 5 217 0;
#X connect 253 6 256 0;
#X connect 256 0 258 0;
#X connect 258 0 257 0;
#X connect 258 1 260 0;
#X connect 258 2 254 0;
#X connect 258 2 259 0;
#X connect 259 0 366 0;
#X connect 259 0 367 0;
#X connect 260 0 255 0;
#X connect 261 0 262 0;
#X connect 262 0 266 0;
#X connect 262 1 272 0;
#X connect 263 0 262 0;
#X connect 264 0 262 0;
#X connect 265 0 262 0;
#X connect 267 0 277 0;
#X connect 268 0 261 0;
#X connect 268 1 265 0;
#X connect 269 0 277 1;
#X connect 270 0 277 1;
#X connect 271 0 264 0;
#X connect 271 0 275 0;
#X connect 271 0 279 0;
#X connect 271 0 478 0;
#X connect 272 0 273 0;
#X connect 272 0 280 0;
#X connect 274 0 277 1;
#X connect 275 0 276 0;
#X connect 276 0 267 0;
#X connect 277 0 268 0;
#X connect 278 0 262 0;
#X connect 279 0 278 0;
#X connect 280 0 36 0;
#X connect 280 1 37 0;
#X connect 280 2 354 0;
#X connect 280 3 355 0;
#X connect 280 4 356 0;
#X connect 280 5 357 0;
#X connect 280 6 248 0;
#X connect 280 7 249 0;
#X connect 280 8 39 0;
#X connect 280 9 43 0;
#X connect 280 10 42 0;
#X connect 280 11 41 0;
#X connect 280 12 40 0;
#X connect 280 13 153 0;
#X connect 280 14 154 0;
#X connect 280 15 155 0;
#X connect 280 16 156 0;
#X connect 281 0 0 0;
#X connect 283 0 281 0;
#X connect 284 0 287 0;
#X connect 285 0 288 0;
#X connect 286 0 289 0;
#X connect 287 0 23 0;
#X connect 288 0 24 0;
#X connect 289 0 25 0;
#X connect 290 0 291 0;
#X connect 291 0 388 0;
#X connect 292 0 402 0;
#X connect 293 0 292 0;
#X connect 294 0 383 0;
#X connect 295 0 293 0;
#X connect 296 0 295 0;
#X connect 296 1 295 1;
#X connect 297 0 298 0;
#X connect 297 0 299 0;
#X connect 298 0 300 0;
#X connect 299 0 300 0;
#X connect 302 0 376 0;
#X connect 304 0 363 0;
#X connect 305 0 304 1;
#X connect 306 0 304 2;
#X connect 307 0 304 3;
#X connect 308 0 304 4;
#X connect 309 0 310 0;
#X connect 310 0 305 0;
#X connect 310 1 306 0;
#X connect 310 2 307 0;
#X connect 310 3 308 0;
#X connect 311 0 304 0;
#X connect 311 1 309 0;
#X connect 312 0 311 0;
#X connect 312 0 314 0;
#X connect 312 0 316 0;
#X connect 313 0 312 0;
#X connect 314 0 312 1;
#X connect 315 0 317 0;
#X connect 316 0 315 0;
#X connect 317 0 312 0;
#X connect 318 0 385 0;
#X connect 319 0 318 0;
#X connect 319 0 320 0;
#X connect 320 0 327 0;
#X connect 320 0 344 0;
#X connect 321 0 377 0;
#X connect 322 0 359 0;
#X connect 323 0 324 0;
#X connect 323 0 18 0;
#X connect 323 0 334 0;
#X connect 324 0 323 1;
#X connect 325 0 326 0;
#X connect 326 0 323 0;
#X connect 328 0 323 0;
#X connect 329 0 375 0;
#X connect 330 0 332 0;
#X connect 331 0 325 0;
#X connect 331 1 328 0;
#X connect 331 2 330 0;
#X connect 333 0 417 0;
#X connect 333 1 17 0;
#X connect 333 2 19 0;
#X connect 334 0 325 0;
#X connect 336 0 343 0;
#X connect 336 0 345 0;
#X connect 337 0 338 0;
#X connect 338 0 386 0;
#X connect 339 0 377 0;
#X connect 341 0 342 0;
#X connect 342 0 400 0;
#X connect 343 0 321 0;
#X connect 345 0 343 0;
#X connect 346 0 347 0;
#X connect 347 0 4 0;
#X connect 348 0 350 0;
#X connect 349 0 351 0;
#X connect 350 0 4 0;
#X connect 351 0 4 0;
#X connect 352 0 353 0;
#X connect 353 0 4 0;
#X connect 354 0 294 0;
#X connect 355 0 294 1;
#X connect 355 0 358 0;
#X connect 356 0 294 2;
#X connect 356 0 358 0;
#X connect 357 0 294 3;
#X connect 357 0 358 0;
#X connect 358 0 294 0;
#X connect 361 0 313 0;
#X connect 361 0 315 0;
#X connect 362 0 233 0;
#X connect 364 0 296 0;
#X connect 371 0 150 0;
#X connect 371 0 167 0;
#X connect 380 0 5 0;
#X connect 381 0 331 0;
#X connect 381 0 5 0;
#X connect 382 0 3 4;
#X connect 384 0 50 0;
#X connect 389 0 319 0;
#X connect 390 0 337 0;
#X connect 391 0 100 0;
#X connect 397 0 136 0;
#X connect 398 0 290 0;
#X connect 399 0 341 0;
#X connect 401 0 295 0;
#X connect 403 0 169 0;
#X connect 405 0 423 0;
#X connect 405 0 109 0;
#X connect 406 0 139 0;
#X connect 407 0 140 0;
#X connect 408 0 230 0;
#X connect 410 0 278 0;
#X connect 415 0 14 1;
#X connect 416 0 415 1;
#X connect 417 0 14 0;
#X connect 418 0 346 0;
#X connect 419 0 348 0;
#X connect 420 0 349 0;
#X connect 421 0 352 0;
#X connect 424 0 336 0;
#X connect 424 0 343 4;
#X connect 425 0 336 0;
#X connect 425 0 343 5;
#X connect 426 0 336 0;
#X connect 426 0 343 6;
#X connect 427 0 336 0;
#X connect 427 0 343 7;
#X connect 428 0 9 0;
#X connect 428 0 281 1;
#X connect 428 1 10 0;
#X connect 428 1 287 1;
#X connect 428 2 11 0;
#X connect 428 2 288 1;
#X connect 428 3 12 0;
#X connect 428 3 289 1;
#X connect 428 4 485 1;
#X connect 428 5 485 2;
#X connect 428 6 485 3;
#X connect 428 7 485 4;
#X connect 429 0 430 0;
#X connect 429 0 435 0;
#X connect 429 0 437 0;
#X connect 430 0 429 1;
#X connect 431 0 432 0;
#X connect 432 0 429 0;
#X connect 433 0 429 0;
#X connect 434 0 431 0;
#X connect 434 1 433 0;
#X connect 435 0 431 0;
#X connect 436 0 446 0;
#X connect 437 0 444 0;
#X connect 438 0 447 0;
#X connect 439 0 438 1;
#X connect 440 0 438 2;
#X connect 441 0 438 3;
#X connect 442 0 438 4;
#X connect 443 0 445 0;
#X connect 444 0 438 0;
#X connect 444 1 443 0;
#X connect 445 0 439 0;
#X connect 445 1 440 0;
#X connect 445 2 441 0;
#X connect 445 3 442 0;
#X connect 446 0 434 0;
#X connect 447 0 448 0;
#X connect 448 0 449 0;
#X connect 450 0 451 0;
#X connect 450 0 452 0;
#X connect 451 0 453 0;
#X connect 452 0 453 0;
#X connect 455 0 456 0;
#X connect 455 0 457 0;
#X connect 456 0 458 0;
#X connect 457 0 458 0;
#X connect 461 0 459 1;
#X connect 462 0 460 0;
#X connect 463 0 462 0;
#X connect 463 1 459 0;
#X connect 463 2 461 0;
#X connect 464 0 468 0;
#X connect 465 0 460 0;
#X connect 466 0 477 0;
#X connect 466 0 476 1;
#X connect 467 0 474 1;
#X connect 467 0 475 0;
#X connect 468 0 470 0;
#X connect 468 1 469 0;
#X connect 468 2 465 0;
#X connect 469 0 467 0;
#X connect 470 0 466 0;
#X connect 471 0 462 0;
#X connect 471 1 459 0;
#X connect 471 2 472 0;
#X connect 472 0 459 1;
#X connect 474 0 89 0;
#X connect 475 0 479 0;
#X connect 476 0 199 0;
#X connect 477 0 480 0;
#X connect 478 0 473 0;
#X connect 479 0 474 0;
#X connect 480 0 476 0;
#X connect 481 0 482 0;
#X connect 482 0 483 0;
#X connect 485 0 484 0;
#X connect 486 0 487 0;
#X connect 487 0 489 0;
#X connect 489 0 488 0;
