#N canvas 0 96 1280 704 10;
#X obj 42 263 vsl 15 256 0 255 0 0 empty empty empty 0 -9 0 10 -258113
-1 -1 8400 1;
#X msg 150 126 POT 1 \$1;
#X obj 150 102 change;
#N canvas 717 120 564 390 pot_filter 0;
#X obj 27 15 inlet;
#X obj 70 101 -;
#X obj 70 126 abs;
#X obj 27 41 t 0 0 0;
#X obj 70 159 > 2;
#X obj 434 -9 inlet;
#X msg 432 106 0;
#X obj 69 193 sel 1;
#X msg 76 228 1;
#X obj 41 267 spigot;
#X obj 40 297 outlet;
#X obj 433 40 bng 15 250 50 0 empty empty empty 17 7 0 10 -262144 -1
-1;
#X obj 133 15 inlet;
#X obj 176 101 -;
#X obj 176 126 abs;
#X obj 133 41 t 0 0 0;
#X obj 176 159 > 2;
#X obj 175 193 sel 1;
#X msg 182 228 1;
#X obj 147 267 spigot;
#X obj 146 297 outlet;
#X obj 223 16 inlet;
#X obj 266 102 -;
#X obj 266 127 abs;
#X obj 223 42 t 0 0 0;
#X obj 266 160 > 2;
#X obj 265 194 sel 1;
#X msg 272 229 1;
#X obj 237 268 spigot;
#X obj 236 298 outlet;
#X obj 329 16 inlet;
#X obj 372 102 -;
#X obj 372 127 abs;
#X obj 329 42 t 0 0 0;
#X obj 372 160 > 2;
#X obj 371 194 sel 1;
#X msg 378 229 1;
#X obj 343 268 spigot;
#X obj 342 298 outlet;
#X obj 434 15 change;
#X obj 87 76 int;
#X obj 196 75 int;
#X obj 282 79 int;
#X obj 387 75 int;
#X connect 0 0 3 0;
#X connect 1 0 2 0;
#X connect 2 0 4 0;
#X connect 3 0 40 1;
#X connect 3 1 9 0;
#X connect 3 2 1 0;
#X connect 4 0 7 0;
#X connect 5 0 39 0;
#X connect 6 0 9 1;
#X connect 6 0 37 1;
#X connect 6 0 28 1;
#X connect 6 0 19 1;
#X connect 7 0 8 0;
#X connect 8 0 9 1;
#X connect 9 0 10 0;
#X connect 11 0 6 0;
#X connect 11 0 43 0;
#X connect 11 0 42 0;
#X connect 11 0 41 0;
#X connect 11 0 40 0;
#X connect 12 0 15 0;
#X connect 13 0 14 0;
#X connect 14 0 16 0;
#X connect 15 0 41 1;
#X connect 15 1 19 0;
#X connect 15 2 13 0;
#X connect 16 0 17 0;
#X connect 17 0 18 0;
#X connect 18 0 19 1;
#X connect 19 0 20 0;
#X connect 21 0 24 0;
#X connect 22 0 23 0;
#X connect 23 0 25 0;
#X connect 24 0 42 1;
#X connect 24 1 28 0;
#X connect 24 2 22 0;
#X connect 25 0 26 0;
#X connect 26 0 27 0;
#X connect 27 0 28 1;
#X connect 28 0 29 0;
#X connect 30 0 33 0;
#X connect 31 0 32 0;
#X connect 32 0 34 0;
#X connect 33 0 43 1;
#X connect 33 1 37 0;
#X connect 33 2 31 0;
#X connect 34 0 35 0;
#X connect 35 0 36 0;
#X connect 36 0 37 1;
#X connect 37 0 38 0;
#X connect 39 0 11 0;
#X connect 40 0 1 1;
#X connect 41 0 13 1;
#X connect 42 0 22 1;
#X connect 43 0 31 1;
#X restore 150 77 pd pot_filter;
#X obj 150 154 unpack s 0 0;
#X obj 148 264 pack s 0 0;
#X obj 181 205 t 0 b;
#X obj 184 233 +;
#X obj 142 402 pack 0 0 0 0 0;
#X obj 182 554 send LCD_messages;
#X obj 169 375 / 2;
#X obj 197 377 / 2;
#X obj 224 377 / 2;
#X obj 251 377 / 2;
#X obj 169 326 text get pot_values;
#X obj 169 349 unpack 0 0 0 0;
#X obj 284 402 text set pot_values;
#X obj 305 327 unpack 0 0;
#X obj 305 351 t 0 b;
#X msg 306 274 0 0 0 0;
#X msg 363 274 10;
#X obj 306 237 t b b b b b b b;
#X obj 306 214 bng 15 250 50 0 empty empty empty 17 7 0 10 -262144
-1 -1;
#X msg 397 274 -1;
#X obj 306 191 loadbang;
#X obj 362 351 - 1;
#X obj 246 237 pack 0 0;
#X msg 305 301 \$2 \$1;
#X obj 60 263 vsl 15 256 0 255 0 0 empty empty empty 0 -9 0 10 -258113
-1 -1 5000 1;
#X obj 79 263 vsl 15 256 0 255 0 0 empty empty empty 0 -9 0 10 -258113
-1 -1 0 1;
#X obj 98 263 vsl 15 256 0 255 0 0 empty empty empty 0 -9 0 10 -258113
-1 -1 25400 1;
#X obj 212 104 change;
#X msg 212 128 POT 2 \$1;
#X obj 272 105 change;
#X obj 334 107 change;
#X msg 272 129 POT 3 \$1;
#X msg 334 133 POT 4 \$1;
#X msg 760 247 ENTER;
#X msg 768 227 ESC;
#X obj 710 331 send UP_DOWN;
#X msg 710 306 symbol UP;
#X msg 777 306 symbol DOWN;
#X obj 577 344 send LCD_messages;
#X obj 225 48 r page;
#X msg 657 88 bang;
#X obj 657 119 uart;
#X floatatom 700 59 5 0 0 0 - - -;
#X msg 745 89 init;
#X msg 700 89 read;
#X obj 657 147 print a;
#X obj 766 172 print b;
#X obj 845 127 tgl 15 0 empty empty empty 17 7 0 10 -262144 -1 -1 1
1;
#X obj 657 58 t b b;
#X msg 878 127 10;
#X msg 912 127 5;
#X obj 745 58 loadbang;
#X obj 679 172 route 240;
#X obj 679 197 unpack f f f f f f f f f f f f f;
#X obj 657 172 bng 15 250 50 0 empty empty empty 17 7 0 10 -262144
-1 -1;
#X msg 947 127 6;
#X obj 845 70 del 1000;
#X msg 845 96 1;
#X obj 845 151 metro 10;
#X obj 645 227 change;
#X obj 694 227 change;
#X obj 42 152 change;
#X obj 97 152 change;
#X obj 70 176 change;
#X obj 124 176 change;
#X obj 42 210 * 2;
#X obj 70 210 * 2;
#X obj 97 210 * 2;
#X obj 124 210 * 2;
#X obj 645 250 sel 1;
#X obj 710 280 sel 1 65;
#X obj 868 226 s pot4;
#X obj 852 241 s pot3;
#X obj 836 256 s pot2;
#X obj 820 271 s pot1;
#X obj 42 122 r pot1;
#X obj 58 107 r pot2;
#X obj 74 92 r pot3;
#X obj 90 77 r pot4;
#X obj 571 712 netsend -u -b;
#X obj 623 665 loadbang;
#X obj 509 665 list prepend send;
#X obj 509 688 list trim;
#X msg 714 688 disconnect;
#X msg 571 688 connect 127.0.0.1 3002;
#X obj 509 641 r LCD_messages;
#X obj 979 23 bng 8 250 50 0 empty empty empty 17 7 0 10 -262144 -1
-1;
#X obj 452 15 bng 8 250 50 0 empty empty empty 17 7 0 10 -262144 -1
-1;
#X obj 452 580 bng 8 250 50 0 empty empty empty 17 7 0 10 -262144 -1
-1;
#X obj 979 588 bng 8 250 50 0 empty empty empty 17 7 0 10 -262144 -1
-1;
#X obj 1000 15 bng 8 250 50 0 empty empty empty 17 7 0 10 -262144 -1
-1;
#X obj 1485 23 bng 8 250 50 0 empty empty empty 17 7 0 10 -262144 -1
-1;
#X obj 1000 287 bng 8 250 50 0 empty empty empty 17 7 0 10 -262144
-1 -1;
#X obj 1485 295 bng 8 250 50 0 empty empty empty 17 7 0 10 -262144
-1 -1;
#X obj 452 600 bng 8 250 50 0 empty empty empty 17 7 0 10 -262144 -1
-1;
#X obj 979 608 bng 8 250 50 0 empty empty empty 17 7 0 10 -262144 -1
-1;
#X obj 452 757 bng 8 250 50 0 empty empty empty 17 7 0 10 -262144 -1
-1;
#X obj 979 765 bng 8 250 50 0 empty empty empty 17 7 0 10 -262144 -1
-1;
#X text 1013 32 gestion des Boutons UP & Down en fct du type de page
;
#X obj 939 544 bng 8 250 50 0 empty empty empty 17 7 0 10 -262144 -1
-1;
#X obj 961 552 bng 8 250 50 0 empty empty empty 17 7 0 10 -262144 -1
-1;
#X obj 939 558 bng 8 250 50 0 empty empty empty 17 7 0 10 -262144 -1
-1;
#X obj 961 566 bng 8 250 50 0 empty empty empty 17 7 0 10 -262144 -1
-1;
#X obj 14 14 bng 8 250 50 0 empty empty empty 17 7 0 10 -262144 -1
-1;
#X obj 429 22 bng 8 250 50 0 empty empty empty 17 7 0 10 -262144 -1
-1;
#X obj 15 577 bng 8 250 50 0 empty empty empty 17 7 0 10 -262144 -1
-1;
#X obj 429 585 bng 8 250 50 0 empty empty empty 17 7 0 10 -262144 -1
-1;
#X text 28 32 Sauvegarde des valeurs des pots par pages;
#X obj 899 544 bng 8 250 50 0 empty empty empty 17 7 0 10 -262144 -1
-1;
#X obj 921 552 bng 8 250 50 0 empty empty empty 17 7 0 10 -262144 -1
-1;
#X obj 899 558 bng 8 250 50 0 empty empty empty 17 7 0 10 -262144 -1
-1;
#X obj 921 566 bng 8 250 50 0 empty empty empty 17 7 0 10 -262144 -1
-1;
#X obj 1020 355 bng 15 250 50 0 empty empty empty 17 7 0 10 -262144
-1 -1;
#X obj 1020 400 oscformat waveform;
#X obj 1020 378 array get wave;
#N canvas 0 23 450 278 (subpatch) 0;
#X array wave 128 float 3;
#A 0 -0.00267231 -0.00430584 -0.0075891 -0.0111488 -0.0181434 -0.0307897
-0.0553864 -0.106004 -0.211538 -0.339611 -0.353725 -0.134835 0.174113
0.314275 0.215025 0.0234717 -0.0419042 0.145535 0.42555 0.489548 0.24887
-0.0818617 -0.241086 -0.161506 0.063121 0.257098 0.29213 0.199457 0.128361
0.192467 0.354352 0.399345 0.192157 -0.0722592 -0.107601 0.0541885
0.128709 -0.0548862 -0.348736 -0.455824 -0.25168 0.0614409 0.199085
0.105559 -0.0753865 -0.169792 -0.0826617 0.102058 0.171678 0.00782573
-0.274706 -0.416666 -0.261989 0.109251 0.450019 0.564522 0.407318 0.0458132
-0.311445 -0.473908 -0.406046 -0.170984 0.0704966 0.164499 0.152566
0.148936 0.157353 0.0333674 -0.267156 -0.503238 -0.425198 -0.103816
0.162456 0.227493 0.184999 0.155519 0.117519 0.0709612 0.141293 0.379728
0.597438 0.570317 0.277271 -0.0321258 -0.158376 -0.153366 -0.0641834
0.160321 0.387129 0.387519 0.0992812 -0.330926 -0.648789 -0.671378
-0.399703 0.0186728 0.432185 0.699825 0.69249 0.392946 -0.0348892 -0.289979
-0.261067 -0.171815 -0.222092 -0.310742 -0.252587 -0.0803955 -0.0205187
-0.193568 -0.505532 -0.729545 -0.668785 -0.333943 -0.0416903 -0.00563717
-0.0999078 -0.151368 -0.120784 -0.0827603 -0.199601 -0.461605 -0.588716
-0.398019 -0.129436 -0.0681621 -0.0792408 0.0075804;
#X coords 0 1 128 -1 200 140 1 0 0;
#X restore 1021 432 graph;
#X obj 63 688 list trim;
#X obj 63 664 oscparse;
#X obj 63 638 netreceive -u -b 5006;
#X obj 208 638 loadbang;
#X msg 253 878 \; pd-main.pd menuclose \;;
#X msg 182 844 \; pd open main.pd \$1;
#X obj 112 772 symbol;
#X obj 182 822 makefilename /home/pi/myfiles/pd/%s/;
#X msg 112 844 \; pd dsp 1;
#X obj 112 798 trigger bang symbol bang;
#X obj 229 660 print :));
#X msg 208 682 \; pd dsp 1 \;;
#X obj 15 599 bng 8 250 50 0 empty empty empty 17 7 0 10 -262144 -1
-1;
#X obj 429 607 bng 8 250 50 0 empty empty empty 17 7 0 10 -262144 -1
-1;
#X obj 15 913 bng 8 250 50 0 empty empty empty 17 7 0 10 -262144 -1
-1;
#X obj 429 921 bng 8 250 50 0 empty empty empty 17 7 0 10 -262144 -1
-1;
#X obj 793 369 oscformat panel;
#X obj 793 344 list;
#X obj 906 263 r UP_DOWN;
#X obj 906 287 sel UP DOWN;
#X msg 906 312 UP;
#X msg 937 312 DOWN;
#X obj 1114 378 send LCD_messages;
#X obj 1072 328 r page;
#X obj 1000 304 bng 8 250 50 0 empty empty empty 17 7 0 10 -262144
-1 -1;
#X obj 1485 312 bng 8 250 50 0 empty empty empty 17 7 0 10 -262144
-1 -1;
#X obj 1000 584 bng 8 250 50 0 empty empty empty 17 7 0 10 -262144
-1 -1;
#X obj 1485 592 bng 8 250 50 0 empty empty empty 17 7 0 10 -262144
-1 -1;
#X obj 1020 328 sel 3;
#X obj 373 156 r page;
#X obj 142 298 t 0 0;
#X obj 218 299 i;
#X obj 218 264 t b;
#X obj 144 455 s controls_pot;
#X obj 1763 354 r controls_pot;
#X obj 1607 519 vsl 15 128 0 255 0 0 empty empty empty 0 -9 0 10 -258113
-1 -1 0 1;
#X obj 1634 519 vsl 15 128 0 255 0 0 empty empty empty 0 -9 0 10 -258113
-1 -1 0 1;
#X obj 1661 519 vsl 15 128 0 255 0 0 empty empty empty 0 -9 0 10 -258113
-1 -1 0 1;
#X obj 1579 520 vsl 15 128 0 255 0 0 empty empty empty 0 -9 0 10 -258113
-1 -1 0 1;
#X obj 1688 588 oscformat adsr;
#X obj 1688 561 pack f f f f;
#X obj 1771 562 bng 15 250 50 0 empty empty empty 17 7 0 10 -262144
-1 -1;
#X obj 1579 492 * 2;
#X obj 1607 492 * 2;
#X obj 1634 492 * 2;
#X obj 1661 492 * 2;
#X obj 1688 617 send LCD_messages;
#X obj 1879 210 vsl 15 128 0 255 0 0 empty empty empty 0 -9 0 10 -258113
-1 -1 0 1;
#X obj 1906 210 vsl 15 128 0 255 0 0 empty empty empty 0 -9 0 10 -258113
-1 -1 0 1;
#X obj 1933 210 vsl 15 128 0 255 0 0 empty empty empty 0 -9 0 10 -258113
-1 -1 0 1;
#X obj 1851 211 vsl 15 128 0 255 0 0 empty empty empty 0 -9 0 10 -258113
-1 -1 0 1;
#X obj 1960 252 pack f f f f;
#X obj 2044 252 bng 15 250 50 0 empty empty empty 17 7 0 10 -262144
-1 -1;
#X obj 1851 183 * 2;
#X obj 1879 183 * 2;
#X obj 1906 183 * 2;
#X obj 1933 183 * 2;
#X obj 1960 322 send LCD_messages;
#X obj 1888 43 unpack 0 0 0 0 0;
#X obj 1825 149 spigot;
#X obj 1869 149 spigot;
#X obj 1962 149 spigot;
#X obj 1915 149 spigot;
#X obj 1820 90 sel 1;
#X obj 1960 279 oscformat sliders;
#X msg 1885 120 1;
#X msg 1915 120 0;
#X obj 1600 353 unpack 0 0 0 0 0;
#X obj 1556 466 spigot;
#X obj 1600 466 spigot;
#X obj 1693 466 spigot;
#X obj 1646 466 spigot;
#X msg 1610 438 1;
#X msg 1640 438 0;
#X obj 1555 418 sel 2;
#X obj 1605 208 vsl 15 128 0 255 0 0 empty empty empty 0 -9 0 10 -258113
-1 -1 2490 1;
#X obj 1632 208 vsl 15 128 0 255 0 0 empty empty empty 0 -9 0 10 -258113
-1 -1 0 1;
#X obj 1659 208 vsl 15 128 0 255 0 0 empty empty empty 0 -9 0 10 -258113
-1 -1 12650 1;
#X obj 1577 209 vsl 15 128 0 255 0 0 empty empty empty 0 -9 0 10 -258113
-1 -1 4184 1;
#X obj 1686 250 pack f f f f;
#X obj 1770 250 bng 15 250 50 0 empty empty empty 17 7 0 10 -262144
-1 -1;
#X obj 1577 181 * 2;
#X obj 1605 181 * 2;
#X obj 1632 181 * 2;
#X obj 1659 181 * 2;
#X obj 1686 320 send LCD_messages;
#X obj 1654 50 unpack 0 0 0 0 0;
#X obj 1551 147 spigot;
#X obj 1595 147 spigot;
#X obj 1688 147 spigot;
#X obj 1641 147 spigot;
#X msg 1611 118 1;
#X msg 1641 118 0;
#X obj 1523 76 sel 0;
#X obj 1686 277 oscformat pots;
#X obj 1713 446 bng 15 250 50 0 empty empty empty 17 7 0 10 -262144
-1 -1;
#X obj 174 746 bng 15 250 50 0 empty empty empty 17 7 0 10 -262144
-1 -1;
#X obj 63 745 print oscload :;
#X obj 1022 708 dac~;
#X obj 1021 664 catch~ AudioOutL;
#X obj 1044 685 catch~ AudioOutR;
#X obj 1360 662 adc~;
#X obj 1360 686 send~ AudioInL;
#X obj 1382 707 send~ AudioInR;
#N canvas 0 23 719 316 midi_receive 0;
#X obj 22 16 notein 1;
#X floatatom 22 47 5 0 0 0 - - -;
#X floatatom 75 48 5 0 0 0 - - -;
#X obj 23 73 pack 0 0;
#X obj 22 103 list prepend NOTE;
#X floatatom 141 43 5 0 0 0 - - -;
#X floatatom 194 44 5 0 0 0 - - -;
#X obj 151 76 pack 0 0;
#X obj 161 19 ctlin;
#X obj 149 102 list prepend CC;
#X floatatom 273 49 5 0 0 0 - - -;
#X obj 273 21 bendin, f 7;
#X obj 274 104 list prepend BEND;
#X obj 410 24 pgmin;
#X floatatom 442 51 0 0 0 0 - - -;
#X floatatom 410 51 0 0 0 0 - - -;
#X floatatom 537 51 0 0 0 0 - - -;
#X floatatom 491 51 0 0 0 0 - - -;
#X obj 491 24 touchin;
#X obj 413 78 pack 0 0;
#X obj 404 103 list prepend PGM;
#X obj 529 105 list prepend TOUCHIN;
#X obj 509 79 pack 0 0;
#X obj 28 251 send midi_in;
#X connect 0 0 1 0;
#X connect 0 1 2 0;
#X connect 1 0 3 0;
#X connect 2 0 3 1;
#X connect 3 0 4 0;
#X connect 4 0 23 0;
#X connect 5 0 7 1;
#X connect 6 0 7 0;
#X connect 7 0 9 0;
#X connect 8 0 5 0;
#X connect 8 1 6 0;
#X connect 9 0 23 0;
#X connect 10 0 12 0;
#X connect 11 0 10 0;
#X connect 12 0 23 0;
#X connect 13 0 15 0;
#X connect 13 1 14 0;
#X connect 14 0 19 1;
#X connect 15 0 19 0;
#X connect 16 0 22 1;
#X connect 17 0 22 0;
#X connect 18 0 17 0;
#X connect 18 1 16 0;
#X connect 19 0 20 0;
#X connect 20 0 23 0;
#X connect 21 0 23 0;
#X connect 22 0 21 0;
#X restore 693 637 pd midi_receive;
#X obj 577 86 del 3000;
#X obj 452 777 bng 8 250 50 0 empty empty empty 17 7 0 10 -262144 -1
-1;
#X obj 821 785 bng 8 250 50 0 empty empty empty 17 7 0 10 -262144 -1
-1;
#X obj 452 914 bng 8 250 50 0 empty empty empty 17 7 0 10 -262144 -1
-1;
#X obj 821 922 bng 8 250 50 0 empty empty empty 17 7 0 10 -262144 -1
-1;
#X text 675 797 Calcul du Temps CPU;
#X obj 482 840 tgl 15 0 empty empty empty 17 7 0 10 -262144 -1 -1 0
1;
#X obj 280 481 list prepend POT;
#X obj 280 505 list trim;
#X obj 280 532 s controls;
#X obj 1523 102 t b b;
#X obj 1670 101 i;
#X obj 1698 102 i;
#X obj 1726 104 i;
#X obj 1753 107 i;
#X obj 1820 115 t b b;
#X obj 1967 84 i;
#X obj 1995 85 i;
#X obj 2023 87 i;
#X obj 2050 90 i;
#X obj 1555 443 t b b;
#X obj 1597 401 i;
#X obj 1625 402 i;
#X obj 1653 404 i;
#X obj 1680 407 i;
#X obj 1508 16 bng 8 250 50 0 empty empty empty 17 7 0 10 -262144 -1
-1;
#X obj 2077 24 bng 8 250 50 0 empty empty empty 17 7 0 10 -262144 -1
-1;
#X obj 1508 671 bng 8 250 50 0 empty empty empty 17 7 0 10 -262144
-1 -1;
#X obj 2077 679 bng 8 250 50 0 empty empty empty 17 7 0 10 -262144
-1 -1;
#X text 1778 642 mise à jour de l'affichage en fonction des pages
sélectionnées;
#X obj 1143 328 r wave_upd;
#X obj 1000 600 bng 8 250 50 0 empty empty empty 17 7 0 10 -262144
-1 -1;
#X obj 1485 608 bng 8 250 50 0 empty empty empty 17 7 0 10 -262144
-1 -1;
#X obj 1000 758 bng 8 250 50 0 empty empty empty 17 7 0 10 -262144
-1 -1;
#X obj 1485 766 bng 8 250 50 0 empty empty empty 17 7 0 10 -262144
-1 -1;
#X msg 577 115 0;
#X obj 577 293 oscformat page;
#X obj 373 185 print;
#X obj 300 772 s page;
#X obj 332 377 value page;
#X text 463 32 uart IN;
#X obj 839 719 send LCD_messages;
#X obj 839 694 oscformat labels;
#X obj 839 666 list;
#X obj 839 638 r textfields;
#X obj 47 890 s textfields;
#X msg 47 847 empty;
#X obj 616 865 oscformat cpu;
#X obj 258 738 s param;
#X obj 482 794 r param;
#X obj 482 816 sel 8;
#X msg 726 858 0;
#X obj 645 273 send ESC;
#X obj 726 829 r ESC;
#X obj 616 895 send LCD_messages;
#X obj 540 861 cputime;
#X obj 540 805 metro 1000;
#X obj 540 833 t b b;
#X obj 573 890 * 0.1;
#X obj 540 890 int;
#X obj 848 777 bng 8 250 50 0 empty empty empty 17 7 0 10 -262144 -1
-1;
#X obj 1217 785 bng 8 250 50 0 empty empty empty 17 7 0 10 -262144
-1 -1;
#X obj 848 915 bng 8 250 50 0 empty empty empty 17 7 0 10 -262144 -1
-1;
#X obj 1217 923 bng 8 250 50 0 empty empty empty 17 7 0 10 -262144
-1 -1;
#X obj 878 794 r param;
#X obj 878 895 send LCD_messages;
#X obj 878 816 sel 7;
#X obj 878 865 oscformat midi;
#X msg 878 841 1;
#X obj 694 355 vsl 15 128 0 127 0 0 empty empty empty 0 -9 0 10 -262144
-1 -1 0 1;
#X obj 716 355 vsl 15 128 0 127 0 0 empty empty empty 0 -9 0 10 -262144
-1 -1 0 1;
#X obj 747 355 vsl 15 128 0 127 0 0 empty empty empty 0 -9 0 10 -262144
-1 -1 0 1;
#X obj 769 355 vsl 15 128 0 127 0 0 empty empty empty 0 -9 0 10 -262144
-1 -1 0 1;
#X text 649 488 CV 1;
#X text 703 489 CV 2;
#X floatatom 576 388 5 0 0 0 - - -;
#X floatatom 576 412 5 0 0 0 - - -;
#X text 501 399 GATE 1 & 2;
#X obj 686 503 change;
#X obj 739 503 change;
#X obj 523 433 change;
#X obj 576 433 change;
#X obj 592 560 s cv_gate;
#X obj 1009 805 r cv_gate;
#X text 1076 793 params midi + cv gate;
#X obj 1042 846 sel 6;
#X obj 1090 890 send LCD_messages;
#X obj 1090 860 oscformat cv_gate;
#X obj 1009 891 spigot;
#X obj 1042 869 tgl 15 0 empty empty empty 17 7 0 10 -262144 -1 -1
0 1;
#X msg 943 824 0;
#X obj 943 795 r ESC;
#X text 1021 617 adc / dac;
#X obj 68 554 oscformat values;
#X obj 635 464 +;
#X obj 634 437 << 5;
#X obj 864 453 +;
#X obj 863 426 << 5;
#X obj 822 501 r cv_gate;
#X obj 855 560 print;
#X obj 489 549 list trim;
#X msg 523 462 0;
#X msg 576 461 1;
#X msg 686 531 2;
#X msg 739 531 3;
#X obj 493 497 pack 0 0;
#X obj 510 516 pack 0 0;
#X obj 563 516 pack 0 0;
#X obj 580 536 pack 0 0;
#X obj 14 939 bng 8 250 50 0 empty empty empty 17 7 0 10 -262144 -1
-1;
#X obj 911 947 bng 8 250 50 0 empty empty empty 17 7 0 10 -262144 -1
-1;
#X obj 14 1213 bng 8 250 50 0 empty empty empty 17 7 0 10 -262144 -1
-1;
#X obj 911 1221 bng 8 250 50 0 empty empty empty 17 7 0 10 -262144
-1 -1;
#X obj 286 1144 text define pot_values;
#X obj 182 977 symbol;
#X symbolatom 182 1171 40 0 0 0 - - -;
#X obj 182 1095 makefilename;
#X msg 182 1057 set \$1;
#X obj 182 1032 makefilename /home/pi/myfiles/pd/%s/%%s;
#X obj 286 1120 list trim;
#X obj 286 1094 list prepend read;
#X obj 93 1116 s preset_upd;
#X obj 250 161 r preset_upd;
#X obj 240 1002 symbol;
#X obj 93 1077 t b s;
#X obj 616 317 send ENTER;
#X obj 694 250 sel 1;
#X obj 529 173 bng 15 250 50 0 empty empty empty 17 7 0 10 -262144
-1 -1;
#X obj 472 174 bng 15 250 50 0 empty empty empty 17 7 0 10 -262144
-1 -1;
#X obj 472 221 bng 15 250 50 0 empty empty empty 17 7 0 10 -262144
-1 -1;
#X obj 472 242 timer;
#X floatatom 472 271 5 0 0 0 - - -;
#X obj 529 146 loadbang;
#X obj 472 322 sel 1;
#N canvas 445 254 464 362 onebang 0;
#X obj 122 63 inlet;
#X obj 212 60 inlet;
#X msg 212 85 1;
#X obj 212 109 tgl 15 0 empty empty empty 17 7 0 10 -262144 -1 -1 1
1;
#X obj 264 60 loadbang;
#X obj 123 106 spigot;
#X obj 232 136 bng 15 250 50 0 empty empty empty 17 7 0 10 -262144
-1 -1;
#X obj 174 169 outlet;
#X connect 0 0 5 0;
#X connect 1 0 2 0;
#X connect 2 0 3 0;
#X connect 3 0 5 1;
#X connect 4 0 2 0;
#X connect 5 0 6 0;
#X connect 5 0 7 0;
#X connect 6 0 3 0;
#X restore 472 197 pd onebang;
#X obj 472 146 sel 1 2;
#X obj 472 296 > 1000;
#X obj 472 351 bng 15 250 50 0 empty empty empty 17 7 0 10 -262144
-1 -1;
#X obj 516 323 bng 15 250 50 0 empty empty empty 17 7 0 10 -262144
-1 -1;
#X msg 472 374 ENTER_HOLD;
#X obj 539 225 bng 15 250 50 0 empty empty empty 17 7 0 10 -262144
-1 -1;
#X msg 516 350 ENTER;
#X obj 63 715 route test load menu param preset preset_save;
#X obj 471 991 symbol;
#X symbolatom 511 1125 40 0 0 0 - - -;
#X obj 511 1097 makefilename;
#X msg 511 1059 set \$1;
#X obj 511 1034 makefilename /home/pi/myfiles/pd/%s/%%s;
#X obj 511 1183 list trim;
#X obj 511 1152 list prepend write;
#X text 30 958 chargement des presets;
#X text 513 960 sauvegarde des presets;
#X text 34 619 chargement des subpatchs + osc in;
#X text 460 616 gestion des envois OSC out + midi setup;
#X obj 431 1097 s preset_upd;
#X obj 431 1058 t b s;
#X msg 526 990 0;
#X obj 560 990 s led;
#X obj 794 1016 r page;
#X obj 794 1098 tgl 15 0 empty empty empty 17 7 0 10 -262144 -1 -1
0 1;
#X msg 867 1066 0;
#X msg 794 1069 1;
#X obj 794 1147 tgl 15 0 empty empty empty 17 7 0 10 -262144 -1 -1
0 1;
#X obj 794 1170 s led;
#X msg 736 145 send3 191 1 \$1;
#X msg 739 117 0;
#X obj 791 94 r led;
#X obj 794 1044 sel 11;
#X obj 794 1122 metro 300;
#X msg 462 400 1;
#X msg 487 453 0;
#X obj 463 478 s led;
#X obj 867 1022 r ESC;
#X obj 472 422 del 200;
#X text 712 987 clignotement activé en mode save;
#X obj 1177 639 vu 15 120 empty empty -1 -8 0 10 -66577 -1 1 0;
#X obj 1268 640 vu 15 120 empty empty -1 -8 0 10 -66577 -1 1 0;
#N canvas 329 161 625 417 vu 0;
#X obj 59 129 env~ 1024;
#X obj 161 111 abs~;
#X obj 161 213 snapshot~;
#X obj 161 256 rmstodb;
#X obj 161 21 inlet~;
#X obj 161 288 - 100;
#X obj 59 287 - 100;
#X obj 59 361 outlet;
#X obj 161 361 outlet;
#X text 344 307 Check the help file of env~ and slop~ for more details.
, f 31;
#X obj 239 89 expr 1000 / $f1;
#X floatatom 239 117 5 0 0 0 - - -;
#X obj 161 146 slop~ 0 0 0 0 1e+09;
#X obj 239 18 inlet;
#X floatatom 239 57 5 0 0 0 - - -;
#X text 359 89 convert to hz;
#X text 282 118 hz;
#X text 284 57 peak decay time in ms;
#X obj 59 171 t f b;
#X text 345 132 The env~ object is dedicated to RMS analysis. Its output
is in dB (0-100 range \, pd style) but needs to be converted to dBFS
(and we do that by simply subtracting 100)., f 31;
#X text 345 225 The slop~ object is used here for peak detection. We
need to convert the output to dB with rmstodb and also subtract by
100 to convert it to dBFS., f 31;
#X connect 0 0 18 0;
#X connect 1 0 12 0;
#X connect 2 0 3 0;
#X connect 3 0 5 0;
#X connect 4 0 0 0;
#X connect 4 0 1 0;
#X connect 5 0 8 0;
#X connect 6 0 7 0;
#X connect 10 0 11 0;
#X connect 11 0 12 3;
#X connect 12 0 2 0;
#X connect 13 0 14 0;
#X connect 14 0 10 0;
#X connect 18 0 6 0;
#X connect 18 1 2 0;
#X restore 1138 638 pd vu;
#X obj 1150 612 loadbang;
#X msg 1239 612 500;
#N canvas 329 161 625 417 vu 0;
#X obj 59 129 env~ 1024;
#X obj 161 111 abs~;
#X obj 161 213 snapshot~;
#X obj 161 256 rmstodb;
#X obj 161 21 inlet~;
#X obj 161 288 - 100;
#X obj 59 287 - 100;
#X obj 59 361 outlet;
#X obj 161 361 outlet;
#X text 344 307 Check the help file of env~ and slop~ for more details.
, f 31;
#X obj 239 89 expr 1000 / $f1;
#X floatatom 239 117 5 0 0 0 - - -;
#X obj 161 146 slop~ 0 0 0 0 1e+09;
#X obj 239 18 inlet;
#X floatatom 239 57 5 0 0 0 - - -;
#X text 359 89 convert to hz;
#X text 282 118 hz;
#X text 284 57 peak decay time in ms;
#X obj 59 171 t f b;
#X text 345 132 The env~ object is dedicated to RMS analysis. Its output
is in dB (0-100 range \, pd style) but needs to be converted to dBFS
(and we do that by simply subtracting 100)., f 31;
#X text 345 225 The slop~ object is used here for peak detection. We
need to convert the output to dB with rmstodb and also subtract by
100 to convert it to dBFS., f 31;
#X connect 0 0 18 0;
#X connect 1 0 12 0;
#X connect 2 0 3 0;
#X connect 3 0 5 0;
#X connect 4 0 0 0;
#X connect 4 0 1 0;
#X connect 5 0 8 0;
#X connect 6 0 7 0;
#X connect 10 0 11 0;
#X connect 11 0 12 3;
#X connect 12 0 2 0;
#X connect 13 0 14 0;
#X connect 14 0 10 0;
#X connect 18 0 6 0;
#X connect 18 1 2 0;
#X restore 1231 637 pd vu;
#X connect 0 0 3 0;
#X connect 0 0 318 0;
#X connect 1 0 4 0;
#X connect 2 0 1 0;
#X connect 3 0 2 0;
#X connect 3 1 31 0;
#X connect 3 2 33 0;
#X connect 3 3 34 0;
#X connect 4 0 5 0;
#X connect 4 1 6 0;
#X connect 4 1 26 0;
#X connect 4 2 5 2;
#X connect 4 2 26 1;
#X connect 5 0 152 0;
#X connect 6 0 7 0;
#X connect 7 0 5 1;
#X connect 8 0 153 0;
#X connect 8 0 232 0;
#X connect 10 0 8 1;
#X connect 11 0 8 2;
#X connect 12 0 8 3;
#X connect 13 0 8 4;
#X connect 14 0 15 0;
#X connect 15 0 10 0;
#X connect 15 1 11 0;
#X connect 15 2 12 0;
#X connect 15 3 13 0;
#X connect 17 0 18 0;
#X connect 17 1 25 0;
#X connect 18 0 16 0;
#X connect 18 1 264 0;
#X connect 19 0 16 0;
#X connect 20 0 16 1;
#X connect 21 0 19 0;
#X connect 21 1 19 0;
#X connect 21 2 19 0;
#X connect 21 3 19 0;
#X connect 21 4 19 0;
#X connect 21 5 20 0;
#X connect 21 6 23 0;
#X connect 22 0 21 0;
#X connect 23 0 16 2;
#X connect 24 0 22 0;
#X connect 25 0 16 2;
#X connect 26 0 27 0;
#X connect 27 0 17 0;
#X connect 28 0 3 1;
#X connect 28 0 318 0;
#X connect 29 0 3 2;
#X connect 29 0 318 0;
#X connect 30 0 3 3;
#X connect 30 0 318 0;
#X connect 31 0 32 0;
#X connect 32 0 4 0;
#X connect 33 0 35 0;
#X connect 34 0 36 0;
#X connect 35 0 4 0;
#X connect 36 0 4 0;
#X connect 38 0 137 0;
#X connect 40 0 39 0;
#X connect 41 0 39 0;
#X connect 43 0 3 4;
#X connect 44 0 45 0;
#X connect 45 0 49 0;
#X connect 45 1 56 0;
#X connect 46 0 45 0;
#X connect 47 0 45 0;
#X connect 48 0 45 0;
#X connect 51 0 62 0;
#X connect 52 0 44 0;
#X connect 52 1 48 0;
#X connect 53 0 62 1;
#X connect 54 0 62 1;
#X connect 55 0 47 0;
#X connect 55 0 60 0;
#X connect 55 0 225 0;
#X connect 55 0 390 0;
#X connect 56 0 57 0;
#X connect 56 0 58 0;
#X connect 56 1 50 0;
#X connect 57 0 63 0;
#X connect 57 1 64 0;
#X connect 57 2 74 0;
#X connect 57 3 300 0;
#X connect 57 4 301 0;
#X connect 57 5 294 0;
#X connect 57 6 295 0;
#X connect 57 7 296 0;
#X connect 57 8 297 0;
#X connect 57 9 78 0;
#X connect 57 10 77 0;
#X connect 57 11 76 0;
#X connect 57 12 75 0;
#X connect 59 0 62 1;
#X connect 60 0 61 0;
#X connect 61 0 51 0;
#X connect 62 0 52 0;
#X connect 63 0 73 0;
#X connect 64 0 351 0;
#X connect 64 0 350 0;
#X connect 64 0 360 0;
#X connect 65 0 69 0;
#X connect 66 0 71 0;
#X connect 67 0 70 0;
#X connect 68 0 72 0;
#X connect 69 0 0 0;
#X connect 70 0 28 0;
#X connect 71 0 29 0;
#X connect 72 0 30 0;
#X connect 73 0 38 0;
#X connect 73 0 277 0;
#X connect 74 0 41 0;
#X connect 74 1 40 0;
#X connect 79 0 65 0;
#X connect 80 0 67 0;
#X connect 81 0 66 0;
#X connect 82 0 68 0;
#X connect 84 0 88 0;
#X connect 85 0 86 0;
#X connect 86 0 83 0;
#X connect 87 0 83 0;
#X connect 88 0 83 0;
#X connect 89 0 85 0;
#X connect 90 0 93 0;
#X connect 91 0 90 0;
#X connect 91 0 92 0;
#X connect 92 0 93 0;
#X connect 94 0 96 0;
#X connect 94 0 95 0;
#X connect 95 0 97 0;
#X connect 96 0 97 0;
#X connect 98 0 100 0;
#X connect 98 0 99 0;
#X connect 99 0 101 0;
#X connect 100 0 101 0;
#X connect 103 0 104 0;
#X connect 103 0 105 0;
#X connect 104 0 106 0;
#X connect 105 0 106 0;
#X connect 107 0 108 0;
#X connect 107 0 109 0;
#X connect 108 0 110 0;
#X connect 109 0 110 0;
#X connect 112 0 113 0;
#X connect 112 0 114 0;
#X connect 113 0 115 0;
#X connect 114 0 115 0;
#X connect 116 0 118 0;
#X connect 117 0 142 0;
#X connect 118 0 117 0;
#X connect 120 0 367 0;
#X connect 121 0 120 0;
#X connect 122 0 121 0;
#X connect 123 0 131 0;
#X connect 123 0 130 0;
#X connect 126 0 129 0;
#X connect 127 0 125 0;
#X connect 129 0 128 0;
#X connect 129 1 127 0;
#X connect 129 1 339 0;
#X connect 129 2 124 0;
#X connect 129 2 271 0;
#X connect 132 0 133 0;
#X connect 132 0 134 0;
#X connect 133 0 135 0;
#X connect 134 0 135 0;
#X connect 136 0 42 0;
#X connect 137 0 136 0;
#X connect 138 0 139 0;
#X connect 139 0 140 0;
#X connect 139 1 141 0;
#X connect 140 0 137 0;
#X connect 141 0 137 0;
#X connect 143 0 148 0;
#X connect 144 0 145 0;
#X connect 144 0 146 0;
#X connect 145 0 147 0;
#X connect 146 0 147 0;
#X connect 148 0 116 0;
#X connect 149 0 151 0;
#X connect 149 0 262 0;
#X connect 150 0 8 0;
#X connect 150 1 14 0;
#X connect 151 0 150 0;
#X connect 152 0 151 0;
#X connect 154 0 178 0;
#X connect 154 0 187 0;
#X connect 154 0 206 0;
#X connect 154 0 215 0;
#X connect 155 0 160 1;
#X connect 155 0 161 0;
#X connect 156 0 160 2;
#X connect 156 0 161 0;
#X connect 157 0 160 3;
#X connect 157 0 161 0;
#X connect 158 0 160 0;
#X connect 159 0 166 0;
#X connect 160 0 159 0;
#X connect 161 0 160 0;
#X connect 162 0 158 0;
#X connect 163 0 155 0;
#X connect 164 0 156 0;
#X connect 165 0 157 0;
#X connect 167 0 171 1;
#X connect 167 0 172 0;
#X connect 168 0 171 2;
#X connect 168 0 172 0;
#X connect 169 0 171 3;
#X connect 169 0 172 0;
#X connect 170 0 171 0;
#X connect 171 0 184 0;
#X connect 172 0 171 0;
#X connect 173 0 170 0;
#X connect 174 0 167 0;
#X connect 175 0 168 0;
#X connect 176 0 169 0;
#X connect 178 0 183 0;
#X connect 178 1 241 1;
#X connect 178 2 242 1;
#X connect 178 3 243 1;
#X connect 178 4 244 1;
#X connect 179 0 173 0;
#X connect 180 0 174 0;
#X connect 181 0 176 0;
#X connect 182 0 175 0;
#X connect 183 0 240 0;
#X connect 183 1 186 0;
#X connect 184 0 177 0;
#X connect 185 0 181 1;
#X connect 185 0 182 1;
#X connect 185 0 180 1;
#X connect 185 0 179 1;
#X connect 186 0 181 1;
#X connect 186 0 182 1;
#X connect 186 0 180 1;
#X connect 186 0 179 1;
#X connect 187 0 194 0;
#X connect 187 1 246 1;
#X connect 187 2 247 1;
#X connect 187 3 248 1;
#X connect 187 4 249 1;
#X connect 188 0 162 0;
#X connect 189 0 163 0;
#X connect 190 0 165 0;
#X connect 191 0 164 0;
#X connect 192 0 190 1;
#X connect 192 0 191 1;
#X connect 192 0 189 1;
#X connect 192 0 188 1;
#X connect 193 0 190 1;
#X connect 193 0 191 1;
#X connect 193 0 189 1;
#X connect 193 0 188 1;
#X connect 194 0 245 0;
#X connect 194 1 193 0;
#X connect 195 0 199 1;
#X connect 195 0 200 0;
#X connect 196 0 199 2;
#X connect 196 0 200 0;
#X connect 197 0 199 3;
#X connect 197 0 200 0;
#X connect 198 0 199 0;
#X connect 199 0 214 0;
#X connect 200 0 199 0;
#X connect 201 0 198 0;
#X connect 202 0 195 0;
#X connect 203 0 196 0;
#X connect 204 0 197 0;
#X connect 206 0 213 0;
#X connect 206 1 236 1;
#X connect 206 2 237 1;
#X connect 206 3 238 1;
#X connect 206 4 239 1;
#X connect 207 0 201 0;
#X connect 208 0 202 0;
#X connect 209 0 204 0;
#X connect 210 0 203 0;
#X connect 211 0 209 1;
#X connect 211 0 210 1;
#X connect 211 0 208 1;
#X connect 211 0 207 1;
#X connect 212 0 209 1;
#X connect 212 0 210 1;
#X connect 212 0 208 1;
#X connect 212 0 207 1;
#X connect 213 0 235 0;
#X connect 213 1 212 0;
#X connect 214 0 205 0;
#X connect 219 0 218 0;
#X connect 219 0 402 0;
#X connect 220 0 218 1;
#X connect 220 0 405 0;
#X connect 221 0 222 0;
#X connect 221 1 223 0;
#X connect 225 0 260 0;
#X connect 226 0 227 0;
#X connect 226 0 228 0;
#X connect 227 0 229 0;
#X connect 228 0 229 0;
#X connect 231 0 281 0;
#X connect 231 0 284 0;
#X connect 232 0 233 0;
#X connect 233 0 234 0;
#X connect 235 0 236 0;
#X connect 235 0 237 0;
#X connect 235 0 238 0;
#X connect 235 0 239 0;
#X connect 235 1 211 0;
#X connect 236 0 207 0;
#X connect 237 0 208 0;
#X connect 238 0 210 0;
#X connect 239 0 209 0;
#X connect 240 0 241 0;
#X connect 240 0 242 0;
#X connect 240 0 243 0;
#X connect 240 0 244 0;
#X connect 240 1 185 0;
#X connect 241 0 179 0;
#X connect 242 0 180 0;
#X connect 243 0 182 0;
#X connect 244 0 181 0;
#X connect 245 0 246 0;
#X connect 245 0 247 0;
#X connect 245 0 248 0;
#X connect 245 0 249 0;
#X connect 245 1 192 0;
#X connect 246 0 188 0;
#X connect 247 0 189 0;
#X connect 248 0 191 0;
#X connect 249 0 190 0;
#X connect 250 0 251 0;
#X connect 250 0 252 0;
#X connect 251 0 253 0;
#X connect 252 0 253 0;
#X connect 255 0 116 0;
#X connect 256 0 257 0;
#X connect 256 0 258 0;
#X connect 257 0 259 0;
#X connect 258 0 259 0;
#X connect 260 0 261 0;
#X connect 261 0 42 0;
#X connect 264 0 16 1;
#X connect 267 0 266 0;
#X connect 268 0 267 0;
#X connect 269 0 268 0;
#X connect 271 0 270 0;
#X connect 272 0 279 0;
#X connect 274 0 275 0;
#X connect 275 0 231 0;
#X connect 276 0 231 0;
#X connect 278 0 276 0;
#X connect 280 0 284 0;
#X connect 281 0 282 0;
#X connect 282 0 280 0;
#X connect 282 1 280 1;
#X connect 283 0 272 0;
#X connect 284 0 283 0;
#X connect 285 0 286 0;
#X connect 285 0 287 0;
#X connect 286 0 288 0;
#X connect 287 0 288 0;
#X connect 289 0 291 0;
#X connect 289 0 310 0;
#X connect 291 0 293 0;
#X connect 292 0 290 0;
#X connect 293 0 292 0;
#X connect 294 0 303 0;
#X connect 294 0 320 0;
#X connect 295 0 303 0;
#X connect 295 0 319 1;
#X connect 296 0 304 0;
#X connect 296 0 322 0;
#X connect 297 0 304 0;
#X connect 297 0 321 1;
#X connect 300 0 305 0;
#X connect 300 0 330 1;
#X connect 301 0 306 0;
#X connect 301 0 331 1;
#X connect 303 0 328 0;
#X connect 304 0 329 0;
#X connect 305 0 326 0;
#X connect 306 0 327 0;
#X connect 308 0 313 0;
#X connect 310 0 314 0;
#X connect 312 0 311 0;
#X connect 313 0 312 0;
#X connect 314 0 313 1;
#X connect 315 0 314 0;
#X connect 316 0 315 0;
#X connect 318 0 9 0;
#X connect 319 0 332 1;
#X connect 320 0 319 0;
#X connect 321 0 333 1;
#X connect 322 0 321 0;
#X connect 323 0 324 0;
#X connect 325 0 307 0;
#X connect 326 0 330 0;
#X connect 327 0 331 0;
#X connect 328 0 332 0;
#X connect 329 0 333 0;
#X connect 330 0 325 0;
#X connect 331 0 325 0;
#X connect 332 0 325 0;
#X connect 333 0 325 0;
#X connect 334 0 335 0;
#X connect 334 0 336 0;
#X connect 335 0 337 0;
#X connect 336 0 337 0;
#X connect 339 0 343 0;
#X connect 339 0 372 0;
#X connect 341 0 340 0;
#X connect 341 0 345 0;
#X connect 342 0 341 0;
#X connect 343 0 342 0;
#X connect 344 0 338 0;
#X connect 345 0 344 0;
#X connect 347 0 150 0;
#X connect 348 0 349 0;
#X connect 349 0 346 0;
#X connect 349 1 341 0;
#X connect 351 0 37 0;
#X connect 352 0 359 1;
#X connect 353 0 359 0;
#X connect 354 0 355 0;
#X connect 355 0 356 0;
#X connect 356 0 361 0;
#X connect 357 0 352 0;
#X connect 358 0 362 0;
#X connect 358 1 363 0;
#X connect 359 0 354 0;
#X connect 360 0 353 0;
#X connect 360 1 352 0;
#X connect 360 1 365 0;
#X connect 361 0 358 0;
#X connect 362 0 364 0;
#X connect 362 0 394 0;
#X connect 362 0 398 0;
#X connect 363 0 366 0;
#X connect 364 0 137 0;
#X connect 365 0 355 1;
#X connect 366 0 137 0;
#X connect 367 1 126 0;
#X connect 367 1 216 0;
#X connect 367 1 217 0;
#X connect 367 2 263 0;
#X connect 367 3 273 0;
#X connect 367 4 348 0;
#X connect 367 5 368 0;
#X connect 368 0 380 0;
#X connect 368 0 381 0;
#X connect 369 0 374 0;
#X connect 370 0 369 0;
#X connect 371 0 370 0;
#X connect 372 0 371 0;
#X connect 373 0 338 0;
#X connect 374 0 373 0;
#X connect 380 0 379 0;
#X connect 380 1 370 0;
#X connect 381 0 382 0;
#X connect 383 0 392 0;
#X connect 384 0 393 0;
#X connect 385 0 384 0;
#X connect 385 0 387 0;
#X connect 386 0 384 0;
#X connect 387 0 388 0;
#X connect 389 0 45 0;
#X connect 390 0 389 0;
#X connect 391 0 389 0;
#X connect 392 0 386 0;
#X connect 392 1 385 0;
#X connect 393 0 387 0;
#X connect 394 0 396 0;
#X connect 395 0 396 0;
#X connect 397 0 385 0;
#X connect 398 0 395 0;
#X connect 402 0 400 0;
#X connect 402 1 400 1;
#X connect 403 0 404 0;
#X connect 404 0 402 1;
#X connect 404 0 405 1;
#X connect 405 0 401 0;
#X connect 405 1 401 1;
