#N canvas 115 179 502 395 12;
#X obj 189 69 inlet;
#X obj 189 247 outlet;
#X obj 189 106 sel 1 2;
#X obj 189 135 bng 15 250 50 0 empty empty empty 17 7 0 10 -262144
-1 -1;
#X obj 189 218 i;
#X obj 240 175 bng 15 250 50 0 empty empty empty 17 7 0 10 -262144
-1 -1;
#X obj 256 120 sel;
#X obj 340 68 inlet;
#X obj 248 145 del 3;
#X obj 138 160 i;
#X obj 180 160 + 1;
#X obj 390 68 inlet;
#X msg 138 102 0;
#X obj 161 193 %;
#X obj 138 25 loadbang;
#X floatatom 130 226 5 0 0 0 - - -;
#X obj 256 26 r RPI_page;
#X obj 315 171 tgl 15 0 empty empty empty 17 7 0 10 -262144 -1 -1 0
1;
#X obj 313 148 bng 15 250 50 0 empty empty empty 17 7 0 10 -262144
-1 -1;
#X obj 254 77 i;
#X obj 438 54 inlet;
#X connect 0 0 2 0;
#X connect 2 0 3 0;
#X connect 3 0 9 0;
#X connect 4 0 1 0;
#X connect 5 0 4 0;
#X connect 6 0 8 0;
#X connect 6 0 18 0;
#X connect 7 0 6 1;
#X connect 8 0 5 0;
#X connect 8 0 17 0;
#X connect 9 0 10 0;
#X connect 9 0 13 0;
#X connect 10 0 9 1;
#X connect 11 0 13 1;
#X connect 12 0 9 0;
#X connect 13 0 4 0;
#X connect 13 0 15 0;
#X connect 14 0 12 0;
#X connect 16 0 19 0;
#X connect 18 0 17 0;
#X connect 19 0 6 0;
#X connect 20 0 9 0;
