#N canvas 0 50 557 300 12;
#X obj 189 69 inlet;
#X obj 189 248 outlet;
#X obj 189 106 sel 1 2;
#X obj 189 164 tgl 15 0 empty empty empty 17 7 0 10 -262144 -1 -1 1
1;
#X obj 189 138 bng 15 250 50 0 empty empty empty 17 7 0 10 -262144
-1 -1;
#X obj 189 188 i;
#X obj 240 175 bng 15 250 50 0 empty empty empty 17 7 0 10 -262144
-1 -1;
#X obj 256 120 sel;
#X obj 357 70 inlet;
#X obj 248 145 del 3;
#X obj 256 70 r RPI_page;
#X obj 403 70 inlet;
#X obj 403 116 sel 0 1;
#X msg 398 148 0;
#X msg 433 163 1;
#X connect 0 0 2 0;
#X connect 2 0 4 0;
#X connect 3 0 5 0;
#X connect 4 0 3 0;
#X connect 5 0 1 0;
#X connect 6 0 5 0;
#X connect 7 0 9 0;
#X connect 8 0 7 1;
#X connect 9 0 6 0;
#X connect 10 0 7 0;
#X connect 11 0 12 0;
#X connect 12 0 13 0;
#X connect 12 1 14 0;
#X connect 13 0 3 0;
#X connect 14 0 3 0;
