#N canvas 299 480 868 542 10;
#X msg 6 77 bang;
#X text 13 10 prints "Hello world!" when banged.;
#X obj 26 109 uart;
#X floatatom 105 46 5 0 0 0 - - -;
#X msg 196 104 init;
#X msg 56 83 read;
#X obj 23 137 print a;
#X obj 109 157 print b;
#X obj 293 99 tgl 15 0 empty empty empty 17 7 0 10 -262144 -1 -1 1
1;
#X obj 17 41 t b b;
#X msg 327 100 10;
#X msg 354 100 5;
#X obj 513 117 tgl 15 0 empty empty empty 17 7 0 10 -262144 -1 -1 0
1;
#X obj 502 161 metro 50;
#X msg 577 107 10;
#X msg 602 150 5;
#X obj 254 62 loadbang;
#X obj 517 207 tgl 15 0 empty empty empty 17 7 0 10 -262144 -1 -1 0
1;
#X msg 479 263 send3 191 1 \$1;
#X obj 292 123 metro 100;
#X obj 53 192 route 240;
#X obj 53 218 unpack f f f f f f f f f f f f f;
#X floatatom 50 271 5 0 0 0 - - -;
#X obj 298 317 vsl 15 128 0 127 0 0 empty empty empty 0 -9 0 10 -262144
-1 -1 9600 1;
#X obj 320 314 vsl 15 128 0 127 0 0 empty empty empty 0 -9 0 10 -262144
-1 -1 8900 1;
#X obj 256 321 vsl 15 128 0 127 0 0 empty empty empty 0 -9 0 10 -262144
-1 -1 5200 1;
#X obj 278 318 vsl 15 128 0 127 0 0 empty empty empty 0 -9 0 10 -262144
-1 -1 7100 1;
#X floatatom 63 252 5 0 0 0 - - -;
#X floatatom 71 293 5 0 0 0 - - -;
#X obj 22 226 bng 15 250 50 0 empty empty empty 17 7 0 10 -262144 -1
-1;
#X msg 418 100 6;
#X obj 120 339 vsl 15 128 0 127 0 0 empty empty empty 0 -9 0 10 -262144
-1 -1 0 1;
#X obj 142 336 vsl 15 128 0 127 0 0 empty empty empty 0 -9 0 10 -262144
-1 -1 0 1;
#X obj 176 339 vsl 15 128 0 127 0 0 empty empty empty 0 -9 0 10 -262144
-1 -1 0 1;
#X obj 198 336 vsl 15 128 0 127 0 0 empty empty empty 0 -9 0 10 -262144
-1 -1 0 1;
#X text 257 459 pot 1 2 3 4;
#X text 119 486 CV 1;
#X text 183 479 CV 2;
#X floatatom 53 350 5 0 0 0 - - -;
#X floatatom 69 385 5 0 0 0 - - -;
#X text 24 428 GATE 1 & 2;
#X connect 0 0 2 0;
#X connect 2 0 6 0;
#X connect 2 1 20 0;
#X connect 3 0 2 0;
#X connect 4 0 2 0;
#X connect 5 0 2 0;
#X connect 8 0 19 0;
#X connect 9 0 0 0;
#X connect 9 1 5 0;
#X connect 10 0 19 1;
#X connect 11 0 19 1;
#X connect 12 0 13 0;
#X connect 13 0 17 0;
#X connect 14 0 13 1;
#X connect 15 0 13 1;
#X connect 16 0 4 0;
#X connect 17 0 18 0;
#X connect 18 0 2 0;
#X connect 19 0 9 0;
#X connect 20 0 21 0;
#X connect 20 0 29 0;
#X connect 20 1 7 0;
#X connect 21 0 22 0;
#X connect 21 1 27 0;
#X connect 21 2 28 0;
#X connect 21 3 38 0;
#X connect 21 4 39 0;
#X connect 21 5 31 0;
#X connect 21 6 32 0;
#X connect 21 7 33 0;
#X connect 21 8 34 0;
#X connect 21 9 25 0;
#X connect 21 10 26 0;
#X connect 21 11 23 0;
#X connect 21 12 24 0;
#X connect 30 0 19 1;
