#N canvas 0 96 1280 704 8;
#X obj 200 98 tgl 20 0 empty empty empty 17 7 0 10 -262144 -1 -1 0
1;
#X obj 242 167 bng 20 250 50 0 empty empty empty 17 7 0 10 -262144
-1 -1;
#X msg 372 58 0.5;
#X msg 408 58 1;
#X text 439 57 beat length;
#X msg 242 109 tempo \$1 permin;
#X floatatom 242 58 5 0 0 0 - - -;
#X floatatom 372 104 5 0 0 0 - - -;
#X text 146 77 on/off;
#X text 146 57 change tempo;
#X obj 372 81 expr 1/$f1;
#X obj 271 172 s 4th;
#X obj 242 144 metro 1 120 permin, f 19;
#X obj 137 247 int 1;
#X obj 177 256 + 1;
#X obj 137 224 r 4th;
#X obj 324 244 random 4;
#X obj 356 26 sel 0 1 2;
#X obj 348 260 sel 0 1 2 3;
#X obj 309 419 readsf~, f 9;
#X obj 393 419 readsf~;
#X obj 474 419 readsf~;
#X obj 560 419 readsf~;
#X msg 337 58 2;
#X obj 137 270 % 2;
#X obj 137 291 sel 1;
#X obj 137 319 int 1;
#X obj 177 328 + 1;
#X obj 137 342 % 2;
#X obj 137 363 sel 1;
#X obj 181 291 s div2;
#X obj 178 363 s div4;
#X obj 242 84 * 8;
#X obj 324 217 r div4;
#X obj 412 174 r 4th;
#X obj 366 174 r div2;
#X obj 366 199 spigot;
#X obj 396 147 tgl 15 0 empty empty empty 17 7 0 10 -262144 -1 -1 0
1;
#X obj 412 198 spigot;
#X obj 470 151 tgl 15 0 empty empty empty 17 7 0 10 -262144 -1 -1 0
1;
#X obj 681 63 list trim;
#X obj 681 90 route POT CV GATE SW CC;
#X obj 566 44 route 0 1 2 3;
#X obj 566 115 unpack 0 0 0 0;
#X obj 363 521 *~ 1;
#X obj 401 521 *~ 1;
#X obj 437 521 *~ 1;
#X obj 472 521 *~ 1;
#X obj 746 302 unpack 0 0 0 0;
#X obj 719 367 / 127;
#X obj 754 367 / 127;
#X obj 790 367 / 127;
#X obj 825 367 / 127;
#X msg 242 32 168;
#X obj 158 22 loadbang;
#X obj 577 160 > 63;
#X obj 554 174 change;
#X obj 591 202 change;
#X obj 333 266 i;
#N canvas 444 355 525 320 Audio_OUT 0;
#X obj 33 73 throw~ AudioOutL;
#X obj 178 70 throw~ AudioOutR;
#X obj 37 37 inlet~;
#X obj 175 36 inlet~;
#X connect 2 0 0 0;
#X connect 3 0 1 0;
#X restore 348 742 pd Audio_OUT;
#X obj 362 594 *~;
#X obj 356 624 clip~ -0.5 0.5;
#X obj 469 570 / 127;
#X obj 501 596 + 1;
#X obj 539 617 * 3;
#X obj 476 46 unpack 0 0 0 0;
#X obj 434 105 / 127;
#X obj 435 128 * 100;
#X obj 480 108 + 100;
#X msg 309 387 open \$1 \, 1;
#X obj 310 326 makefilename %d-K.wav;
#X symbolatom 305 347 10 0 0 0 - - -;
#X msg 465 251 2;
#X symbolatom 422 348 10 0 0 0 - - -;
#X obj 427 327 makefilename %d-S.wav;
#X msg 394 387 open \$1 \, 1;
#X msg 474 387 open \$1 \, 1;
#X msg 560 387 open \$1 \, 1;
#X symbolatom 484 348 10 0 0 0 - - -;
#X obj 489 327 makefilename %d-H1.wav;
#X symbolatom 631 340 10 0 0 0 - - -;
#X obj 632 311 makefilename %d-H2.wav;
#X msg 519 252 1;
#X obj 622 272 sel 0 1;
#X obj 140 386 int 1;
#X obj 180 395 + 1;
#X obj 140 430 sel 1;
#X obj 181 431 s snr;
#X obj 416 230 r snr;
#X obj 140 409 % 4;
#X obj 478 174 > 63;
#X obj 478 197 change;
#X obj 415 256 spigot;
#X obj 501 228 loadbang;
#X obj 34 410 route 1 2 3 4;
#X obj 37 272 pack 0 0 0;
#X obj 37 138 route NOTE;
#X obj 37 110 list trim;
#X obj 37 80 r midi_in;
#X obj 92 237 spigot;
#X obj 114 180 sel 0;
#X obj 21 234 spigot;
#X obj 37 381 print;
#X msg 96 208 0;
#X obj 37 164 poly 1;
#X obj 38 444 sel 48 50 52 53;
#X obj 246 445 readsf~;
#X obj 329 522 *~ 1;
#X msg 227 386 open BS.wav \, 1;
#X obj 224 492 bob~, f 8;
#X floatatom 175 547 5 0 200 0 - - -;
#X obj 175 569 / 25;
#X floatatom 58 533 5 0 150 0 - - -;
#X obj 58 555 mtof;
#X obj 59 600 pack 0 50;
#X obj 59 625 line~;
#X floatatom 58 578 7 0 0 0 - - -;
#X obj 175 496 loadbang;
#X msg 175 521 10;
#X obj 174 597 line~;
#X obj 58 484 loadbang;
#X msg 58 509 24;
#X obj 232 239 unpack 0 0 0 0;
#X obj 244 263 / 3;
#X obj 314 479 / 55;
#N canvas 465 176 528 556 init_patch 0;
#X obj 30 22 loadbang;
#X obj 86 276 send RPI_type_btn;
#X obj 86 230 s RPI_display_page;
#X obj 86 181 send RPI_textfields_btn;
#X obj 86 136 send RPI_textfields;
#X obj 86 86 send RPI_display_title;
#X msg 86 209 POT SLIDER SLIDER;
#X msg 86 110 BPM *2 roll drive v_kick v_snare v_hats1 v_hats2 int_bass
vol_bass master off, f 81;
#X msg 86 254 tgl btn btn tgl off off off off off off tgl;
#X msg 87 158 ON_OFF *2 roll kits off off off off off off mute;
#X msg 86 60 PERFORMANCE MIXER BASSE;
#X connect 0 0 6 0;
#X connect 0 0 7 0;
#X connect 0 0 10 0;
#X connect 0 0 9 0;
#X connect 0 0 8 0;
#X connect 6 0 2 0;
#X connect 7 0 4 0;
#X connect 8 0 1 0;
#X connect 9 0 3 0;
#X connect 10 0 5 0;
#X restore 946 37 pd init_patch;
#X obj 768 132 route 0 1 2 3;
#X obj 768 158 unpack 0 0 0 0;
#X obj 747 252 s btn1;
#X obj 783 267 s btn2;
#X obj 923 168 unpack 0 0 0 0;
#X obj 913 255 s btn1;
#X obj 938 277 s btn2;
#X obj 977 275 s btn3;
#X obj 1002 247 s btn4;
#X obj 904 126 loadbang;
#X msg 1009 168 1;
#X msg 849 158 0;
#X obj 747 193 tgle;
#X obj 848 202 tgle;
#X obj 938 203 tgle;
#X obj 1002 211 tgle;
#X obj 977 235 btn;
#X obj 783 221 btn;
#X obj 901 222 multi;
#X msg 882 176 6;
#X obj 681 36 receive RPI_controls;
#X obj 129 100 loadbang;
#X msg 145 149 0;
#X obj 199 207 print breakkk;
#X obj 703 201 change;
#X obj 694 236 change;
#X obj 449 450 loadbang;
#X msg 412 472 0;
#X obj 704 273 change;
#X obj 353 713 *~ 1;
#X obj 537 665 / 127;
#X obj 824 245 s btn4;
#X obj 846 267 s btn3;
#X obj 810 198 btn;
#X obj 1043 123 unpack 0 0 0 0;
#X msg 1106 84 2;
#X obj 1082 174 tgle;
#X obj 716 566 change;
#X obj 359 680 *~ 1;
#X obj 689 619 sel 0 1;
#X msg 702 668 0;
#X msg 732 668 1;
#X obj 562 365 symbol;
#X obj 503 370 symbol;
#X obj 431 368 symbol;
#X obj 327 368 symbol;
#X connect 0 0 12 0;
#X connect 1 0 149 0;
#X connect 2 0 10 0;
#X connect 3 0 10 0;
#X connect 5 0 12 0;
#X connect 6 0 32 0;
#X connect 7 0 12 1;
#X connect 10 0 7 0;
#X connect 12 0 1 0;
#X connect 12 0 11 0;
#X connect 13 0 14 0;
#X connect 13 0 24 0;
#X connect 14 0 13 1;
#X connect 15 0 13 0;
#X connect 16 0 58 0;
#X connect 17 0 23 0;
#X connect 17 1 2 0;
#X connect 17 2 3 0;
#X connect 18 0 171 0;
#X connect 18 1 170 0;
#X connect 18 2 169 0;
#X connect 18 3 168 0;
#X connect 19 0 44 0;
#X connect 20 0 45 0;
#X connect 21 0 46 0;
#X connect 22 0 47 0;
#X connect 23 0 10 0;
#X connect 24 0 25 0;
#X connect 25 0 26 0;
#X connect 25 0 30 0;
#X connect 26 0 27 0;
#X connect 26 0 28 0;
#X connect 27 0 26 1;
#X connect 28 0 29 0;
#X connect 29 0 31 0;
#X connect 29 0 84 0;
#X connect 32 0 5 0;
#X connect 33 0 16 0;
#X connect 34 0 38 0;
#X connect 35 0 36 0;
#X connect 36 0 16 0;
#X connect 37 0 36 1;
#X connect 38 0 58 0;
#X connect 39 0 38 1;
#X connect 40 0 41 0;
#X connect 41 0 42 0;
#X connect 41 3 126 0;
#X connect 42 0 43 0;
#X connect 42 1 48 0;
#X connect 42 2 122 0;
#X connect 42 3 65 0;
#X connect 43 0 66 0;
#X connect 43 1 55 0;
#X connect 43 3 62 0;
#X connect 44 0 60 0;
#X connect 45 0 60 0;
#X connect 46 0 60 0;
#X connect 47 0 60 0;
#X connect 48 0 49 0;
#X connect 48 1 50 0;
#X connect 48 2 51 0;
#X connect 48 3 52 0;
#X connect 49 0 44 1;
#X connect 50 0 45 1;
#X connect 51 0 46 1;
#X connect 52 0 47 1;
#X connect 53 0 6 0;
#X connect 54 0 53 0;
#X connect 55 0 56 0;
#X connect 57 0 39 0;
#X connect 58 0 18 0;
#X connect 60 0 61 0;
#X connect 61 0 164 0;
#X connect 62 0 63 0;
#X connect 63 0 64 0;
#X connect 64 0 60 1;
#X connect 65 2 90 0;
#X connect 66 0 67 0;
#X connect 67 0 68 0;
#X connect 68 0 6 0;
#X connect 69 0 19 0;
#X connect 70 0 71 0;
#X connect 71 0 171 1;
#X connect 72 0 70 0;
#X connect 72 0 74 0;
#X connect 72 0 79 0;
#X connect 72 0 81 0;
#X connect 73 0 170 1;
#X connect 74 0 73 0;
#X connect 75 0 20 0;
#X connect 76 0 21 0;
#X connect 77 0 22 0;
#X connect 78 0 169 1;
#X connect 79 0 78 0;
#X connect 80 0 168 1;
#X connect 81 0 80 0;
#X connect 82 0 81 0;
#X connect 82 0 79 0;
#X connect 82 0 74 0;
#X connect 82 0 70 0;
#X connect 83 0 72 0;
#X connect 83 1 82 0;
#X connect 84 0 85 0;
#X connect 84 0 89 0;
#X connect 85 0 84 1;
#X connect 86 0 87 0;
#X connect 88 0 92 0;
#X connect 89 0 86 0;
#X connect 90 0 91 0;
#X connect 91 0 92 1;
#X connect 92 0 73 0;
#X connect 93 0 72 0;
#X connect 94 0 105 0;
#X connect 95 0 102 0;
#X connect 95 0 94 0;
#X connect 96 0 104 0;
#X connect 97 0 96 0;
#X connect 98 0 97 0;
#X connect 99 0 95 1;
#X connect 100 0 103 0;
#X connect 100 1 99 1;
#X connect 100 1 101 1;
#X connect 100 1 95 2;
#X connect 101 0 95 0;
#X connect 103 0 99 1;
#X connect 103 0 101 1;
#X connect 104 0 101 0;
#X connect 104 1 99 0;
#X connect 104 2 100 0;
#X connect 105 0 71 0;
#X connect 105 1 73 0;
#X connect 105 2 78 0;
#X connect 105 3 80 0;
#X connect 106 0 109 0;
#X connect 107 0 61 0;
#X connect 108 0 106 0;
#X connect 109 0 107 0;
#X connect 110 0 111 0;
#X connect 111 0 119 0;
#X connect 112 0 113 0;
#X connect 113 0 116 0;
#X connect 114 0 115 0;
#X connect 115 0 109 1;
#X connect 116 0 114 0;
#X connect 117 0 118 0;
#X connect 118 0 110 0;
#X connect 119 0 109 2;
#X connect 120 0 121 0;
#X connect 121 0 112 0;
#X connect 122 0 123 0;
#X connect 122 1 124 0;
#X connect 122 2 156 0;
#X connect 123 0 112 0;
#X connect 124 0 107 1;
#X connect 126 0 127 0;
#X connect 126 1 130 0;
#X connect 126 2 160 0;
#X connect 127 0 138 0;
#X connect 127 1 143 0;
#X connect 127 2 159 0;
#X connect 127 3 139 0;
#X connect 130 0 144 0;
#X connect 130 1 140 0;
#X connect 130 2 142 0;
#X connect 130 3 141 0;
#X connect 135 0 136 0;
#X connect 135 0 137 0;
#X connect 135 0 145 0;
#X connect 135 0 161 0;
#X connect 136 0 144 1;
#X connect 136 0 140 1;
#X connect 136 0 141 1;
#X connect 137 0 138 1;
#X connect 137 0 139 1;
#X connect 138 0 128 0;
#X connect 138 0 150 0;
#X connect 139 0 151 0;
#X connect 139 0 157 0;
#X connect 140 0 132 0;
#X connect 141 0 134 0;
#X connect 142 0 133 0;
#X connect 143 0 129 0;
#X connect 143 0 154 0;
#X connect 144 0 131 0;
#X connect 145 0 144 2;
#X connect 146 0 40 0;
#X connect 147 0 148 0;
#X connect 148 0 0 0;
#X connect 150 0 0 0;
#X connect 151 0 83 0;
#X connect 152 0 153 0;
#X connect 153 0 47 1;
#X connect 153 0 46 1;
#X connect 153 0 45 1;
#X connect 153 0 44 1;
#X connect 153 0 107 1;
#X connect 154 0 37 0;
#X connect 155 0 59 0;
#X connect 155 0 59 1;
#X connect 156 0 155 1;
#X connect 159 0 158 0;
#X connect 159 0 57 0;
#X connect 160 2 162 0;
#X connect 161 0 162 1;
#X connect 162 0 133 0;
#X connect 162 0 163 0;
#X connect 163 0 165 0;
#X connect 164 0 155 0;
#X connect 165 0 167 0;
#X connect 165 1 166 0;
#X connect 166 0 164 1;
#X connect 167 0 164 1;
#X connect 168 0 77 0;
#X connect 169 0 76 0;
#X connect 170 0 75 0;
#X connect 171 0 69 0;
#X connect 171 0 108 0;
