#N canvas 0 96 1280 704 8;
#X obj 681 63 list trim;
#X obj 681 90 route POT CV GATE SW CC;
#X obj 34 410 route 1 2 3 4;
#X obj 37 272 pack 0 0 0;
#X obj 37 138 route NOTE;
#X obj 37 110 list trim;
#X obj 37 80 r midi_in;
#X obj 92 237 spigot;
#X obj 114 180 sel 0;
#X obj 21 234 spigot;
#X msg 96 208 0;
#X obj 38 444 sel 48 50 52 53;
#N canvas 2 158 632 357 init_patch 0;
#X obj 30 22 loadbang;
#X obj 86 276 send RPI_type_btn;
#X obj 86 230 s RPI_display_page;
#X obj 86 181 send RPI_textfields_btn;
#X obj 86 136 send RPI_textfields;
#X obj 86 86 send RPI_display_title;
#X msg 86 61 OSC1 OSC2 MIXER ADSR1 ADSR2;
#X msg 86 209 POT POT SLIDER ADSR ADSR;
#X msg 86 109 wave1 freq octave ?? wave2 freq octave ?? vol_osc1 vol_osc2
drive filter, f 85;
#X msg 86 158 type :) off off type :/ off off mute1 mute2 drive fitl
, f 69;
#X msg 86 298 A 2 3 4 T4H 5 3C D 2 D D3;
#X obj 86 320 send RPI_list_multi_tgl;
#X msg 86 254 multi_w tgl btn tgl multi_w tgl btn btn tgl tgl tgl multi
;
#X connect 0 0 7 0;
#X connect 0 0 8 0;
#X connect 0 0 6 0;
#X connect 0 0 9 0;
#X connect 0 0 12 0;
#X connect 0 0 10 0;
#X connect 6 0 5 0;
#X connect 7 0 2 0;
#X connect 8 0 4 0;
#X connect 9 0 3 0;
#X connect 10 0 11 0;
#X connect 12 0 1 0;
#X restore 699 -46 pd init_patch;
#X obj 1102 18 route 0 1 2 3;
#X obj 1102 44 unpack 0 0 0 0;
#X obj 1081 138 s btn1;
#X obj 1117 153 s btn2;
#X obj 1158 131 s btn3;
#X obj 1180 153 s btn4;
#X obj 1257 54 unpack 0 0 0 0;
#X obj 1247 141 s btn1;
#X obj 1272 163 s btn2;
#X obj 1311 161 s btn3;
#X obj 1336 133 s btn4;
#X obj 1238 12 loadbang;
#X msg 1294 27 1;
#X msg 1183 44 0;
#X obj 1272 89 tgle, f 8;
#X obj 1311 121 btn;
#X obj 1235 108 multi, f 9;
#X obj 681 36 receive RPI_controls;
#X obj 1081 79 multi, f 8;
#X obj 1117 107 tgle, f 8;
#X obj 1179 107 btn;
#X obj 1336 97 btn;
#X obj 1393 55 unpack 0 0 0 0;
#X obj 1383 142 s btn1;
#X obj 1408 164 s btn2;
#X obj 1447 162 s btn3;
#X obj 1472 134 s btn4;
#X obj 1408 90 tgle;
#X obj 1371 109 tgle;
#X obj 1447 122 tgle;
#X msg 1430 28 2;
#X obj 284 402 sig~;
#X floatatom 284 380 5 0 0 0 - - -;
#X obj 284 427 phasor~;
#X obj 345 373 hradio 15 1 0 10 empty empty empty 0 -8 0 10 -262144
-1 -1 0;
#X text 344 355 select table;
#X text 383 416 specify table length;
#X obj 284 451 wbosc~;
#X msg 407 396 128;
#X obj 428 298 loadbang;
#X obj 311 622 wavebank 128;
#X floatatom 530 382 5 0 0 0 - - -;
#X floatatom 554 416 5 0 0 0 - - -;
#X floatatom 507 350 5 0 0 0 - - -;
#X floatatom 578 448 5 0 0 0 - - -;
#X floatatom 602 480 5 0 0 0 - - -;
#X obj 507 502 pack f f f f f;
#X obj 560 531 tgl 15 0 empty empty empty 17 7 0 10 -262144 -1 -1 0
1;
#X obj 613 546 tgl 15 0 empty empty empty 17 7 0 10 -262144 -1 -1 0
1;
#X text 579 530 key release off/on;
#X text 632 545 amp reset off/on;
#X text 506 332 attack time;
#X text 528 364 decay level (0-1);
#X text 553 399 decay time;
#X text 577 431 sustain time;
#X text 601 464 release time;
#X obj 333 500 *~;
#X obj 455 569 trigadsr~ 0 0;
#X obj 467 450 bng 15 250 50 0 empty empty empty 17 7 0 10 -262144
-1 -1;
#X obj 272 273 mtof;
#X obj 647 175 unpack 0 0 0 0;
#X obj 655 268 / 127;
#X obj 436 536 tgl 15 0 empty empty empty 17 7 0 10 -262144 -1 -1 0
1;
#X obj 388 453 bng 15 250 50 0 empty empty empty 17 7 0 10 -262144
-1 -1;
#X obj 410 485 del 10;
#X obj 753 435 sig~;
#X floatatom 753 413 5 0 0 0 - - -;
#X obj 753 460 phasor~;
#X obj 816 403 hradio 15 1 0 10 empty empty empty 0 -8 0 10 -262144
-1 -1 3;
#X text 815 385 select table;
#X text 854 446 specify table length;
#X obj 753 484 wbosc~;
#X msg 878 426 128;
#X obj 899 328 loadbang;
#X floatatom 1001 412 5 0 0 0 - - -;
#X floatatom 1025 446 5 0 0 0 - - -;
#X floatatom 978 380 5 0 0 0 - - -;
#X floatatom 1049 478 5 0 0 0 - - -;
#X floatatom 1073 510 5 0 0 0 - - -;
#X obj 978 532 pack f f f f f;
#X obj 1031 561 tgl 15 0 empty empty empty 17 7 0 10 -262144 -1 -1
0 1;
#X obj 1084 576 tgl 15 0 empty empty empty 17 7 0 10 -262144 -1 -1
0 1;
#X text 1050 560 key release off/on;
#X text 1103 575 amp reset off/on;
#X text 977 362 attack time;
#X text 999 394 decay level (0-1);
#X text 1024 429 decay time;
#X text 1048 461 sustain time;
#X text 1072 494 release time;
#X obj 804 530 *~;
#X obj 926 599 trigadsr~ 0 0;
#X obj 938 480 bng 15 250 50 0 empty empty empty 17 7 0 10 -262144
-1 -1;
#X obj 748 318 mtof;
#X obj 907 566 tgl 15 0 empty empty empty 17 7 0 10 -262144 -1 -1 0
1;
#X obj 859 483 bng 15 250 50 0 empty empty empty 17 7 0 10 -262144
-1 -1;
#X obj 881 515 del 10;
#X obj 1104 283 unpack 0 0 0 0;
#X obj 1112 376 / 127;
#X obj 627 136 route 0 1 2 3 4;
#X msg 1215 44 10;
#X obj 754 345 * 1;
#X obj 834 255 sel 0 1;
#X msg 796 308 1;
#X msg 798 332 2;
#X obj 637 599 *~;
#X obj 683 599 *~;
#X obj 561 177 unpack 0 0 0 0;
#X obj 544 222 / 127;
#X obj 580 213 / 127;
#X obj 354 246 sel 0 1;
#X msg 316 299 1;
#X msg 318 323 2;
#X obj 278 319 * 1;
#N canvas 444 355 525 320 Audio_OUT 0;
#X obj 33 73 throw~ AudioOutL;
#X obj 178 70 throw~ AudioOutR;
#X obj 37 37 inlet~;
#X obj 175 36 inlet~;
#X connect 2 0 0 0;
#X connect 3 0 1 0;
#X restore 619 697 pd Audio_OUT;
#X obj 653 658 clip~ -0.5 0.5;
#X obj 753 376 + 0;
#X obj 792 168 unpack 0 0 0 0;
#X obj 789 213 / 2;
#X obj 280 351 + 0;
#X obj 666 314 * 2;
#X obj 37 164 poly 1;
#X obj 1465 89 multi, f 9;
#X msg 1418 7 4;
#X floatatom 544 245 5 0 0 0 - - -;
#X obj 1172 -159 r RPI_btnupd;
#X obj 1172 -127 route 0 1 2 3;
#X obj 1172 -99 unpack 0 0 0 0;
#X obj 1187 -77 unpack 0 0 0 0;
#X obj 1104 -65 bng 8 250 50 0 empty empty empty 17 7 0 10 -262144
-1 -1;
#X obj 1278 -57 bng 8 250 50 0 empty empty empty 17 7 0 10 -262144
-1 -1;
#X obj 1104 -171 bng 8 250 50 0 empty empty empty 17 7 0 10 -262144
-1 -1;
#X obj 1278 -163 bng 8 250 50 0 empty empty empty 17 7 0 10 -262144
-1 -1;
#X obj 422 194 bng 8 250 50 0 empty empty empty 17 7 0 10 -262144 -1
-1;
#X obj 887 202 bng 8 250 50 0 empty empty empty 17 7 0 10 -262144 -1
-1;
#X obj 422 -2 bng 8 250 50 0 empty empty empty 17 7 0 10 -262144 -1
-1;
#X obj 887 6 bng 8 250 50 0 empty empty empty 17 7 0 10 -262144 -1
-1;
#X obj 463 157 unpack 0 0 0 0;
#X text 445 20 récupère les controles;
#X text 865 -158 update les états des boutons en fct du preset;
#X obj 262 715 bng 8 250 50 0 empty empty empty 17 7 0 10 -262144 -1
-1;
#X obj 1266 723 bng 8 250 50 0 empty empty empty 17 7 0 10 -262144
-1 -1;
#X obj 262 229 bng 8 250 50 0 empty empty empty 17 7 0 10 -262144 -1
-1;
#X obj 1266 237 bng 8 250 50 0 empty empty empty 17 7 0 10 -262144
-1 -1;
#X obj 1061 215 bng 8 250 50 0 empty empty empty 17 7 0 10 -262144
-1 -1;
#X obj 1515 223 bng 8 250 50 0 empty empty empty 17 7 0 10 -262144
-1 -1;
#X obj 1061 -31 bng 8 250 50 0 empty empty empty 17 7 0 10 -262144
-1 -1;
#X obj 1515 -23 bng 8 250 50 0 empty empty empty 17 7 0 10 -262144
-1 -1;
#X obj 6 62 bng 8 250 50 0 empty empty empty 17 7 0 10 -262144 -1 -1
;
#X obj 180 70 bng 8 250 50 0 empty empty empty 17 7 0 10 -262144 -1
-1;
#X obj 6 476 bng 8 250 50 0 empty empty empty 17 7 0 10 -262144 -1
-1;
#X obj 180 484 bng 8 250 50 0 empty empty empty 17 7 0 10 -262144 -1
-1;
#X text 20 37 récupère le midi;
#X text 1159 246 synthèse;
#X text 1271 -19 controle des boutons;
#X obj 1188 80 btn, f 9;
#X obj 433 199 * 2;
#X obj 653 639 *~;
#X obj 695 479 / 30;
#X obj 689 515 + 1;
#X connect 0 0 1 0;
#X connect 1 0 111 0;
#X connect 1 3 13 0;
#X connect 2 0 11 0;
#X connect 2 0 72 0;
#X connect 2 0 105 0;
#X connect 3 0 2 0;
#X connect 4 0 133 0;
#X connect 5 0 4 0;
#X connect 6 0 5 0;
#X connect 7 0 3 1;
#X connect 8 0 10 0;
#X connect 8 1 7 1;
#X connect 8 1 9 1;
#X connect 8 1 3 2;
#X connect 9 0 3 0;
#X connect 10 0 7 1;
#X connect 10 0 9 1;
#X connect 13 0 14 0;
#X connect 13 1 19 0;
#X connect 13 2 35 0;
#X connect 14 0 31 0;
#X connect 14 1 32 0;
#X connect 14 2 167 0;
#X connect 14 3 33 0;
#X connect 19 0 29 0;
#X connect 19 1 27 0;
#X connect 19 2 28 0;
#X connect 19 3 34 0;
#X connect 24 0 25 0;
#X connect 24 0 26 0;
#X connect 24 0 112 0;
#X connect 24 0 43 0;
#X connect 24 0 135 0;
#X connect 25 0 29 1;
#X connect 25 0 27 1;
#X connect 26 0 32 1;
#X connect 26 0 31 1;
#X connect 27 0 21 0;
#X connect 27 0 114 0;
#X connect 28 0 22 0;
#X connect 29 0 20 0;
#X connect 29 0 81 0;
#X connect 30 0 0 0;
#X connect 31 0 15 0;
#X connect 31 0 47 0;
#X connect 32 0 16 0;
#X connect 32 0 122 0;
#X connect 33 0 18 0;
#X connect 34 0 23 0;
#X connect 35 0 41 0;
#X connect 35 1 40 0;
#X connect 35 2 42 0;
#X connect 35 3 134 0;
#X connect 40 0 37 0;
#X connect 41 0 36 0;
#X connect 42 0 38 0;
#X connect 43 0 134 1;
#X connect 43 0 40 1;
#X connect 43 0 41 1;
#X connect 43 0 42 1;
#X connect 44 0 46 0;
#X connect 45 0 44 0;
#X connect 46 0 50 0;
#X connect 47 0 50 1;
#X connect 50 0 69 0;
#X connect 51 0 50 2;
#X connect 52 0 51 0;
#X connect 54 0 59 1;
#X connect 54 0 71 0;
#X connect 55 0 59 2;
#X connect 55 0 71 0;
#X connect 56 0 59 0;
#X connect 57 0 59 3;
#X connect 57 0 71 0;
#X connect 58 0 59 4;
#X connect 58 0 71 0;
#X connect 59 0 70 1;
#X connect 60 0 70 2;
#X connect 61 0 70 3;
#X connect 69 0 117 0;
#X connect 70 0 69 1;
#X connect 71 0 59 0;
#X connect 72 0 76 0;
#X connect 72 0 125 0;
#X connect 73 0 56 0;
#X connect 73 1 57 0;
#X connect 73 2 74 0;
#X connect 73 3 132 0;
#X connect 74 0 54 0;
#X connect 75 0 70 0;
#X connect 76 0 77 0;
#X connect 76 0 75 0;
#X connect 77 0 75 0;
#X connect 78 0 80 0;
#X connect 79 0 78 0;
#X connect 80 0 84 0;
#X connect 81 0 84 1;
#X connect 84 0 102 0;
#X connect 85 0 84 2;
#X connect 86 0 85 0;
#X connect 87 0 92 1;
#X connect 87 0 104 0;
#X connect 88 0 92 2;
#X connect 88 0 104 0;
#X connect 89 0 92 0;
#X connect 90 0 92 3;
#X connect 90 0 104 0;
#X connect 91 0 92 4;
#X connect 91 0 104 0;
#X connect 92 0 103 1;
#X connect 93 0 103 2;
#X connect 94 0 103 3;
#X connect 102 0 118 0;
#X connect 103 0 102 1;
#X connect 104 0 92 0;
#X connect 105 0 107 0;
#X connect 105 0 113 0;
#X connect 106 0 103 0;
#X connect 107 0 108 0;
#X connect 107 0 106 0;
#X connect 108 0 106 0;
#X connect 109 0 89 0;
#X connect 109 1 90 0;
#X connect 109 2 110 0;
#X connect 109 3 91 0;
#X connect 110 0 87 0;
#X connect 111 0 149 0;
#X connect 111 1 129 0;
#X connect 111 2 119 0;
#X connect 111 3 73 0;
#X connect 111 4 109 0;
#X connect 112 0 31 2;
#X connect 112 0 29 2;
#X connect 113 0 128 0;
#X connect 114 0 115 0;
#X connect 114 1 116 0;
#X connect 115 0 113 1;
#X connect 116 0 113 1;
#X connect 117 0 169 0;
#X connect 118 0 169 0;
#X connect 119 0 120 0;
#X connect 119 1 121 0;
#X connect 119 2 170 0;
#X connect 120 0 136 0;
#X connect 121 0 118 1;
#X connect 122 0 123 0;
#X connect 122 1 124 0;
#X connect 123 0 125 1;
#X connect 124 0 125 1;
#X connect 125 0 131 0;
#X connect 127 0 126 0;
#X connect 127 0 126 1;
#X connect 128 0 79 0;
#X connect 129 1 130 0;
#X connect 130 0 128 1;
#X connect 131 0 45 0;
#X connect 132 0 58 0;
#X connect 133 0 9 0;
#X connect 133 1 7 0;
#X connect 133 2 8 0;
#X connect 134 0 39 0;
#X connect 135 0 134 2;
#X connect 136 0 117 1;
#X connect 137 0 138 0;
#X connect 138 0 139 0;
#X connect 138 1 140 0;
#X connect 139 0 31 3;
#X connect 139 1 32 2;
#X connect 140 0 29 3;
#X connect 140 1 27 2;
#X connect 141 0 142 0;
#X connect 141 0 143 0;
#X connect 142 0 144 0;
#X connect 143 0 144 0;
#X connect 145 0 146 0;
#X connect 145 0 147 0;
#X connect 146 0 148 0;
#X connect 147 0 148 0;
#X connect 149 1 168 0;
#X connect 152 0 153 0;
#X connect 152 0 154 0;
#X connect 153 0 155 0;
#X connect 154 0 155 0;
#X connect 156 0 157 0;
#X connect 156 0 158 0;
#X connect 157 0 159 0;
#X connect 158 0 159 0;
#X connect 160 0 161 0;
#X connect 160 0 162 0;
#X connect 161 0 163 0;
#X connect 162 0 163 0;
#X connect 167 0 17 0;
#X connect 168 0 131 1;
#X connect 169 0 127 0;
#X connect 170 0 171 0;
#X connect 171 0 169 1;
