#N canvas 0 96 1280 704 12;
#X obj 895 73 route NOTE;
#X obj 895 163 sig~;
#X obj 895 136 mtof;
#X floatatom 962 162 5 0 0 0 - - -;
#X floatatom 1008 119 5 0 0 0 - - -;
#X obj 895 103 unpack 0 0;
#X obj 1014 82 bng 15 250 50 0 empty empty empty 17 7 0 10 -262144
-1 -1;
#X obj 894 46 list trim;
#X obj 936 307 line~;
#X obj 962 134 / 127;
#X msg 938 269 \$1 100;
#X obj 893 18 r midi_in;
#X obj 322 54 list trim;
#X text 1127 56 POTS 0-255;
#X text 1127 78 GATE 0-1;
#X text 1126 96 CV 0-4095;
#X obj 926 203 * 20;
#X obj 974 205 / 127;
#N canvas 444 385 260 124 Audio_IN 0;
#X obj 23 18 receive~ AudioInL;
#X obj 96 46 receive~ AudioInR;
#X obj 22 69 outlet~;
#X obj 95 74 outlet~;
#X connect 0 0 2 0;
#X connect 1 0 3 0;
#X restore 163 225 pd Audio_IN;
#N canvas 444 355 525 320 Audio_OUT 0;
#X obj 33 73 throw~ AudioOutL;
#X obj 178 70 throw~ AudioOutR;
#X obj 37 37 inlet~;
#X obj 175 36 inlet~;
#X connect 2 0 0 0;
#X connect 3 0 1 0;
#X restore 162 680 pd Audio_OUT;
#X obj 423 119 route 1 2;
#X obj 494 119 route 1 2;
#X obj 567 118 route 1 2;
#X text 54 19 init Patch;
#N canvas 2 98 638 702 wetdry 0;
#X obj 84 24 inlet~;
#X obj 135 25 inlet~;
#X obj 185 26 inlet~;
#X obj 236 27 inlet~;
#X obj 100 210 outlet~;
#X obj 201 205 outlet~;
#X obj 87 128 *~;
#X obj 131 131 *~;
#X obj 184 130 *~;
#X obj 228 133 *~;
#X obj 330 24 inlet;
#X obj 281 58 / 127;
#X obj 344 82 expr (127-$f1)/127;
#X connect 0 0 6 0;
#X connect 1 0 7 0;
#X connect 2 0 8 0;
#X connect 3 0 9 0;
#X connect 6 0 4 0;
#X connect 7 0 4 0;
#X connect 8 0 5 0;
#X connect 9 0 5 0;
#X connect 10 0 11 0;
#X connect 10 0 12 0;
#X connect 11 0 9 1;
#X connect 11 0 7 1;
#X connect 12 0 6 1;
#X connect 12 0 8 1;
#X restore 178 631 pd wetdry;
#X floatatom 579 232 0 0 100 0 - - -;
#X text 390 434 <= open to see how it works;
#N canvas 381 131 824 602 reverb 0;
#X obj 36 9 inlet~;
#X obj 37 62 reverb-echo echo-del1 5.43216;
#X obj 243 233 +~;
#X obj 285 233 +~;
#X obj 54 359 outlet~;
#X obj 124 359 outlet~;
#X obj 243 297 +~;
#X obj 348 298 +~;
#X obj 285 297 -~;
#X obj 387 297 -~;
#X obj 242 366 +~;
#X obj 286 367 +~;
#X obj 330 368 -~;
#X obj 369 368 -~;
#X obj 330 450 *~ 0;
#X obj 286 449 *~ 0;
#X obj 242 448 *~ 0;
#X obj 369 451 *~ 0;
#X obj 519 333 inlet;
#X obj 519 405 / 200;
#X obj 519 357 min 100;
#X obj 519 380 max 0;
#X obj 242 559 delwrite~ loop-del1 60;
#X obj 286 536 delwrite~ loop-del2 71.9345;
#X obj 369 489 delwrite~ loop-del4 95.945;
#X obj 261 172 delread~ loop-del1 60;
#X obj 303 198 delread~ loop-del2 71.9345;
#X obj 405 249 delread~ loop-del4 95.945;
#X obj 387 224 delread~ loop-del3 86.7545;
#X obj 330 513 delwrite~ loop-del3 86.7545;
#X obj 37 86 reverb-echo echo-del2 8.45346;
#X obj 37 110 reverb-echo echo-del3 13.4367;
#X obj 37 134 reverb-echo echo-del4 21.5463;
#X obj 37 158 reverb-echo echo-del5 34.3876;
#X obj 37 182 reverb-echo echo-del6 55.5437;
#X text 256 49 "early echo" generators \, which also increase echo
density. Open one to see what they do., f 44;
#X text 260 128 Get the outputs of the recirculating delays. Add the
inputs to two of them., f 38;
#X text 420 287 Do a power-conserving mix of them in pairs. First combine
(1 \, 2) and (3 \, 4)..., f 41;
#X text 403 361 ...then (1 \, 3) and (2 \, 4), f 14;
#X text 428 444 The two mixing stages have a combined gain of 2 \,
so the recirculation gain is limited to 0.5., f 48;
#X text 34 379 Tap outputs from here.;
#X text 596 367 feedback gain on a scale of 0 to 100 to control reverb
time., f 30;
#X text 539 516 Put the signals back into the recirculating delays.
, f 25;
#X floatatom 627 318 5 0 0 0 - - -;
#X floatatom 591 421 5 0 0 0 - - -;
#X obj 225 9 inlet~;
#X obj 370 401 lop~;
#X obj 290 406 lop~;
#X obj 244 403 lop~;
#X obj 329 409 lop~;
#X obj 600 193 mtof;
#X obj 706 55 inlet;
#X obj 101 35 *~;
#X obj 228 33 *~;
#X obj 316 9 inlet;
#X connect 0 0 52 0;
#X connect 1 0 30 0;
#X connect 1 1 30 1;
#X connect 2 0 4 0;
#X connect 2 0 6 0;
#X connect 2 0 8 0;
#X connect 3 0 5 0;
#X connect 3 0 6 1;
#X connect 3 0 8 1;
#X connect 6 0 10 0;
#X connect 6 0 12 0;
#X connect 7 0 12 1;
#X connect 7 0 10 1;
#X connect 8 0 11 0;
#X connect 8 0 13 0;
#X connect 9 0 11 1;
#X connect 9 0 13 1;
#X connect 10 0 48 0;
#X connect 11 0 47 0;
#X connect 12 0 49 0;
#X connect 13 0 46 0;
#X connect 14 0 29 0;
#X connect 15 0 23 0;
#X connect 16 0 22 0;
#X connect 17 0 24 0;
#X connect 18 0 20 0;
#X connect 19 0 17 1;
#X connect 19 0 16 1;
#X connect 19 0 15 1;
#X connect 19 0 14 1;
#X connect 20 0 21 0;
#X connect 21 0 19 0;
#X connect 21 0 44 0;
#X connect 25 0 2 1;
#X connect 26 0 3 1;
#X connect 27 0 7 1;
#X connect 27 0 9 1;
#X connect 28 0 7 0;
#X connect 28 0 9 0;
#X connect 30 0 31 0;
#X connect 30 1 31 1;
#X connect 31 0 32 0;
#X connect 31 1 32 1;
#X connect 32 0 33 0;
#X connect 32 1 33 1;
#X connect 33 0 34 0;
#X connect 33 1 34 1;
#X connect 34 0 2 0;
#X connect 34 1 3 0;
#X connect 43 0 20 0;
#X connect 45 0 53 0;
#X connect 46 0 17 0;
#X connect 47 0 15 0;
#X connect 48 0 16 0;
#X connect 49 0 14 0;
#X connect 50 0 46 1;
#X connect 50 0 49 1;
#X connect 50 0 47 1;
#X connect 50 0 48 1;
#X connect 51 0 50 0;
#X connect 52 0 1 0;
#X connect 53 0 1 1;
#X connect 54 0 53 1;
#X connect 54 0 52 1;
#X restore 298 439 pd reverb;
#X obj 364 155 / 2.55;
#X obj 380 188 / 2;
#X obj 429 164 / 255;
#X obj 323 81 route POT CV GATE SW CC;
#X obj 550 62 route 71 74 72 76;
#X obj 571 205 print;
#X obj 207 75 route 0 1 2 3;
#X obj 207 106 unpack 0 0 0 0;
#X obj 236 199 / 600;
#X obj 299 162 * 1;
#N canvas 465 176 528 556 init_patch 0;
#X obj 30 22 loadbang;
#X obj 86 276 send RPI_type_btn;
#X obj 86 230 s RPI_display_page;
#X obj 86 181 send RPI_textfields_btn;
#X obj 86 136 send RPI_textfields;
#X obj 86 86 send RPI_display_title;
#X msg 86 60 REV_ERB3;
#X msg 86 110 lev fedb damp input, f 81;
#X msg 86 158 .;
#X msg 86 255 .;
#X msg 86 209 POT;
#X connect 0 0 10 0;
#X connect 0 0 7 0;
#X connect 0 0 6 0;
#X connect 0 0 8 0;
#X connect 0 0 9 0;
#X connect 6 0 5 0;
#X connect 7 0 4 0;
#X connect 8 0 3 0;
#X connect 9 0 1 0;
#X connect 10 0 2 0;
#X restore 1138 248 pd init_patch;
#X obj 960 343 route 0 1 2 3;
#X obj 960 369 unpack 0 0 0 0;
#X obj 939 463 s btn1;
#X obj 975 478 s btn2;
#X obj 1016 456 s btn3;
#X obj 1038 478 s btn4;
#X obj 1115 379 unpack 0 0 0 0;
#X obj 1105 466 s btn1;
#X obj 1130 488 s btn2;
#X obj 1169 486 s btn3;
#X obj 1194 458 s btn4;
#X obj 1096 337 loadbang;
#X msg 1201 379 1;
#X msg 1041 369 0;
#X obj 939 404 tgle;
#X obj 1016 394 tgle;
#X obj 1130 414 tgle;
#X obj 1194 422 tgle;
#X obj 1169 446 btn;
#X obj 975 432 btn;
#X obj 1093 433 multi;
#X obj 1037 432 multi;
#X msg 1074 387 6;
#X obj 322 27 receive RPI_controls;
#X connect 0 0 5 0;
#X connect 0 0 6 0;
#X connect 2 0 1 0;
#X connect 5 0 2 0;
#X connect 5 1 4 0;
#X connect 5 1 9 0;
#X connect 7 0 0 0;
#X connect 9 0 3 0;
#X connect 10 0 8 0;
#X connect 11 0 7 0;
#X connect 11 0 12 0;
#X connect 12 0 31 0;
#X connect 16 0 10 0;
#X connect 18 0 24 0;
#X connect 18 0 27 0;
#X connect 18 0 27 1;
#X connect 18 1 24 2;
#X connect 18 1 27 1;
#X connect 24 0 19 0;
#X connect 24 1 19 1;
#X connect 25 0 27 3;
#X connect 27 0 24 1;
#X connect 27 1 24 3;
#X connect 28 0 27 3;
#X connect 29 0 27 4;
#X connect 30 0 27 2;
#X connect 31 0 34 0;
#X connect 31 1 20 0;
#X connect 31 2 21 0;
#X connect 31 3 22 0;
#X connect 31 4 32 0;
#X connect 34 0 35 0;
#X connect 35 0 36 0;
#X connect 35 1 27 3;
#X connect 35 2 27 4;
#X connect 35 3 37 0;
#X connect 36 0 27 2;
#X connect 37 0 24 4;
#X connect 39 0 40 0;
#X connect 39 1 45 0;
#X connect 40 0 53 0;
#X connect 40 1 58 0;
#X connect 40 2 54 0;
#X connect 40 3 60 0;
#X connect 45 0 59 0;
#X connect 45 1 55 0;
#X connect 45 2 57 0;
#X connect 45 3 56 0;
#X connect 50 0 51 0;
#X connect 50 0 52 0;
#X connect 50 0 61 0;
#X connect 51 0 59 1;
#X connect 51 0 55 1;
#X connect 51 0 56 1;
#X connect 52 0 53 1;
#X connect 52 0 60 1;
#X connect 52 0 54 1;
#X connect 53 0 41 0;
#X connect 54 0 43 0;
#X connect 55 0 47 0;
#X connect 56 0 49 0;
#X connect 57 0 48 0;
#X connect 58 0 42 0;
#X connect 59 0 46 0;
#X connect 60 0 44 0;
#X connect 61 0 60 2;
#X connect 61 0 59 2;
#X connect 62 0 12 0;
