#N canvas 180 115 1006 620 10;
#X msg -86 -36 \; pd dsp 0;
#X msg -86 -2 \; pd dsp 1;
#N canvas 707 129 520 633 strummer 0;
#X obj 110 36 inlet;
#X obj 247 15 inlet;
#X text 290 37 strum speed inlet and default value;
#X obj 72 582 outlet;
#X obj 124 585 outlet;
#X obj 172 591 outlet;
#X obj 217 591 outlet;
#X obj 263 591 outlet;
#X obj 310 591 outlet;
#X obj 110 62 metro 250;
#X obj 110 89 i 0;
#X obj 110 114 + 1;
#X obj 110 315 route 0 1 2 3 4 5 6 7;
#X obj 110 143 % 8;
#X obj 155 106 i;
#X obj 154 195 == 0;
#X obj 110 166 t f f;
#X obj 154 218 route 1;
#X obj 110 357 bng 15 250 50 0 empty empty empty 17 7 0 10 -262144
-1 -1;
#X obj 247 71 s \$0-strum_speed;
#X obj 272 353 r \$0-strum_speed;
#X obj 183 520 i 52;
#X obj 109 465 i 40;
#X obj 148 483 i 49;
#X obj 218 538 i 55;
#X obj 257 543 i 59;
#X obj 293 563 i 64;
#N canvas 101 96 589 438 chords 0;
#X obj 249 26 inlet;
#X obj 82 265 outlet;
#X obj 132 265 outlet;
#X obj 180 264 outlet;
#X obj 227 265 outlet;
#X obj 276 266 outlet;
#X obj 330 266 outlet;
#X obj 144 201 unpack f f f f f f;
#X msg 202 125 40 45 52 57 61 64;
#X msg 326 126 43 47 52 55 59 67;
#X msg 81 124 40 47 52 55 59 64;
#X obj 249 52 random 4;
#X obj 250 80 route 0 1 2 3;
#X msg 451 124 42 47 54 59 62 64;
#X text 348 50 randomly choose one of four chords \, and output the
midi pitches for each of the six strings.;
#X connect 0 0 11 0;
#X connect 7 0 1 0;
#X connect 7 1 2 0;
#X connect 7 2 3 0;
#X connect 7 3 4 0;
#X connect 7 4 5 0;
#X connect 7 5 6 0;
#X connect 8 0 7 0;
#X connect 9 0 7 0;
#X connect 10 0 7 0;
#X connect 11 0 12 0;
#X connect 12 0 10 0;
#X connect 12 1 8 0;
#X connect 12 2 9 0;
#X connect 12 3 13 0;
#X connect 13 0 7 0;
#X restore 28 320 pd chords;
#X text 152 162 Generate a simple 8 note strum pattern;
#X text 209 220 Every 8 notes \, randomly change chords;
#X obj 247 39 i 15;
#X obj 148 415 del 15;
#X obj 183 437 del 15;
#X obj 218 458 del 15;
#X obj 257 480 del 15;
#X obj 293 512 del 15;
#X connect 0 0 9 0;
#X connect 1 0 30 0;
#X connect 9 0 10 0;
#X connect 10 0 11 0;
#X connect 11 0 13 0;
#X connect 12 0 18 0;
#X connect 12 3 18 0;
#X connect 12 5 18 0;
#X connect 12 7 18 0;
#X connect 13 0 14 0;
#X connect 13 0 16 0;
#X connect 14 0 10 1;
#X connect 15 0 17 0;
#X connect 16 0 12 0;
#X connect 16 1 15 0;
#X connect 17 0 27 0;
#X connect 18 0 22 0;
#X connect 18 0 31 0;
#X connect 20 0 31 1;
#X connect 20 0 32 1;
#X connect 20 0 33 1;
#X connect 20 0 34 1;
#X connect 20 0 35 1;
#X connect 21 0 5 0;
#X connect 22 0 3 0;
#X connect 23 0 4 0;
#X connect 24 0 6 0;
#X connect 25 0 7 0;
#X connect 26 0 8 0;
#X connect 27 0 22 0;
#X connect 27 1 23 0;
#X connect 27 2 21 0;
#X connect 27 3 24 0;
#X connect 27 4 25 0;
#X connect 27 5 26 0;
#X connect 30 0 19 0;
#X connect 31 0 23 0;
#X connect 31 0 32 0;
#X connect 32 0 21 0;
#X connect 32 0 33 0;
#X connect 33 0 24 0;
#X connect 33 0 34 0;
#X connect 34 0 25 0;
#X connect 34 0 35 0;
#X connect 35 0 26 0;
#X restore 68 83 pd strummer;
#X obj 235 117 hsl 180 15 1 40 0 0 empty \$0-width_ctrl width -2 -8
1 10 -262144 -1 -1 10021 1;
#X obj 234 148 hsl 180 15 0.9 0.999 0 0 empty \$0-decay_ctrl decay
-2 -8 1 10 -262144 -1 -1 17086 1;
#X obj 234 178 hsl 180 15 100 8000 0 0 empty \$0-cutoff_ctrl cutoff
-2 -8 1 10 -262144 -1 -1 11601 1;
#N canvas 286 373 847 508 plucked_instrument 0;
#X obj 22 63 inlet;
#X obj 92 60 inlet;
#X obj 175 60 inlet;
#X obj 241 59 inlet;
#X obj 311 60 inlet;
#X obj 374 63 inlet;
#X obj 473 65 inlet;
#X obj 515 65 inlet;
#X obj 557 65 inlet;
#X text 17 16 6 inlets representing the six strings of our instrument.
A midi note integer message to any inlet excites that particular string
at the specified pitch.;
#X text 469 46 Width \, decay \, and cutoff inlets;
#X obj 21 165 karpluck~;
#X obj 21 373 outlet~;
#X obj 21 349 *~ 0.25;
#X obj 473 128 s \$0-width;
#X obj 516 107 s \$0-decay;
#X obj 557 87 s \$0-cutoff;
#X obj 106 87 r \$0-width;
#X obj 188 89 r \$0-decay;
#X obj 264 90 r \$0-cutoff;
#X obj 92 181 karpluck~;
#X obj 175 203 karpluck~;
#X obj 241 224 karpluck~;
#X obj 309 233 karpluck~;
#X obj 374 264 karpluck~;
#X text 334 112 comment;
#X text 73 343 scale the output down by approx 12dB to avoid clipping
;
#X connect 0 0 11 0;
#X connect 1 0 20 0;
#X connect 2 0 21 0;
#X connect 3 0 22 0;
#X connect 4 0 23 0;
#X connect 5 0 24 0;
#X connect 6 0 14 0;
#X connect 7 0 15 0;
#X connect 8 0 16 0;
#X connect 11 0 13 0;
#X connect 13 0 12 0;
#X connect 17 0 11 1;
#X connect 17 0 20 1;
#X connect 17 0 21 1;
#X connect 17 0 22 1;
#X connect 17 0 23 1;
#X connect 17 0 24 1;
#X connect 18 0 11 2;
#X connect 18 0 20 2;
#X connect 18 0 21 2;
#X connect 18 0 22 2;
#X connect 18 0 23 2;
#X connect 18 0 24 2;
#X connect 19 0 11 3;
#X connect 19 0 20 3;
#X connect 19 0 22 3;
#X connect 19 0 21 3;
#X connect 19 0 23 3;
#X connect 19 0 24 3;
#X connect 20 0 13 0;
#X connect 21 0 13 0;
#X connect 22 0 13 0;
#X connect 23 0 13 0;
#X connect 24 0 13 0;
#X restore 68 211 pd plucked_instrument;
#X obj 138 36 hsl 180 15 1 250 0 0 empty \$0-strum_speed_ctrl strum_speed
-2 -8 1 10 -262144 -1 -1 14018 1;
#X obj 68 48 tgl 15 0 empty empty empty 17 7 0 10 -262144 -1 -1 0 1
;
#X text -20 -2 <-- Turn DSP on by clicking here;
#X obj -151 156 loadbang;
#X msg -156 186 0.995;
#X msg -113 186 5700;
#X obj -186 280 s \$0-width_ctrl;
#X obj -156 256 s \$0-decay_ctrl;
#X obj -113 235 s \$0-cutoff_ctrl;
#X text -133 47 Click here to start strummer -->;
#X text 236 248 Colin Barry / colin@loomer.co.uk;
#X text 238 263 www.loomer.co.uk;
#X msg -186 186 8;
#X obj -80 212 s \$0-strum_speed_ctrl;
#X msg -73 187 8;
#X obj 375 -41 list trim;
#X obj 375 -14 route POT CV GATE SW CC;
#X obj 375 20 route 0 1 2 3;
#X obj 375 51 unpack 0 0 0 0;
#X obj 277 80 * 2;
#X obj 346 82 / 3;
#X obj 393 81 / 1000;
#X obj 447 75 * 60;
#X obj 502 58 unpack 0 0 0 0;
#X obj 69 258 *~;
#X obj 204 396 loadbang;
#N canvas 444 355 525 320 Audio_OUT 0;
#X obj 33 73 throw~ AudioOutL;
#X obj 178 70 throw~ AudioOutR;
#X obj 37 37 inlet~;
#X obj 175 36 inlet~;
#X connect 2 0 0 0;
#X connect 3 0 1 0;
#X restore 67 329 pd Audio_OUT;
#X obj 204 450 send textfields;
#X obj 106 261 *~;
#X obj 176 289 / 127;
#X obj 608 378 route 1 2 3 4;
#X obj 611 240 pack 0 0 0;
#X obj 611 106 route NOTE;
#X obj 611 78 list trim;
#X obj 611 48 r midi_in;
#X obj 611 132 poly 4;
#X obj 666 205 spigot;
#X obj 688 148 sel 0;
#X obj 595 202 spigot;
#X obj 611 349 print;
#X msg 670 176 0;
#X obj 442 157 + 0.87;
#X obj 295 214 change;
#N canvas 620 313 528 556 init_patch 1;
#X obj 30 22 loadbang;
#X obj 86 276 send RPI_type_btn;
#X obj 86 230 s RPI_display_page;
#X obj 86 181 send RPI_textfields_btn;
#X obj 86 136 send RPI_textfields;
#X obj 86 86 send RPI_display_title;
#X msg 86 209 SLIDER SLIDER;
#X msg 86 60 PERFOMANCE VOLUME;
#X msg 86 110 strum width decay cutoff volume, f 81;
#X msg 86 158 ON_OFF;
#X msg 86 254 tgl;
#X connect 0 0 6 0;
#X connect 0 0 9 0;
#X connect 0 0 10 0;
#X connect 0 0 8 0;
#X connect 0 0 7 0;
#X connect 6 0 2 0;
#X connect 7 0 5 0;
#X connect 8 0 4 0;
#X connect 9 0 3 0;
#X connect 10 0 1 0;
#X restore 932 -144 pd init_patch;
#X obj 754 -49 route 0 1 2 3;
#X obj 754 -23 unpack 0 0 0 0;
#X obj 733 71 s btn1;
#X obj 769 86 s btn2;
#X obj 810 64 s btn3;
#X obj 832 86 s btn4;
#X obj 909 -13 unpack 0 0 0 0;
#X obj 899 74 s btn1;
#X obj 924 96 s btn2;
#X obj 963 94 s btn3;
#X obj 988 66 s btn4;
#X obj 890 -55 loadbang;
#X msg 995 -13 1;
#X msg 835 -23 0;
#X obj 733 12 tgle;
#X obj 810 2 tgle;
#X obj 924 22 tgle;
#X obj 988 30 tgle;
#X obj 963 54 btn;
#X obj 769 40 btn;
#X obj 887 41 multi;
#X obj 831 40 multi;
#X msg 868 -5 6;
#X msg 204 421;
#X obj 582 -25 change;
#X obj 375 -68 receive RPI_controls;
#X connect 2 0 6 0;
#X connect 2 1 6 1;
#X connect 2 2 6 2;
#X connect 2 3 6 3;
#X connect 2 4 6 4;
#X connect 2 5 6 5;
#X connect 3 0 6 6;
#X connect 4 0 6 7;
#X connect 5 0 6 8;
#X connect 6 0 31 0;
#X connect 6 0 35 0;
#X connect 7 0 2 1;
#X connect 8 0 2 0;
#X connect 10 0 19 0;
#X connect 10 0 11 0;
#X connect 10 0 12 0;
#X connect 10 0 21 0;
#X connect 11 0 14 0;
#X connect 12 0 15 0;
#X connect 19 0 13 0;
#X connect 21 0 20 0;
#X connect 22 0 23 0;
#X connect 23 0 24 0;
#X connect 23 3 51 0;
#X connect 24 0 25 0;
#X connect 24 1 30 0;
#X connect 25 0 26 0;
#X connect 25 1 27 0;
#X connect 25 2 28 0;
#X connect 25 3 29 0;
#X connect 26 0 7 0;
#X connect 27 0 3 0;
#X connect 28 0 48 0;
#X connect 29 0 5 0;
#X connect 30 0 49 0;
#X connect 31 0 33 0;
#X connect 32 0 74 0;
#X connect 35 0 33 1;
#X connect 36 0 35 1;
#X connect 36 0 31 1;
#X connect 37 0 6 4;
#X connect 37 1 6 1;
#X connect 37 2 6 2;
#X connect 37 3 6 3;
#X connect 38 0 46 0;
#X connect 38 0 37 0;
#X connect 39 0 42 0;
#X connect 40 0 39 0;
#X connect 41 0 40 0;
#X connect 42 0 45 0;
#X connect 42 1 43 0;
#X connect 42 2 44 0;
#X connect 43 0 38 1;
#X connect 44 0 47 0;
#X connect 44 1 43 1;
#X connect 44 1 45 1;
#X connect 44 1 38 2;
#X connect 45 0 38 0;
#X connect 47 0 43 1;
#X connect 47 0 45 1;
#X connect 48 0 4 0;
#X connect 49 0 36 0;
#X connect 51 0 52 0;
#X connect 51 1 57 0;
#X connect 52 0 65 0;
#X connect 52 1 70 0;
#X connect 52 2 66 0;
#X connect 52 3 72 0;
#X connect 57 0 71 0;
#X connect 57 1 67 0;
#X connect 57 2 69 0;
#X connect 57 3 68 0;
#X connect 62 0 63 0;
#X connect 62 0 64 0;
#X connect 62 0 73 0;
#X connect 63 0 71 1;
#X connect 63 0 67 1;
#X connect 63 0 68 1;
#X connect 64 0 65 1;
#X connect 64 0 72 1;
#X connect 64 0 66 1;
#X connect 65 0 53 0;
#X connect 65 0 75 0;
#X connect 66 0 55 0;
#X connect 67 0 59 0;
#X connect 68 0 61 0;
#X connect 69 0 60 0;
#X connect 70 0 54 0;
#X connect 71 0 58 0;
#X connect 72 0 56 0;
#X connect 73 0 72 2;
#X connect 73 0 71 2;
#X connect 74 0 34 0;
#X connect 75 0 8 0;
#X connect 76 0 22 0;
