#N canvas 0 96 1280 704 8;
#X obj 61 141 soundfiler;
#N canvas 527 552 450 278 (subpatch) 0;
#X array audioFile 588001 float 2;
#X coords 0 1 588001 -1 200 140 1;
#X restore 167 183 graph;
#X floatatom 61 182 8 0 0 0 - - -;
#X floatatom 108 182 8 0 0 0 - - -;
#X obj 499 283 vline~;
#X obj 499 305 tabread4~ audioFile;
#X obj 497 379 *~ 1;
#X floatatom 543 343 8 0 0 0 - - -;
#X obj 499 230 pack f f f;
#X obj 499 162 f;
#X obj 536 70 r start;
#X obj 461 146 bng 15 250 50 0 empty empty empty 17 7 0 10 -262144
-1 -1;
#X obj 168 328 hsl 200 15 0 588001 0 0 empty empty empty -2 -8 0 10
-262144 -1 -1 10498 1;
#X obj 169 374 hsl 200 15 0 588001 0 0 empty empty empty -2 -8 0 10
-262144 -1 -1 862 1;
#X obj 61 221 s end;
#X msg 92 338 range 0 \$1;
#X obj 211 347 s start;
#X obj 211 393 s end;
#X obj 626 65 r end;
#X obj 531 178 r end;
#X obj 435 316 snapshot~;
#X floatatom 435 342 8 0 0 0 - - -;
#X obj 170 415 hsl 200 15 0 588001 0 0 empty empty empty -2 -8 0 10
-262144 -1 -1 4085 1;
#X floatatom 606 191 17 0 0 0 - - -;
#X obj 435 280 metro 100;
#X obj 435 245 loadbang;
#X obj 435 211 tgl 15 0 empty empty empty 17 7 0 10 -262144 -1 -1 0
1;
#X msg 499 258 \$1 \, \$2 \$3;
#X msg 575 231 \$1 1000;
#X obj 435 368 ==;
#X floatatom 680 230 17 0 0 0 - - -;
#X obj 461 368 sel 1;
#X obj 171 455 hsl 200 15 0 128 0 0 empty empty empty -2 -8 0 10 -262144
-1 -1 4054 1;
#X obj 79 410 / 127;
#X obj 86 485 i;
#X obj 116 521 /;
#X msg 61 115 read -resize \$1 audioFile;
#X obj 222 51 i;
#X obj 250 51 + 1;
#X obj 205 24 bng 15 250 50 0 empty empty empty 17 7 0 10 -262144 -1
-1;
#X obj 90 54 makefilename %d.wav;
#X symbolatom 127 82 10 0 0 0 - - -;
#X obj 222 97 + 1;
#X obj 685 69 hsl 200 15 0 5 0 0 empty empty empty -2 -8 0 10 -262144
-1 -1 4622 1;
#X obj 626 121 i;
#X obj 682 109 bng 15 250 50 0 empty empty empty 17 7 0 10 -262144
-1 -1;
#X obj 565 133 i;
#X msg 132 275 0;
#X obj 609 163 expr abs($f2 - $f1) / 44.1;
#X obj 764 198 / 1;
#X floatatom 639 211 17 0 0 0 - - -;
#X text 274 469 where is the cursor;
#X text 858 82 speed;
#X text 341 341 start;
#X text 347 387 stop;
#X text 364 8 number of samples;
#X msg 363 29 5;
#X obj 316 29 loadbang;
#X obj 222 76 %;
#X obj 595 341 tgl 15 0 empty empty empty 17 7 0 10 -262144 -1 -1 1
1;
#X obj 465 -219 list trim;
#X obj 465 -192 route POT CV GATE SW CC;
#X obj 350 -238 route 0 1 2 3;
#X obj 95 -163 unpack 0 0 0 0;
#X obj 196 -267 unpack 0 0 0 0;
#X obj 169 -202 / 127;
#X obj 204 -202 / 127;
#X obj 240 -202 / 127;
#X obj 275 -202 / 127;
#N canvas 444 355 525 320 Audio_OUT 0;
#X obj 33 73 throw~ AudioOutL;
#X obj 178 70 throw~ AudioOutR;
#X obj 37 37 inlet~;
#X obj 175 36 inlet~;
#X connect 2 0 0 0;
#X connect 3 0 1 0;
#X restore 498 450 pd Audio_OUT;
#X obj 380 -167 unpack 0 0 0 0;
#X obj -44 170 route 1 2 3 4;
#X obj -41 32 pack 0 0 0;
#X obj -41 -102 route NOTE;
#X obj -41 -130 list trim;
#X obj -41 -160 r midi_in;
#X obj 14 -3 spigot;
#X obj 36 -60 sel 0;
#X obj -57 -6 spigot;
#X obj -41 141 print;
#X msg 18 -32 0;
#X obj -41 -76 poly 1;
#X obj -40 204 sel 48 50 52 53;
#X obj 289 -165 unpack 0 0 0 0;
#N canvas 465 176 528 556 init_patch 0;
#X obj 30 22 loadbang;
#X obj 86 276 send RPI_type_btn;
#X obj 86 230 s RPI_display_page;
#X obj 87 181 send RPI_textfields_btn;
#X obj 86 136 send RPI_textfields;
#X obj 86 86 send RPI_display_title;
#X msg 86 110 BPM *2 roll drive v_kick v_snare v_hats1 v_hats2 int_bass
vol_bass master off, f 81;
#X msg 86 209 POT SAMPLE SLIDER SLIDER;
#X msg 86 60 PERFORMANCE SAMPLER BASSE;
#X msg 87 158;
#X obj 86 320 send RPI_list_multi_tgl;
#X msg 86 298 amb1 drmL pad1 loop;
#X msg 86 254 tgl btn btn tgl multi off off off off off tgl;
#X connect 0 0 7 0;
#X connect 0 0 6 0;
#X connect 0 0 8 0;
#X connect 0 0 9 0;
#X connect 0 0 12 0;
#X connect 0 0 11 0;
#X connect 6 0 4 0;
#X connect 7 0 2 0;
#X connect 8 0 5 0;
#X connect 9 0 3 0;
#X connect 11 0 10 0;
#X connect 12 0 1 0;
#X restore 730 -245 pd init_patch;
#X obj 552 -150 route 0 1 2 3;
#X obj 552 -124 unpack 0 0 0 0;
#X obj 531 -30 s btn1;
#X obj 567 -15 s btn2;
#X obj 707 -114 unpack 0 0 0 0;
#X obj 697 -27 s btn1;
#X obj 722 -5 s btn2;
#X obj 761 -7 s btn3;
#X obj 786 -35 s btn4;
#X obj 688 -156 loadbang;
#X msg 793 -114 1;
#X obj 632 -80 tgle;
#X obj 722 -79 tgle;
#X obj 786 -71 tgle;
#X obj 761 -47 btn;
#X obj 567 -61 btn;
#X obj 685 -60 multi;
#X obj 465 -246 receive RPI_controls;
#X obj 487 -81 change;
#X obj 478 -46 change;
#X obj 488 -9 change;
#X obj 608 -37 s btn4;
#X obj 630 -15 s btn3;
#X obj 594 -84 btn;
#X obj 827 -159 unpack 0 0 0 0;
#X msg 890 -198 2;
#X obj 866 -108 tgle;
#X obj 174 -109 *;
#X obj 197 -109 *;
#X obj 168 482 s RPI_cursor;
#X msg 633 -124 1;
#X obj 374 -113 * 5;
#X obj 990 537 spigot;
#X obj 989 586 +;
#X floatatom 960 617 5 0 0 0 - - -;
#X msg 991 559 1;
#X obj 1037 519 tgl 15 0 empty empty empty 17 7 0 10 -262144 -1 -1
0 1;
#X msg 1071 519 0;
#X obj 986 448 bng 15 250 50 0 empty empty empty 17 7 0 10 -262144
-1 -1;
#X msg 1006 501 -1;
#X obj 987 475 t b b b;
#X obj 948 660 t b f f;
#X msg 1039 497 1;
#X obj 935 573 del 1;
#X obj 759 727 *;
#X obj 703 691 print;
#X obj 753 835 tabwrite prev_max;
#X obj 766 903 tabwrite prev_min;
#X obj 1121 519 hsl 128 15 0 127 0 0 empty empty empty -2 -8 0 10 -262144
-1 -1 12000 1;
#X obj 777 505 hsl 128 15 0 127 0 0 empty empty empty -2 -8 0 10 -262144
-1 -1 0 1;
#X obj 774 618 *;
#X obj 774 641 int;
#X obj 796 582 value smp_size;
#X obj 774 557 t f b;
#X obj 762 754 +;
#X obj 1140 632 value smp_size;
#X obj 1118 607 t f b;
#X obj 1118 693 *;
#X obj 942 957 nbx 5 14 -1e+37 1e+37 0 0 empty empty empty 0 -8 0 10
-262144 -1 -1 5601 256;
#X obj 1118 738 + 1;
#X obj 1118 715 int;
#X text 798 478 start;
#X text 1148 539 zoom;
#X obj 758 797 array max audioFile;
#X obj 781 858 array min audioFile;
#X obj 987 419 r samplBng;
#X msg 872 453 0;
#X floatatom 331 57 5 1 100 0 - - -;
#X obj 340 84 bng 15 250 50 0 empty empty empty 17 7 0 10 -262144 -1
-1;
#X obj 369 108 value smp_size;
#X obj 333 140 array size audioFile;
#X floatatom 418 78 17 0 0 0 - - -;
#N canvas 629 385 450 278 (subpatch) 0;
#X array prev_max 128 float 1;
#A 0 0.220001 0.37738 0.39801 0.30658 0.23761 0.34079 0.320801 0.298248
0.193085 0.256439 0.260101 0.276001 0.2435 0.219116 0.186676 0.207306
0.20517 0.153168 0.163544 0.1315 0.175751 0.169617 0.146637 0.206299
0.419495 0.32663 0.382751 0.246002 0.277405 0.24295 0.354248 0.273132
0.245087 0.223358 0.160278 0.190979 0.171326 0.173584 0.139404 0.126099
0.0958862 0.121765 0.102875 0.109222 0.103363 0.0899353 0.0946045 0.129333
0.163605 0.228729 0.222717 0.214478 0.210846 0.250977 0.200287 0.20636
0.219818 0.212433 0.257874 0.243774 0.287048 0.197235 0.181824 0.166351
0.197601 0.158173 0.144196 0.119659 0.112488 0.125854 0.117218 0.113708
0.0799255 0.0710754 0.0715637 0.0508118 0.0699768 0.0564575 0.0396729
0.0404663 0.0341797 0.0387573 0.0341797 0.0273743 0.0291443 0.0278625
0.0263672 0.0272522 0.0300598 0.0232849 0.0249634 0.0176392 0.0198364
0.0125732 0.0129089 0.0166321 0.0153198 0.0129089 0.010437 0.0122681
0.0119019 0.00994873 0.00912476 0.00753784 -1e+30 -1e+30 -1e+30 -1e+30
-1e+30 -1e+30 -1e+30 -1e+30 -1e+30 -1e+30 -1e+30 -1e+30 -1e+30 -1e+30
-1e+30 -1e+30 -1e+30 -1e+30 -1e+30 -1e+30 -1e+30 -1e+30 -1e+30 -1e+30
;
#X coords 0 1 127 -1 200 140 1 0 0;
#X restore 373 567 graph;
#N canvas 0 22 450 278 (subpatch) 0;
#X array prev_min 128 float 1;
#A 0 -0.243835 -0.381378 -0.367737 -0.354156 -0.255981 -0.321014 -0.306976
-0.287079 -0.186707 -0.255432 -0.272797 -0.274689 -0.252625 -0.20697
-0.178589 -0.172607 -0.229462 -0.148926 -0.137756 -0.117798 -0.179169
-0.171143 -0.186462 -0.261475 -0.258789 -0.322632 -0.404846 -0.268524
-0.342743 -0.288818 -0.385284 -0.277466 -0.280518 -0.212982 -0.187073
-0.205658 -0.146179 -0.185089 -0.160645 -0.145386 -0.129974 -0.147369
-0.113647 -0.102112 -0.107849 -0.0895386 -0.0909424 -0.166779 -0.163818
-0.269501 -0.235321 -0.287842 -0.227814 -0.196503 -0.210999 -0.287537
-0.214844 -0.271942 -0.304657 -0.244385 -0.202118 -0.232544 -0.211792
-0.214508 -0.19986 -0.156036 -0.155457 -0.142365 -0.128479 -0.117462
-0.112671 -0.09021 -0.0890808 -0.087616 -0.0743408 -0.0558472 -0.0514832
-0.0501404 -0.0341797 -0.0387878 -0.0321045 -0.0340576 -0.0440063 -0.0289001
-0.0255432 -0.0272827 -0.0255432 -0.0276794 -0.0250854 -0.0187378 -0.0227051
-0.0230103 -0.0177612 -0.0133057 -0.0108337 -0.0163269 -0.0143433 -0.0114441
-0.0123901 -0.0119934 -0.0118103 -0.00949097 -0.00891113 -0.0078125
1e+30 1e+30 1e+30 1e+30 1e+30 1e+30 1e+30 1e+30 1e+30 1e+30 1e+30 1e+30
1e+30 1e+30 1e+30 1e+30 1e+30 1e+30 1e+30 1e+30 1e+30 1e+30 1e+30 1e+30
;
#X coords 0 1 127 -1 200 140 1 0 0;
#X restore 373 567 graph;
#X obj 250 26 s samplBng;
#X obj 584 850 array get prev_max;
#X obj 636 886 array get prev_min;
#X obj 584 917 list append;
#X obj 549 938 oscformat waveform;
#X obj 549 959 send RPI_LCD_messages;
#X obj 584 812 t b b;
#X msg 1118 475 120;
#X obj 774 533 / 120;
#X obj 1118 583 / 120;
#X obj 992 682 sel 128;
#X obj 1138 659 / 105;
#X obj 698 782 del 10000;
#X obj 163 -230 change;
#X obj 207 -227 change;
#X obj 248 -229 change;
#X obj -40 232 expr $f1-69;
#X obj -40 256 expr pow(2 \, $f1/12);
#X obj -13 284 expr 44100/$f1;
#X obj -40 312 *;
#X obj -40 338 phasor~;
#X msg 6 106 69;
#X obj 43 392 *~;
#X floatatom 4 318 5 0 0 0 - - -;
#X obj -4 93 bng 15 250 50 0 empty empty empty 17 7 0 10 -262144 -1
-1;
#X obj 663 106 bng 15 250 50 0 empty empty empty 17 7 0 10 -262144
-1 -1;
#X obj 646 258 bng 15 250 50 0 empty empty empty 17 7 0 10 -262144
-1 -1;
#X obj 499 194 f;
#X floatatom 1180 544 5 0 0 0 - - -;
#X floatatom 238 128 5 0 0 0 - - -;
#X obj 531 -80 multi, f 9;
#X floatatom 427 -4 5 0 0 0 - - -;
#X msg 666 -106 4;
#X obj 405 -47 + 1;
#X obj 291 -231 change;
#X obj 739 328 vline~;
#X msg 739 305 0 \, 1 5;
#X obj 496 344 *~;
#X text 674 312 anti click;
#X msg 503 44 0;
#X msg 536 48 1;
#X obj 473 24 bng 15 250 50 0 empty empty empty 17 7 0 10 -262144 -1
-1;
#X obj 514 20 del 200;
#X connect 0 0 2 0;
#X connect 0 1 3 0;
#X connect 0 1 153 0;
#X connect 2 0 14 0;
#X connect 2 0 15 0;
#X connect 2 0 33 0;
#X connect 2 0 13 0;
#X connect 2 0 47 0;
#X connect 2 0 112 1;
#X connect 2 0 113 1;
#X connect 2 0 177 0;
#X connect 2 0 181 1;
#X connect 4 0 20 0;
#X connect 4 0 5 0;
#X connect 5 0 196 0;
#X connect 6 0 69 0;
#X connect 6 0 69 1;
#X connect 7 0 6 1;
#X connect 8 0 27 0;
#X connect 9 0 186 0;
#X connect 9 0 46 0;
#X connect 10 0 46 0;
#X connect 10 0 9 0;
#X connect 11 0 9 0;
#X connect 11 0 195 0;
#X connect 12 0 16 0;
#X connect 13 0 17 0;
#X connect 15 0 13 0;
#X connect 15 0 12 0;
#X connect 15 0 22 0;
#X connect 18 0 30 0;
#X connect 18 0 44 0;
#X connect 19 0 8 1;
#X connect 20 0 21 0;
#X connect 20 0 22 0;
#X connect 21 0 29 0;
#X connect 21 0 46 1;
#X connect 22 0 35 0;
#X connect 23 0 49 0;
#X connect 24 0 20 0;
#X connect 25 0 24 0;
#X connect 26 0 24 0;
#X connect 27 0 4 0;
#X connect 28 0 4 0;
#X connect 29 0 31 0;
#X connect 30 0 29 1;
#X connect 31 0 11 0;
#X connect 32 0 114 0;
#X connect 33 0 34 0;
#X connect 34 0 35 1;
#X connect 35 0 32 0;
#X connect 36 0 0 0;
#X connect 37 0 38 0;
#X connect 37 0 58 0;
#X connect 38 0 37 1;
#X connect 39 0 37 0;
#X connect 40 0 41 0;
#X connect 40 0 36 0;
#X connect 42 0 188 0;
#X connect 43 0 49 1;
#X connect 43 0 45 0;
#X connect 44 0 48 1;
#X connect 44 0 184 0;
#X connect 45 0 49 0;
#X connect 46 0 28 0;
#X connect 46 0 48 0;
#X connect 47 0 12 0;
#X connect 48 0 23 0;
#X connect 49 0 50 0;
#X connect 50 0 8 2;
#X connect 50 0 185 0;
#X connect 56 0 58 1;
#X connect 57 0 56 0;
#X connect 57 0 39 0;
#X connect 58 0 42 0;
#X connect 59 0 6 1;
#X connect 60 0 61 0;
#X connect 61 0 62 0;
#X connect 61 3 85 0;
#X connect 62 0 63 0;
#X connect 62 1 64 0;
#X connect 62 2 83 0;
#X connect 62 3 70 0;
#X connect 64 0 172 0;
#X connect 64 1 173 0;
#X connect 64 2 174 0;
#X connect 64 3 193 0;
#X connect 65 0 112 0;
#X connect 66 0 113 0;
#X connect 67 0 116 0;
#X connect 68 0 6 1;
#X connect 71 0 82 0;
#X connect 72 0 79 0;
#X connect 72 0 71 0;
#X connect 72 0 183 0;
#X connect 73 0 81 0;
#X connect 74 0 73 0;
#X connect 75 0 74 0;
#X connect 76 0 72 1;
#X connect 77 0 80 0;
#X connect 77 1 76 1;
#X connect 77 1 78 1;
#X connect 77 1 72 2;
#X connect 78 0 72 0;
#X connect 80 0 76 1;
#X connect 80 0 78 1;
#X connect 81 0 78 0;
#X connect 81 1 76 0;
#X connect 81 2 77 0;
#X connect 82 0 175 0;
#X connect 85 1 86 0;
#X connect 85 2 109 0;
#X connect 86 0 189 0;
#X connect 86 1 100 0;
#X connect 86 2 108 0;
#X connect 86 3 96 0;
#X connect 89 0 101 0;
#X connect 89 1 97 0;
#X connect 89 2 99 0;
#X connect 89 3 98 0;
#X connect 94 0 95 0;
#X connect 94 0 115 0;
#X connect 94 0 191 0;
#X connect 94 0 110 0;
#X connect 95 0 101 1;
#X connect 95 0 97 1;
#X connect 95 0 98 1;
#X connect 96 0 104 0;
#X connect 96 0 106 0;
#X connect 97 0 91 0;
#X connect 98 0 93 0;
#X connect 99 0 92 0;
#X connect 100 0 88 0;
#X connect 100 0 105 0;
#X connect 101 0 90 0;
#X connect 102 0 60 0;
#X connect 103 0 192 0;
#X connect 103 0 200 0;
#X connect 108 0 107 0;
#X connect 109 2 111 0;
#X connect 110 0 111 1;
#X connect 111 0 92 0;
#X connect 112 0 12 0;
#X connect 113 0 13 0;
#X connect 115 0 96 1;
#X connect 115 0 189 1;
#X connect 116 0 43 0;
#X connect 117 0 120 0;
#X connect 118 0 119 0;
#X connect 119 0 126 0;
#X connect 119 0 129 0;
#X connect 119 0 131 1;
#X connect 119 0 132 1;
#X connect 120 0 118 0;
#X connect 121 0 117 1;
#X connect 122 0 121 0;
#X connect 123 0 125 0;
#X connect 124 0 118 1;
#X connect 125 0 117 0;
#X connect 125 1 124 0;
#X connect 125 2 127 0;
#X connect 126 0 128 0;
#X connect 126 1 118 1;
#X connect 126 2 169 0;
#X connect 127 0 121 0;
#X connect 128 0 117 0;
#X connect 129 0 139 0;
#X connect 133 0 123 0;
#X connect 133 0 168 0;
#X connect 133 0 187 0;
#X connect 134 0 123 0;
#X connect 134 0 167 0;
#X connect 135 0 136 0;
#X connect 136 0 130 0;
#X connect 136 0 139 1;
#X connect 137 0 135 1;
#X connect 138 0 135 0;
#X connect 138 1 137 0;
#X connect 139 0 148 0;
#X connect 139 0 149 0;
#X connect 140 0 170 0;
#X connect 141 0 142 0;
#X connect 141 1 140 0;
#X connect 142 0 145 0;
#X connect 144 0 143 0;
#X connect 144 0 129 1;
#X connect 144 0 148 1;
#X connect 144 0 149 1;
#X connect 145 0 144 0;
#X connect 148 0 131 0;
#X connect 148 1 171 0;
#X connect 149 0 132 0;
#X connect 150 0 151 0;
#X connect 150 0 166 0;
#X connect 151 0 134 0;
#X connect 152 0 155 0;
#X connect 153 0 155 0;
#X connect 153 0 159 0;
#X connect 155 0 154 0;
#X connect 155 0 156 0;
#X connect 160 0 162 0;
#X connect 161 0 162 1;
#X connect 162 0 163 0;
#X connect 163 0 164 0;
#X connect 165 0 160 0;
#X connect 165 1 161 0;
#X connect 166 0 133 0;
#X connect 167 0 138 0;
#X connect 168 0 141 0;
#X connect 169 0 122 0;
#X connect 170 0 142 1;
#X connect 171 0 165 0;
#X connect 172 0 65 0;
#X connect 173 0 66 0;
#X connect 174 0 67 0;
#X connect 175 0 176 0;
#X connect 176 0 178 0;
#X connect 177 0 178 1;
#X connect 178 0 179 0;
#X connect 178 0 182 0;
#X connect 179 0 181 0;
#X connect 180 0 175 0;
#X connect 183 0 2 0;
#X connect 184 0 48 0;
#X connect 185 0 8 0;
#X connect 185 0 195 0;
#X connect 186 0 8 0;
#X connect 189 0 87 0;
#X connect 189 0 103 0;
#X connect 189 0 190 0;
#X connect 191 0 101 2;
#X connect 191 0 189 2;
#X connect 192 0 40 0;
#X connect 193 0 68 0;
#X connect 194 0 196 1;
#X connect 195 0 194 0;
#X connect 196 0 6 0;
#X connect 198 0 59 0;
#X connect 199 0 59 0;
#X connect 200 0 198 0;
#X connect 200 0 201 0;
#X connect 201 0 199 0;
